<svg width="26.122406" height="29.150879" viewBox="0 0 26.1224 29.1509" fill="none" xmlns="http://www.w3.org/2000/svg" xmlns:xlink="http://www.w3.org/1999/xlink">
	<desc>
			Created with Pixso.
	</desc>
	<defs/>
	<path id="path20903" d="M0.588837 28.9602L14.4883 14.5437L0.600494 0.153076C0.229553 0.377197 0 0.895752 0 1.57495L0 27.552C0.00497437 28.2312 0.226227 28.7119 0.588837 28.9602Z" fill="#B2B2B2" fill-opacity="1.000000" fill-rule="nonzero"/>
	<path id="path20905" d="M14.986 14.146L19.1263 9.85107L2.26593 0.261963C1.98203 0.0908203 1.65952 0.000488281 1.33109 0L14.9843 14.144L14.986 14.146Z" fill="#B2B2B2" fill-opacity="1.000000" fill-rule="nonzero"/>
	<path id="path20907" d="M14.9865 14.9443L1.29004 29.1506C1.63382 29.1565 1.97241 29.0635 2.26813 28.8816L19.1617 19.2666L14.9865 14.9443Z" fill="#B2B2B2" fill-opacity="1.000000" fill-rule="nonzero"/>
	<path id="path20909" d="M25.2344 13.3308L19.6237 10.1338L15.3704 14.5457L19.6553 18.9854L25.2327 15.7969C26.4187 15.1196 26.4187 14.0046 25.2344 13.3308Z" fill="#B2B2B2" fill-opacity="1.000000" fill-rule="nonzero"/>
</svg>
