<svg width="119.625000" height="18.000000" viewBox="0 0 119.625 18" fill="none" xmlns="http://www.w3.org/2000/svg" xmlns:xlink="http://www.w3.org/1999/xlink">
	<desc>
			Created with Pixso.
	</desc>
	<defs>
		<clipPath id="clip1_396">
			<rect id="63113d978ebd85eb94887924_star-rating-yellow.svg" width="19.625000" height="17.989584" transform="translate(0.000000 0.005371)" fill="white" fill-opacity="0"/>
		</clipPath>
		<clipPath id="clip1_401">
			<rect id="63113d978ebd85eb94887924_star-rating-yellow.svg" width="19.625000" height="17.989584" transform="translate(25.000000 0.005371)" fill="white" fill-opacity="0"/>
		</clipPath>
		<clipPath id="clip1_406">
			<rect id="63113d978ebd85eb94887924_star-rating-yellow.svg" width="19.625000" height="17.989584" transform="translate(49.000000 0.005371)" fill="white" fill-opacity="0"/>
		</clipPath>
		<clipPath id="clip1_411">
			<rect id="63113d978ebd85eb94887924_star-rating-yellow.svg" width="19.625000" height="17.989584" transform="translate(75.000000 0.005371)" fill="white" fill-opacity="0"/>
		</clipPath>
		<clipPath id="clip1_416">
			<rect id="63113d978ebd85eb94887924_star-rating-yellow.svg" width="19.625000" height="17.989584" transform="translate(100.000000 0.005371)" fill="white" fill-opacity="0"/>
		</clipPath>
	</defs>
	<g clip-path="url(#clip1_396)">
		<path id="Star" d="M9.8125 13.9771L4.04486 17.7563L5.85693 11.103L0.480255 6.78564L7.36781 6.45312L9.8125 0.00537109L12.2572 6.45312L19.1447 6.78564L13.7681 11.103L15.5801 17.7563L9.8125 13.9771Z" fill="#FFC54F" fill-opacity="1.000000" fill-rule="evenodd"/>
	</g>
	<g clip-path="url(#clip1_401)">
		<path id="Star" d="M34.8125 13.9771L29.0449 17.7563L30.8569 11.103L25.4803 6.78564L32.3678 6.45312L34.8125 0.00537109L37.2572 6.45312L44.1447 6.78564L38.7681 11.103L40.5801 17.7563L34.8125 13.9771Z" fill="#FFC54F" fill-opacity="1.000000" fill-rule="evenodd"/>
	</g>
	<g clip-path="url(#clip1_406)">
		<path id="Star" d="M58.8125 13.9771L53.0449 17.7563L54.8569 11.103L49.4803 6.78564L56.3678 6.45312L58.8125 0.00537109L61.2572 6.45312L68.1447 6.78564L62.7681 11.103L64.5801 17.7563L58.8125 13.9771Z" fill="#FFC54F" fill-opacity="1.000000" fill-rule="evenodd"/>
	</g>
	<g clip-path="url(#clip1_411)">
		<path id="Star" d="M84.8125 13.9771L79.0449 17.7563L80.8569 11.103L75.4803 6.78564L82.3678 6.45312L84.8125 0.00537109L87.2572 6.45312L94.1447 6.78564L88.7681 11.103L90.5801 17.7563L84.8125 13.9771Z" fill="#FFC54F" fill-opacity="1.000000" fill-rule="evenodd"/>
	</g>
	<g clip-path="url(#clip1_416)">
		<path id="Star" d="M109.812 13.9771L104.045 17.7563L105.857 11.103L100.48 6.78564L107.368 6.45312L109.812 0.00537109L112.257 6.45312L119.145 6.78564L113.768 11.103L115.58 17.7563L109.812 13.9771Z" fill="#FFC54F" fill-opacity="1.000000" fill-rule="evenodd"/>
	</g>
</svg>
