<svg width="152.000000" height="57.000000" viewBox="0 0 152 57" fill="none" xmlns="http://www.w3.org/2000/svg" xmlns:xlink="http://www.w3.org/1999/xlink">
	<desc>
			Created with Pixso.
	</desc>
	<defs>
		<clipPath id="clip2_266">
			<rect id="Frame" width="152.000000" height="57.000000" fill="white" fill-opacity="0"/>
		</clipPath>
	</defs>
	<g opacity="0.400000">
		<rect id="Frame" width="152.000000" height="57.000000" fill="#FFFFFF" fill-opacity="0"/>
		<g clip-path="url(#clip2_266)">
			<path id="Vector" d="M34.1761 13.5139C31.0108 16.9124 27.7809 20.0475 24.9348 23.5033C20.2457 29.2006 17.5744 35.738 17.9962 43.2912C18.4331 51.0925 21.9253 57.9049 31.6644 56.9044C33.7506 56.6906 36.4599 56.0987 37.5923 54.6591C39.1046 52.7307 39.3554 49.8057 40.1648 47.2549C38.5764 46.6821 38.0027 47.6024 37.3225 48.4539C36.1027 49.9775 34.9779 51.6462 33.5074 52.8873C31.6112 54.4873 29.3085 55.293 26.8461 54.0596C24.4826 52.8758 23.6276 50.6916 23.7112 48.221C23.8062 45.441 23.9734 42.6344 24.4902 39.9079C26.2799 30.4149 31.3224 22.6174 37.0147 15.7401C39.9292 16.4618 42.4333 17.405 45.0021 17.6379C48.5322 17.9625 51.9407 17.1759 54.5246 14.4303C56.8198 11.9903 56.0446 8.96211 52.8337 8.11057C49.2694 7.16738 45.6481 7.26666 42.3573 9.04612C41.0046 9.77547 40.1648 9.50053 38.9792 8.90865C33.8494 6.34638 28.7081 3.81084 23.4984 1.43569C20.5915 0.110637 17.525 -0.435421 14.2874 0.389394C9.38937 1.63807 6.39504 5.18172 6.64584 10.2337C6.74843 12.3225 7.744 14.3501 8.1544 16.4427C8.43559 17.8823 8.62179 19.4098 8.42419 20.8417C8.33299 21.4985 7.20822 22.4837 6.56984 22.4723C5.68066 22.457 4.49509 21.8613 3.9859 21.1281C2.88773 19.5434 3.74271 18.0083 4.72688 16.6031C5.10307 16.0685 5.36906 15.4537 5.77186 14.7167C3.27912 14.5067 1.51596 15.2513 0.649582 16.8246C-0.31179 18.5697 -0.163597 20.3797 0.824379 22.0637C2.56853 25.0307 6.71803 26.0885 9.81496 24.4236C12.6079 22.9229 14.1126 18.9324 12.3343 15.889C11.4109 14.3081 10.3925 12.7807 9.47296 11.196C7.52361 7.84327 9.29057 4.09724 13.1665 3.88722C15.1462 3.7803 17.3958 4.13542 19.1399 5.02897C24.2926 7.68289 29.2629 10.7072 34.1761 13.5139Z" fill="#FFFFFF" fill-opacity="1.000000" fill-rule="nonzero"/>
			<path id="Vector" d="M60.7269 9.93211C60.4153 10.692 60.1759 11.3832 59.8567 12.04C56.3646 19.2036 52.9105 26.3864 49.3272 33.5042C48.3582 35.4288 48.2366 37.3075 48.533 39.4268C50.4215 39.2245 52.2075 39.0374 54.0466 38.8388C52.4013 35.5395 55.0384 33.5271 55.9618 30.5754C57.5654 32.7863 57.9682 34.9286 58.2608 37.0861C58.8193 41.1834 60.1645 44.8492 64.3406 46.4378C70.2608 48.6907 75.9911 47.8697 81.3072 44.5399C82.3559 43.8831 82.9905 42.5581 83.9519 41.3743C80.8854 40.5381 79.9012 41.0727 78.4686 42.8788C77.5871 43.9939 76.1963 45.1853 74.8891 45.3877C68.9385 46.3156 64.3216 45.1509 62.6268 37.9147C61.8593 34.6345 61.3311 31.3773 58.3139 29.1167C67.3311 26.5468 71.0398 22.4303 69.7516 16.4772C66.5483 18.4208 63.3982 20.3301 60.1873 22.2776C61.0271 20.5058 61.8707 18.6996 62.737 16.9048C63.8086 14.6824 64.9258 12.4867 65.9707 10.2529C66.4685 9.19513 66.2975 7.9579 65.1272 7.77079C62.9308 7.4233 60.7079 7.67915 58.1087 8.88964C59.2107 9.32878 59.8035 9.56553 60.7269 9.93211Z" fill="#FFFFFF" fill-opacity="1.000000" fill-rule="nonzero"/>
			<path id="Vector" d="M90.776 39.3696C91.8704 39.2054 92.6114 39.1366 93.3333 38.9762C94.5683 38.7051 95.3359 38.3538 95.6741 36.6775C96.5481 32.3586 99.0712 28.8494 102.214 25.8098C100.591 30.266 97.1066 34.0923 97.8932 39.4841C100.15 39.0488 102.225 38.644 104.304 38.2431C104.3 38.0445 104.3 37.8459 104.296 37.6436C103.654 37.3724 103.016 37.1013 102.21 36.7576C102.662 35.6732 103.084 34.6345 103.529 33.6035C104.706 30.877 105.983 28.1926 107.024 25.4164C107.336 24.5802 107.351 23.1368 106.846 22.6365C106.359 22.1554 104.938 22.2776 104.095 22.5907C102.829 23.0566 101.705 23.9196 100.591 24.5725C100.595 22.1859 99.9984 21.6093 97.593 22.2699C96.4873 22.5716 95.5107 23.362 94.4239 23.9539C94.3859 23.3926 94.3479 22.858 94.2947 22.1401C91.555 22.7816 88.7658 22.3959 86.2503 23.4384C86.2655 23.6217 86.2845 23.805 86.2997 23.9883C87.2535 24.225 88.2111 24.4618 89.674 24.8246C88.3175 27.4861 87.1129 30.0828 85.6955 32.561C84.4567 34.73 83.788 36.9371 84.2325 39.5223C85.0495 39.3772 85.8361 39.1175 86.6227 39.1213C88.1161 39.129 88.3669 38.4225 88.7887 37.0211C90.1186 32.5954 92.4328 28.6432 95.7539 25.3401C94.5189 30.098 90.6468 33.9013 90.776 39.3696Z" fill="#FFFFFF" fill-opacity="1.000000" fill-rule="nonzero"/>
			<path id="Vector" d="M129.702 24.3243C129.862 24.4427 130.025 24.5649 130.185 24.6832C129.999 25.3171 129.881 25.9816 129.615 26.5734C128.213 29.6779 126.613 32.7061 125.386 35.8793C124.181 38.9877 124.428 39.1748 127.62 39.0144C128.376 38.9762 129.14 39.0067 129.892 38.9227C130.394 38.8655 130.88 38.6593 131.887 38.3729C130.831 37.8574 130.303 37.6015 129.588 37.254C129.847 36.4941 130.018 35.6884 130.383 34.9896C131.435 32.9696 132.666 31.0374 133.628 28.9753C134.308 27.5128 134.844 25.9281 135.102 24.3396C135.322 22.9802 134.593 21.888 132.993 22.2203C131.139 22.6021 129.33 23.1902 127.544 23.679C127.707 22.5181 126.955 22.2661 125.606 22.5334C123.873 22.877 121.981 22.6479 120.153 24.1639C121.339 24.4389 122.084 24.6107 122.942 24.8093C121.274 29.8956 117.338 33.9662 117.577 39.6024C119.861 39.232 121.951 38.896 124.041 38.5562C124.071 38.3996 124.105 38.243 124.136 38.0865C122.243 37.6015 122.133 36.4712 122.84 35.0469C124.155 32.3891 125.352 29.6665 126.837 27.1119C127.491 26.0045 128.733 25.2446 129.702 24.3243Z" fill="#FFFFFF" fill-opacity="1.000000" fill-rule="nonzero"/>
			<path id="Vector" d="M74.4025 35.0316C74.7179 36.3147 74.9003 37.6932 75.4323 38.9189C75.6755 39.4764 76.6407 40.1065 77.2221 40.0569C79.0308 39.9003 81.6071 36.5094 81.6337 34.3672C80.8472 34.9591 80.1442 35.486 78.9586 36.3758C78.9586 33.3133 78.9586 30.7739 78.9586 28.2307C78.7192 28.1162 78.4836 28.0054 78.2442 27.8909C75.9187 30.4913 73.5894 33.0918 71.2638 35.6922C71.1232 35.5586 70.9826 35.4249 70.8458 35.2913C72.1492 30.6288 74.4633 26.688 78.8408 23.9883C79.9048 26.4856 80.7484 28.9753 83.6819 30.0255C83.5261 27.2875 83.3855 24.8054 83.2411 22.2355C81.6641 22.2355 80.1062 21.9835 78.6584 22.2775C71.6172 23.7172 65.1878 30.0598 65.8566 38.2507C66.0199 40.2554 66.5899 40.7137 68.2543 39.591C70.3746 38.1628 72.381 36.5438 74.4025 35.0316Z" fill="#FFFFFF" fill-opacity="1.000000" fill-rule="nonzero"/>
			<path id="Vector" d="M39.0743 35.1384C39.3858 36.41 39.5796 37.7465 40.0736 38.9532C40.294 39.4916 41.1186 40.1102 41.6772 40.1179C43.6075 40.1446 46.3473 36.7537 46.1839 34.5924C45.4581 35.1232 44.8007 35.6081 43.7139 36.4062C43.5695 33.4277 43.448 30.896 43.3188 28.2612C41.9394 29.6206 40.693 30.8654 39.4314 32.095C38.2193 33.2788 36.9957 34.4473 35.7759 35.6196C36.8589 30.6898 39.1693 26.7261 43.5125 24.0722C44.5955 26.6039 45.3973 29.1815 48.3688 30.117C48.2054 27.4364 48.0496 24.9237 47.8938 22.3997C39.8532 20.6049 29.5631 28.792 30.4979 38.2315C30.7031 40.3012 31.33 40.8243 33.0362 39.6596C35.1072 38.243 37.0679 36.6506 39.0743 35.1384Z" fill="#FFFFFF" fill-opacity="1.000000" fill-rule="nonzero"/>
			<path id="Vector" d="M140.277 32.4617C146.285 31.9195 152.475 26.8331 151.969 23.0527C148.185 22.7854 144.408 22.6327 141.022 24.8437C137.188 27.3486 134.756 30.6632 135.045 35.5204C135.17 37.6588 136.413 39.3504 138.202 39.7399C140.403 40.2173 148.432 36.5171 149.834 34.0884C148.96 34.2565 148.344 34.2908 147.79 34.497C146.144 35.1118 144.544 35.8564 142.884 36.4254C141.28 36.9753 140.486 36.4407 140.292 34.7872C140.209 34.0503 140.277 33.2942 140.277 32.4617Z" fill="#FFFFFF" fill-opacity="1.000000" fill-rule="nonzero"/>
			<path id="Vector" d="M118.295 23.045C118.112 22.854 117.934 22.6631 117.751 22.4722C115.289 22.7738 112.827 23.0755 110.364 23.3772C110.323 23.6292 110.285 23.8774 110.243 24.1294C110.988 24.3204 111.732 24.5113 112.701 24.7557C112.462 25.3246 112.257 25.9013 111.983 26.4435C110.634 29.0898 109.24 31.7131 107.917 34.3747C107.499 35.211 107.112 36.1122 106.96 37.0248C106.637 38.9226 107.366 39.6367 109.262 39.3694C110.687 39.167 112.097 38.8463 113.507 38.5599C113.868 38.4873 114.214 38.346 114.571 38.2353C111.846 37.063 111.717 36.8148 112.804 34.6038C113.53 33.1298 114.464 31.759 115.16 30.2697C116.269 27.8907 117.257 25.4545 118.295 23.045Z" fill="#FFFFFF" fill-opacity="1.000000" fill-rule="nonzero"/>
			<path id="Vector" d="M116.577 14.1897C115.783 14.9305 114.989 15.7248 114.134 16.4541C112.876 17.5233 113.123 18.5085 114.255 19.4212C116.121 20.9219 118.279 20.7347 120.51 20.5973C119.188 18.4436 117.953 16.4312 116.577 14.1897Z" fill="#FFFFFF" fill-opacity="1.000000" fill-rule="nonzero"/>
			<path id="Vector" d="M34.1766 13.5138C29.2633 10.7072 24.2968 7.68285 19.1366 5.03276C17.3924 4.13539 15.1429 3.78408 13.1631 3.891C9.29102 4.10102 7.52026 7.84705 9.46961 11.1998C10.3892 12.7845 11.4076 14.3081 12.3309 15.8928C14.1055 18.9362 12.6007 22.9228 9.81161 24.4273C6.71468 26.0922 2.56898 25.0345 0.82103 22.0675C-0.166946 20.3873 -0.318939 18.5735 0.646233 16.8284C1.51261 15.2551 3.27576 14.5105 5.76851 14.7205C5.36572 15.4575 5.09972 16.0723 4.72353 16.6069C3.73936 18.0159 2.88438 19.5472 3.98255 21.1319C4.49174 21.8651 5.67731 22.4608 6.56648 22.476C7.20867 22.4875 8.32964 21.5023 8.42084 20.8455C8.61844 19.4174 8.43224 17.8861 8.15105 16.4465C7.74065 14.3539 6.74888 12.3263 6.64249 10.2375C6.39549 5.18168 9.38982 1.63803 14.2879 0.389359C17.5254 -0.435455 20.5919 0.106783 23.4989 1.43183C28.7085 3.81081 33.8498 6.34635 38.9759 8.9048C40.1576 9.49668 41.0012 9.77162 42.354 9.04227C45.6447 7.26663 49.2698 7.16352 52.8303 8.10672C56.0413 8.95826 56.8164 11.9864 54.5213 14.4265C51.9373 17.172 48.5288 17.9587 44.9987 17.6341C42.43 17.3973 39.9259 16.458 37.0113 15.7362C31.3191 22.6173 26.2804 30.4111 24.4868 39.9041C23.9739 42.6267 23.8067 45.4372 23.7079 48.2171C23.6205 50.6877 24.4754 52.872 26.8428 54.0557C29.3051 55.2891 31.6079 54.4834 33.504 52.8834C34.9746 51.6424 36.0993 49.9737 37.3191 48.4501C37.9993 47.5985 38.5731 46.6782 40.1615 47.251C39.3521 49.8018 39.1013 52.7269 37.5889 54.6553C36.4565 56.0987 33.7472 56.6867 31.6611 56.9006C21.9219 57.901 18.4298 51.0887 17.9928 43.2873C17.5672 35.7342 20.2423 29.1968 24.9314 23.4994C27.7814 20.0436 31.0113 16.9086 34.1766 13.5138ZM43.3078 10.9974C45.9981 12.7501 48.6922 13.6589 51.6334 13.3267C52.4731 13.2313 53.2217 12.3186 54.0083 11.784C53.3737 11.1769 52.8455 10.2986 52.0932 10.0122C49.1786 8.90862 46.3287 9.31339 43.3078 10.9974Z" fill="#000000" fill-opacity="1.000000" fill-rule="nonzero"/>
			<path id="Vector" d="M60.727 9.93196C59.8036 9.56537 59.2108 9.32862 58.1127 8.8933C60.708 7.68281 62.9347 7.42696 65.1311 7.77446C66.3015 7.95775 66.4687 9.19497 65.9747 10.2565C64.9259 12.4904 63.8125 14.6899 62.741 16.9085C61.8746 18.7032 61.031 20.5094 60.1912 22.2813C63.3983 20.3338 66.5523 18.4245 69.7556 16.4808C71.0475 22.4378 67.335 26.5504 58.3179 29.1203C61.3388 31.3771 61.8632 34.6382 62.6308 37.9184C64.3255 45.1546 68.9424 46.3192 74.8931 45.3913C76.2002 45.1851 77.591 43.9937 78.4726 42.8825C79.9051 41.0763 80.8893 40.5455 83.9558 41.378C82.9944 42.5617 82.3599 43.8868 81.3111 44.5436C75.995 47.8734 70.2648 48.6944 64.3445 46.4414C60.1646 44.8529 58.8194 41.1871 58.2647 37.0897C57.9721 34.9284 57.5693 32.79 55.9657 30.579C55.0423 33.5308 52.4014 35.5432 54.0506 38.8424C52.2114 39.0372 50.4293 39.2281 48.5369 39.4305C48.2405 37.3112 48.3621 35.4286 49.3311 33.5079C52.9144 26.39 56.3685 19.2073 59.8606 12.0436C60.176 11.383 60.4154 10.688 60.727 9.93196ZM57.7707 26.7834C62.0988 25.8173 63.8809 24.2707 64.3787 21.2464C62.2584 23.0221 60.2292 24.7213 57.7707 26.7834Z" fill="#000000" fill-opacity="1.000000" fill-rule="nonzero"/>
			<path id="Vector" d="M90.7762 39.3694C90.647 33.8973 94.5153 30.0978 95.7617 25.3513C92.4444 28.6506 90.1264 32.6067 88.7964 37.0324C88.3746 38.4338 88.1239 39.1403 86.6305 39.1326C85.8439 39.1288 85.0573 39.3885 84.2404 39.5336C83.7958 36.9446 84.4646 34.7374 85.7033 32.5723C87.1207 30.094 88.3253 27.4936 89.6818 24.8358C88.2189 24.4731 87.2651 24.2363 86.3075 23.9996C86.2923 23.8163 86.2733 23.633 86.2581 23.4497C88.7737 22.4072 91.5666 22.7929 94.3025 22.1514C94.3519 22.8654 94.3899 23.4039 94.4317 23.9652C95.5185 23.3695 96.4951 22.5829 97.6008 22.2812C100.006 21.6244 100.603 22.201 100.599 24.5838C101.712 23.9308 102.833 23.0678 104.102 22.602C104.95 22.2888 106.371 22.1666 106.854 22.6478C107.355 23.148 107.344 24.5953 107.032 25.4277C105.995 28.2038 104.714 30.8921 103.536 33.6148C103.092 34.6458 102.67 35.6844 102.218 36.7689C103.023 37.1088 103.662 37.3837 104.304 37.6548C104.308 37.8534 104.308 38.052 104.311 38.2543C102.233 38.6553 100.154 39.0562 97.901 39.4954C97.1144 34.1035 100.599 30.2773 102.222 25.821C99.079 28.8606 96.5558 32.3699 95.6819 36.6887C95.3437 38.3613 94.5761 38.7126 93.3411 38.9875C92.6154 39.1364 91.8706 39.2052 90.7762 39.3694Z" fill="#000000" fill-opacity="1.000000" fill-rule="nonzero"/>
			<path id="Vector" d="M129.703 24.3243C128.734 25.2446 127.491 26.0045 126.845 27.1119C125.36 29.6665 124.159 32.3891 122.848 35.0469C122.145 36.4712 122.255 37.6053 124.144 38.0865C124.113 38.243 124.079 38.3996 124.049 38.5562C121.959 38.896 119.865 39.232 117.585 39.6024C117.342 33.9662 121.282 29.8956 122.95 24.8093C122.092 24.6107 121.347 24.4389 120.161 24.1639C121.989 22.6479 123.881 22.877 125.614 22.5334C126.963 22.2661 127.716 22.5181 127.552 23.679C129.334 23.194 131.147 22.6059 133.001 22.2203C134.601 21.888 135.331 22.9802 135.11 24.3396C134.852 25.9281 134.316 27.5128 133.636 28.9753C132.674 31.0374 131.443 32.9657 130.391 34.9896C130.026 35.6922 129.859 36.4941 129.596 37.254C130.311 37.6015 130.839 37.8574 131.895 38.3729C130.888 38.6593 130.402 38.8655 129.9 38.9227C129.148 39.0067 128.384 38.9762 127.628 39.0144C124.436 39.1748 124.185 38.9915 125.394 35.8793C126.625 32.7061 128.221 29.6779 129.623 26.5734C129.893 25.9777 130.007 25.3133 130.193 24.6832C130.026 24.5649 129.866 24.4465 129.703 24.3243Z" fill="#000000" fill-opacity="1.000000" fill-rule="nonzero"/>
			<path id="Vector" d="M74.4024 35.0317C72.3808 36.5438 70.3783 38.1629 68.2503 39.5949C66.5822 40.7175 66.016 40.2593 65.8526 38.2546C65.1838 30.0599 71.6132 23.7172 78.6545 22.2814C80.1022 21.9836 81.664 22.2394 83.2372 22.2394C83.3815 24.8055 83.5221 27.2914 83.6779 30.0293C80.7444 28.9754 79.9008 26.4857 78.8369 23.9922C74.4594 26.6957 72.1414 30.6327 70.8419 35.2952C70.9825 35.4288 71.123 35.5625 71.2598 35.6961C73.5854 33.0957 75.9147 30.4952 78.2403 27.8947C78.4797 28.0093 78.7153 28.12 78.9547 28.2346C78.9547 30.7778 78.9547 33.3171 78.9547 36.3796C80.1402 35.4899 80.8394 34.9629 81.6298 34.3711C81.6032 36.5133 79.0269 39.9004 77.2181 40.0607C76.6367 40.1104 75.6715 39.4803 75.4283 38.9228C74.8964 37.6932 74.7178 36.3147 74.4024 35.0317Z" fill="#000000" fill-opacity="1.000000" fill-rule="nonzero"/>
			<path id="Vector" d="M39.0751 35.1385C37.0688 36.6507 35.1118 38.243 33.0333 39.6597C31.3271 40.8244 30.7001 40.3013 30.4949 38.2316C29.5601 28.7921 39.8541 20.6088 47.8909 22.3997C48.0467 24.9238 48.2025 27.4365 48.3659 30.1171C45.3943 29.1815 44.5888 26.604 43.5096 24.0723C39.1663 26.7262 36.856 30.6899 35.773 35.6197C36.9928 34.4436 38.2163 33.2751 39.4285 32.0951C40.6901 30.8655 41.9364 29.6207 43.3158 28.2613C43.4412 30.8923 43.5666 33.4278 43.711 36.4063C44.7978 35.6082 45.4589 35.1233 46.1809 34.5925C46.3443 36.7576 43.6046 40.1485 41.6742 40.118C41.1157 40.1103 40.2911 39.4917 40.0707 38.9533C39.5767 37.7466 39.3867 36.4101 39.0751 35.1385Z" fill="#000000" fill-opacity="1.000000" fill-rule="nonzero"/>
			<path id="Vector" d="M140.277 32.4618C140.277 33.2943 140.205 34.0503 140.292 34.7911C140.482 36.4446 141.28 36.9792 142.884 36.4293C144.544 35.8604 146.14 35.1157 147.79 34.5009C148.344 34.2947 148.96 34.2604 149.834 34.0923C148.432 36.5171 140.403 40.2174 138.202 39.7439C136.413 39.3582 135.174 37.6627 135.045 35.5243C134.756 30.6671 137.188 27.3525 141.022 24.8476C144.404 22.6366 148.181 22.7893 151.969 23.0566C152.475 26.8332 146.285 31.9196 140.277 32.4618ZM141.064 29.7621C143.629 29.7735 146.011 27.6619 146.642 24.7788C143.967 25.6189 142.135 27.1922 141.064 29.7621Z" fill="#000000" fill-opacity="1.000000" fill-rule="nonzero"/>
			<path id="Vector" d="M118.295 23.045C117.254 25.4545 116.266 27.8907 115.157 30.2697C114.461 31.7551 113.527 33.126 112.801 34.6038C111.714 36.8148 111.843 37.063 114.568 38.2353C114.214 38.346 113.865 38.4873 113.504 38.5599C112.09 38.8463 110.684 39.167 109.259 39.3694C107.363 39.6367 106.637 38.9188 106.956 37.0248C107.112 36.1121 107.5 35.2148 107.914 34.3747C109.236 31.717 110.631 29.0898 111.98 26.4435C112.254 25.9051 112.459 25.3285 112.698 24.7557C111.733 24.5075 110.984 24.3165 110.24 24.1294C110.281 23.8774 110.319 23.6292 110.361 23.3772C112.824 23.0755 115.286 22.7738 117.748 22.4722C117.934 22.6631 118.117 22.854 118.295 23.045Z" fill="#000000" fill-opacity="1.000000" fill-rule="nonzero"/>
			<path id="Vector" d="M116.577 14.1897C117.953 16.4312 119.188 18.4398 120.51 20.5935C118.279 20.7309 116.117 20.918 114.255 19.4173C113.123 18.5047 112.876 17.5195 114.134 16.4503C114.985 15.7286 115.783 14.9305 116.577 14.1897Z" fill="#000000" fill-opacity="1.000000" fill-rule="nonzero"/>
			<path id="Vector" d="M43.3076 10.9975C46.3285 9.3135 49.1785 8.90873 52.093 10.0123C52.8454 10.2987 53.3774 11.177 54.0081 11.7841C53.2178 12.3225 52.4692 13.2352 51.6332 13.3268C48.6883 13.6552 45.998 12.7464 43.3076 10.9975Z" fill="#FFFFFF" fill-opacity="1.000000" fill-rule="nonzero"/>
			<path id="Vector" d="M57.7705 26.7835C60.229 24.7215 62.2582 23.0222 64.3785 21.2466C63.8808 24.2709 62.0986 25.8174 57.7705 26.7835Z" fill="#FFFFFF" fill-opacity="1.000000" fill-rule="nonzero"/>
			<path id="Vector" d="M141.064 29.7621C142.14 27.1922 143.968 25.6151 146.643 24.7788C146.008 27.6657 143.629 29.7773 141.064 29.7621Z" fill="#FFFFFF" fill-opacity="1.000000" fill-rule="nonzero"/>
		</g>
	</g>
</svg>
