<svg width="30" height="23" viewBox="0 0 30 23" fill="none" xmlns="http://www.w3.org/2000/svg">
<path d="M0.09375 2.91563C0.282784 2.08733 0.747479 1.34777 1.41173 0.818078C2.07598 0.288382 2.90041 -5.71771e-05 3.75 8.50151e-09H26.25C27.0996 -5.71771e-05 27.924 0.288382 28.5883 0.818078C29.2525 1.34777 29.7172 2.08733 29.9062 2.91563L15 12.0262L0.09375 2.91563ZM0 5.05688V18.3769L10.8806 11.7056L0 5.05688ZM12.6769 12.8062L0.358125 20.3569C0.662487 20.9987 1.14286 21.5408 1.74334 21.9202C2.34382 22.2996 3.0397 22.5007 3.75 22.5H26.25C26.9602 22.5002 27.6558 22.2986 28.2559 21.9189C28.8561 21.5392 29.336 20.9968 29.64 20.355L17.3212 12.8044L15 14.2238L12.6769 12.8044V12.8062ZM19.1194 11.7075L30 18.3769V5.05688L19.1194 11.7056V11.7075Z" fill="black"/>
</svg>
