<svg width="32.000000" height="33.176025" viewBox="0 0 32 33.176" fill="none" xmlns="http://www.w3.org/2000/svg" xmlns:xlink="http://www.w3.org/1999/xlink">
	<desc>
			Created with Pixso.
	</desc>
	<defs/>
	<rect id="Instagram" width="32.000000" height="33.176025" fill="#0E162D" fill-opacity="0"/>
	<path id="Vector" d="M12.6675 16.5881C12.6675 14.6797 14.1595 13.1321 16.0004 13.1321C17.8412 13.1321 19.334 14.6797 19.334 16.5881C19.334 18.4968 17.8412 20.0444 16.0004 20.0444C14.1595 20.0444 12.6675 18.4968 12.6675 16.5881ZM10.8655 16.5881C10.8655 19.5283 13.1644 21.9119 16.0004 21.9119C18.8364 21.9119 21.1353 19.5283 21.1353 16.5881C21.1353 13.6479 18.8364 11.2646 16.0004 11.2646C13.1644 11.2646 10.8655 13.6479 10.8655 16.5881ZM20.1385 11.0535C20.1384 11.2996 20.2087 11.54 20.3405 11.7449C20.4723 11.9495 20.6596 12.1089 20.8788 12.2031C21.0981 12.2976 21.3394 12.3223 21.5721 12.2744C21.8049 12.2263 22.0188 12.1079 22.1867 11.9341C22.3546 11.7603 22.469 11.5386 22.5154 11.2971C22.5618 11.0559 22.5381 10.8057 22.4474 10.5784C22.3566 10.3511 22.2029 10.1567 22.0056 10.0198C21.8083 9.88306 21.5764 9.81006 21.339 9.80981L21.3385 9.80981C21.0204 9.81006 20.7153 9.94116 20.4904 10.1743C20.2653 10.4075 20.1388 10.7236 20.1385 11.0535ZM11.9604 25.0271C10.9854 24.9812 10.4555 24.8127 10.1033 24.6704C9.63647 24.4819 9.30334 24.2576 8.95306 23.895C8.60284 23.5325 8.38605 23.1873 8.20508 22.7034C8.06781 22.3384 7.9054 21.7888 7.86108 20.7781C7.81262 19.6853 7.80292 19.3569 7.80292 16.5884C7.80292 13.8196 7.81342 13.4922 7.86108 12.3987C7.90546 11.3877 8.06909 10.8394 8.20508 10.4734C8.38684 9.98926 8.60333 9.6438 8.95306 9.28076C9.30286 8.91772 9.63562 8.69287 10.1033 8.50537C10.4553 8.36304 10.9854 8.19458 11.9604 8.14868C13.0145 8.09839 13.3311 8.08838 16.0004 8.08838C18.6696 8.08838 18.9866 8.09912 20.0416 8.14868C21.0165 8.19458 21.5456 8.36426 21.8986 8.50537C22.3655 8.69287 22.6986 8.91821 23.0488 9.28076C23.3991 9.64331 23.6151 9.98926 23.7969 10.4734C23.9341 10.8381 24.0965 11.3877 24.1409 12.3987C24.1893 13.4922 24.199 13.8196 24.199 16.5884C24.199 19.3569 24.1893 19.6843 24.1409 20.7781C24.0964 21.7888 23.9332 22.3381 23.7969 22.7034C23.6151 23.1873 23.3986 23.5327 23.0488 23.895C22.6991 24.2573 22.3655 24.4819 21.8986 24.6704C21.5466 24.8127 21.0165 24.9812 20.0416 25.0271C18.9875 25.0774 18.6708 25.0874 16.0004 25.0874C13.3299 25.0874 13.0141 25.0774 11.9604 25.0271ZM11.8776 6.28345C10.813 6.33374 10.0856 6.50879 9.45026 6.76514C8.79236 7.02979 8.23541 7.38477 7.67883 7.96094C7.12231 8.53687 6.7807 9.11523 6.52539 9.79736C6.2782 10.4565 6.10944 11.2102 6.06091 12.314C6.01166 13.4194 6.00037 13.7727 6.00037 16.5881C6.00037 19.4038 6.01166 19.7571 6.06091 20.8625C6.10944 21.9663 6.2782 22.72 6.52539 23.3789C6.7807 24.0608 7.12238 24.6396 7.67883 25.2156C8.23535 25.7915 8.79236 26.146 9.45026 26.4114C10.0868 26.6677 10.813 26.8428 11.8776 26.8928C12.9443 26.9431 13.2847 26.9558 16.0004 26.9558C18.7161 26.9558 19.0569 26.9441 20.1232 26.8928C21.1878 26.8428 21.9148 26.6677 22.5504 26.4114C23.2079 26.146 23.7653 25.7917 24.3219 25.2156C24.8784 24.6394 25.2193 24.0608 25.4753 23.3789C25.7225 22.72 25.8922 21.9663 25.9398 20.8625C25.9883 19.7563 25.9996 19.4038 25.9996 16.5881C25.9996 13.7727 25.9883 13.4194 25.9398 12.314C25.8913 11.2102 25.7225 10.4561 25.4753 9.79736C25.2193 9.11572 24.8776 8.53784 24.3219 7.96094C23.7662 7.38379 23.2079 7.02979 22.5513 6.76514C21.9148 6.50879 21.1877 6.33301 20.124 6.28345C19.0577 6.23315 18.7169 6.2207 16.0012 6.2207C13.2855 6.2207 12.9443 6.23242 11.8776 6.28345Z" fill="#121212" fill-opacity="0.600000" fill-rule="nonzero"/>
</svg>
