<svg width="19.500000" height="9.500000" viewBox="0 0 19.5 9.5" fill="none" xmlns="http://www.w3.org/2000/svg" xmlns:xlink="http://www.w3.org/1999/xlink">
	<desc>
			Created with Pixso.
	</desc>
	<defs/>
	<path id="shape (Граница)" d="M3.72144 9.38892C4.05609 9.46301 4.39899 9.5 4.75 9.5L6.75 9.5C7.16998 9.5 7.5 9.17004 7.5 8.75C7.5 8.32996 7.16998 8 6.75 8L4.75 8C4.50031 8 4.2569 7.97278 4.01971 7.91821C3.83783 7.87646 3.65967 7.81873 3.48517 7.74487C3.30554 7.66895 3.13544 7.57849 2.97473 7.47351C2.7876 7.35132 2.61334 7.20959 2.4519 7.0481C2.29047 6.8866 2.14862 6.7124 2.02643 6.52527C1.92151 6.36462 1.83105 6.19446 1.75507 6.01477C1.68127 5.84033 1.62347 5.66211 1.58173 5.48035C1.52722 5.24316 1.5 4.99976 1.5 4.75C1.5 4.50024 1.52722 4.25684 1.58173 4.01965C1.62347 3.83789 1.68127 3.65967 1.75507 3.48523C1.83105 3.30554 1.92151 3.13538 2.02649 2.97473C2.14862 2.7876 2.29047 2.6134 2.4519 2.4519C2.61334 2.29041 2.78766 2.14868 2.97473 2.02649C3.13544 1.92151 3.30554 1.83105 3.48517 1.75513C3.65967 1.68127 3.83783 1.62354 4.01971 1.58179C4.25684 1.52722 4.50031 1.5 4.75 1.5L6.75 1.5C7.16998 1.5 7.5 1.17004 7.5 0.75C7.5 0.329956 7.16998 0 6.75 0L4.75 0C4.39893 0 4.05609 0.0369873 3.72137 0.111084C3.4422 0.172852 3.16864 0.260254 2.90088 0.373535C2.63147 0.487549 2.37665 0.623657 2.13654 0.782104C1.87006 0.957764 1.62164 1.16089 1.39124 1.39124C1.16083 1.6217 0.957764 1.87012 0.782043 2.13647C0.623718 2.37671 0.487549 2.63147 0.373596 2.90088C0.260315 3.1687 0.172791 3.44214 0.111023 3.72144C0.0369873 4.05603 0 4.39893 0 4.75C0 5.10107 0.0369873 5.44385 0.111023 5.77856C0.172791 6.05786 0.260315 6.3313 0.373596 6.59912C0.487549 6.86853 0.623718 7.12329 0.782043 7.36353C0.957764 7.62988 1.16083 7.87842 1.39124 8.10876C1.62164 8.33911 1.87006 8.54224 2.13654 8.7179C2.37665 8.87634 2.63141 9.01245 2.90088 9.12646C3.1687 9.23975 3.4422 9.32727 3.72144 9.38892ZM12.75 0L14.75 0C15.1011 0 15.4439 0.0369873 15.7786 0.111084C16.0578 0.172729 16.3313 0.260254 16.5991 0.373535C16.8685 0.487549 17.1233 0.623657 17.3634 0.781982C17.6299 0.957764 17.8784 1.16089 18.1088 1.39124C18.3392 1.62158 18.5422 1.87 18.7179 2.13647C18.8763 2.37659 19.0125 2.63147 19.1264 2.90088C19.2397 3.1687 19.3272 3.44214 19.3889 3.72131C19.463 4.05603 19.5 4.39893 19.5 4.75C19.5 5.10107 19.463 5.44385 19.389 5.77856C19.3272 6.05774 19.2397 6.3313 19.1264 6.59912C19.0125 6.86853 18.8763 7.12329 18.718 7.36353C18.5422 7.62988 18.3392 7.87842 18.1088 8.10876C17.8784 8.33911 17.6299 8.54224 17.3635 8.7179C17.1234 8.87634 16.8686 9.01245 16.5991 9.12646C16.3313 9.23975 16.0578 9.32727 15.7786 9.38892C15.4439 9.46301 15.101 9.5 14.75 9.5L12.75 9.5C12.33 9.5 12 9.17004 12 8.75C12 8.32996 12.33 8 12.75 8L14.75 8C14.9997 8 15.2432 7.97278 15.4803 7.91821C15.6622 7.87646 15.8403 7.81873 16.0148 7.74487C16.1944 7.66895 16.3646 7.57849 16.5252 7.47363C16.7123 7.35144 16.8867 7.20959 17.0481 7.0481C17.2095 6.8866 17.3514 6.7124 17.4736 6.52527C17.5785 6.36462 17.6689 6.19446 17.7449 6.01477C17.8187 5.84033 17.8765 5.66211 17.9183 5.48022C17.9728 5.24304 18 4.99963 18 4.75C18 4.50024 17.9728 4.25684 17.9183 4.01965C17.8765 3.83777 17.8187 3.65967 17.7449 3.48523C17.6689 3.30554 17.5785 3.13538 17.4735 2.97473C17.3514 2.7876 17.2095 2.6134 17.0481 2.4519C16.8867 2.29041 16.7123 2.14856 16.5253 2.02649C16.3646 1.92151 16.1944 1.83105 16.0148 1.75513C15.8403 1.68127 15.6622 1.62354 15.4803 1.58179C15.2432 1.52722 14.9997 1.5 14.75 1.5L12.75 1.5C12.33 1.5 12 1.17004 12 0.75C12 0.329956 12.33 0 12.75 0ZM5.75 4L13.75 4C14.17 4 14.5 4.32996 14.5 4.75C14.5 5.17004 14.17 5.5 13.75 5.5L5.75 5.5C5.33002 5.5 5 5.17004 5 4.75C5 4.32996 5.33002 4 5.75 4Z" fill="#656D72" fill-opacity="1.000000" fill-rule="evenodd"/>
</svg>
