<svg width="20.451904" height="22.005859" viewBox="0 0 20.4519 22.0059" fill="none" xmlns="http://www.w3.org/2000/svg" xmlns:xlink="http://www.w3.org/1999/xlink">
	<desc>
			Created with Pixso.
	</desc>
	<defs/>
	<path id="Vector" d="M8.52148 19.5059C8.52148 19.3591 8.48914 19.2144 8.427 19.0815C8.36475 18.9487 8.27405 18.8313 8.16125 18.7375C8.04858 18.6436 7.91663 18.5757 7.77478 18.5386C7.63293 18.5015 7.48462 18.4958 7.34033 18.5225C6.03125 18.7627 4.37842 18.7988 3.93896 17.5645C3.55579 16.6084 2.92102 15.7739 2.10205 15.1494C2.04358 15.1177 1.98792 15.0811 1.93555 15.04C1.86389 14.8511 1.73657 14.6882 1.57043 14.5728C1.4043 14.4575 1.20715 14.3955 1.00488 14.3945L1 14.3945C0.735596 14.3945 0.481934 14.499 0.294556 14.6855C0.107056 14.8721 0.0012207 15.1252 0 15.3896C-0.00390625 16.2051 0.811035 16.7275 1.1416 16.9043C1.53149 17.2961 1.84473 17.7571 2.06543 18.2637C2.42969 19.2871 3.48828 20.8398 6.53125 20.6396C6.53223 20.6748 6.5332 20.708 6.53369 20.7383L6.53809 21.0059C6.53809 21.2712 6.64343 21.5254 6.83093 21.7131C7.01855 21.9006 7.27283 22.0059 7.53809 22.0059C7.80334 22.0059 8.05762 21.9006 8.24524 21.7131C8.43274 21.5254 8.53809 21.2712 8.53809 21.0059L8.5332 20.6875C8.52832 20.498 8.52148 20.2236 8.52148 19.5059ZM19.1885 4.37988C19.2202 4.25488 19.2515 4.11621 19.2788 3.95996C19.4406 2.84546 19.2996 1.70825 18.8706 0.666992C18.8165 0.53125 18.7334 0.408936 18.627 0.308838C18.5206 0.208496 18.3937 0.132812 18.2549 0.0869141C17.8989 -0.0332031 16.5845 -0.269531 14.0708 1.33691C11.9813 0.845215 9.80627 0.845215 7.7168 1.33691C5.21338 -0.246094 3.90576 -0.03125 3.55322 0.0820312C3.41113 0.126221 3.28064 0.201416 3.17139 0.30249C3.06213 0.403564 2.97693 0.527832 2.92188 0.666016C2.48413 1.72729 2.34473 2.8877 2.51855 4.02246C2.54297 4.15039 2.56934 4.26855 2.59668 4.37695C1.76831 5.48047 1.32703 6.82642 1.34131 8.20605C1.33862 8.51392 1.35278 8.82178 1.38379 9.12793C1.71777 13.7305 4.71777 15.1123 6.80811 15.5869C6.76465 15.7119 6.7251 15.8457 6.68994 15.9873C6.62732 16.2446 6.66919 16.5164 6.80652 16.7427C6.94385 16.9692 7.16541 17.1318 7.42249 17.1953C7.67969 17.2585 7.95142 17.2173 8.17822 17.0806C8.40503 16.9438 8.56836 16.7229 8.63232 16.4658C8.69592 16.1326 8.85901 15.8267 9.1001 15.5879C9.24585 15.4602 9.35144 15.293 9.40381 15.1067C9.4563 14.9202 9.45349 14.7224 9.39563 14.5376C9.33777 14.3525 9.22754 14.1885 9.07812 14.0652C8.92871 13.9419 8.7467 13.8645 8.5542 13.8428C5.1001 13.4482 3.60059 12.041 3.375 8.94434C3.34998 8.69897 3.33875 8.45264 3.34131 8.20605C3.32532 7.22266 3.65015 6.26416 4.26074 5.49316C4.32214 5.41284 4.38745 5.33545 4.45654 5.26172C4.57898 5.12476 4.66125 4.95654 4.69446 4.77588C4.72766 4.59521 4.71033 4.40894 4.64453 4.2373C4.57715 4.05688 4.52515 3.87085 4.48926 3.68164C4.40784 3.14331 4.43457 2.59424 4.56787 2.06641C5.43701 2.31201 6.255 2.71143 6.98291 3.24609C7.10327 3.32617 7.2395 3.37964 7.3822 3.40259C7.52502 3.42554 7.67114 3.41748 7.81055 3.37891C9.83167 2.83032 11.9624 2.83081 13.9834 3.37988C14.1235 3.41846 14.2704 3.42603 14.4138 3.4021C14.5571 3.37842 14.6937 3.32373 14.814 3.24219C15.5385 2.70532 16.353 2.30225 17.2192 2.05176C17.3519 2.56689 17.3817 3.10327 17.3066 3.62988C17.2704 3.8374 17.2139 4.04102 17.1377 4.2373C17.0719 4.40894 17.0546 4.59521 17.0878 4.77588C17.121 4.95679 17.2032 5.12476 17.3257 5.26172C17.4028 5.34863 17.48 5.44238 17.5493 5.53027C18.1555 6.28833 18.475 7.23584 18.4512 8.20605C18.453 8.46558 18.4404 8.7251 18.4136 8.9834C18.1934 12.0391 16.688 13.4473 13.2178 13.8428C13.0253 13.8647 12.8433 13.9421 12.6938 14.0657C12.5444 14.189 12.4342 14.3533 12.3765 14.5381C12.3186 14.7231 12.3158 14.9209 12.3684 15.1074C12.4209 15.2939 12.5265 15.4612 12.6724 15.5889C12.921 15.834 13.0845 16.1523 13.1387 16.4971C13.2063 16.7649 13.2373 17.0403 13.231 17.3164L13.231 19.6504C13.2212 20.2979 13.2212 20.7832 13.2212 21.0059C13.2212 21.271 13.3265 21.5254 13.514 21.7129C13.7017 21.9004 13.9559 22.0059 14.2212 22.0059C14.4865 22.0059 14.7407 21.9004 14.9283 21.7129C15.1158 21.5254 15.2212 21.271 15.2212 21.0059C15.2212 20.7891 15.2212 20.3135 15.231 19.666L15.231 17.3164C15.239 16.8743 15.1869 16.4331 15.0762 16.0049C15.0444 15.8643 15.0057 15.7256 14.96 15.5889C16.4812 15.3362 17.8634 14.5518 18.8606 13.3755C19.8577 12.1992 20.4052 10.7073 20.4053 9.16504C20.4382 8.84644 20.4535 8.52637 20.4512 8.20605C20.4734 6.82495 20.0284 5.47656 19.1885 4.37988L19.1885 4.37988Z" fill="#232E35" fill-opacity="1.000000" fill-rule="nonzero"/>
</svg>
