<svg width="21.411377" height="21.462891" viewBox="0 0 21.4114 21.4629" fill="none" xmlns="http://www.w3.org/2000/svg" xmlns:xlink="http://www.w3.org/1999/xlink">
	<desc>
			Created with Pixso.
	</desc>
	<defs/>
	<path id="Vector" d="M15.9114 7.46289C15.0161 7.4624 14.1347 7.68384 13.3459 8.10742C13.2739 7.91772 13.146 7.75464 12.9791 7.6394C12.8121 7.52441 12.6141 7.46265 12.4114 7.46289L8.41138 7.46289C8.28003 7.46265 8.14996 7.48853 8.02856 7.53882C7.90723 7.58887 7.79694 7.6626 7.7041 7.75562C7.61121 7.84839 7.53754 7.95874 7.4873 8.08008C7.43707 8.20142 7.41125 8.33154 7.41138 8.46289L7.41138 20.4629C7.41125 20.5942 7.43707 20.7241 7.4873 20.8455C7.53754 20.9668 7.61121 21.0771 7.70404 21.1702C7.79694 21.2629 7.90723 21.3367 8.02856 21.3867C8.14996 21.437 8.28003 21.4629 8.41138 21.4629L12.4114 21.4629C12.5427 21.4629 12.6728 21.437 12.7941 21.3867C12.9155 21.3367 13.0258 21.2629 13.1187 21.1702C13.2115 21.0771 13.2852 20.9668 13.3354 20.8455C13.3856 20.7241 13.4114 20.5942 13.4114 20.4629L13.4114 14.9629C13.4114 14.6975 13.5167 14.4431 13.7042 14.2556C13.8918 14.0681 14.1461 13.9629 14.4114 13.9629C14.6766 13.9629 14.9309 14.0681 15.1185 14.2556C15.306 14.4431 15.4114 14.6975 15.4114 14.9629L15.4114 20.4629C15.4113 20.5942 15.4371 20.7241 15.4873 20.8455C15.5375 20.9668 15.6112 21.0771 15.704 21.1702C15.7969 21.2629 15.9072 21.3367 16.0286 21.3867C16.15 21.437 16.28 21.4629 16.4114 21.4629L20.4114 21.4629C20.5427 21.4629 20.6728 21.437 20.7941 21.3867C20.9155 21.3367 21.0258 21.2629 21.1187 21.1702C21.2115 21.0771 21.2852 20.9668 21.3354 20.8455C21.3856 20.7241 21.4114 20.5942 21.4114 20.4629L21.4114 12.9629C21.4095 11.5046 20.8295 10.1067 19.7985 9.07568C18.7674 8.04468 17.3695 7.4646 15.9114 7.46289ZM19.4114 19.4629L17.4114 19.4629L17.4114 14.9629C17.4114 14.1672 17.0953 13.4041 16.5327 12.8416C15.97 12.2788 15.207 11.9629 14.4114 11.9629C13.6157 11.9629 12.8527 12.2788 12.29 12.8416C11.7274 13.4041 11.4114 14.1672 11.4114 14.9629L11.4114 19.4629L9.41138 19.4629L9.41138 9.46289L11.4114 9.46289L11.4114 10.166C11.4115 10.373 11.4759 10.5752 11.5958 10.7441C11.7157 10.9131 11.8851 11.0408 12.0806 11.1094C12.2761 11.178 12.4881 11.1841 12.6873 11.1272C12.8865 11.0701 13.063 10.9526 13.1926 10.791C13.6414 10.2209 14.257 9.80542 14.9533 9.60205C15.6497 9.39893 16.3922 9.41821 17.0771 9.65747C17.762 9.89673 18.355 10.3438 18.7735 10.9363C19.192 11.5288 19.415 12.2373 19.4114 12.9629L19.4114 19.4629ZM5.41138 7.46289L1.41138 7.46289C1.28003 7.46265 1.14996 7.48853 1.02856 7.53882C0.907227 7.58887 0.796936 7.6626 0.704102 7.75562C0.611206 7.84839 0.537537 7.95874 0.487305 8.08008C0.437073 8.20142 0.411255 8.33154 0.411377 8.46289L0.411377 20.4629C0.411255 20.5942 0.437073 20.7241 0.487305 20.8455C0.537537 20.9668 0.611206 21.0771 0.704041 21.1702C0.796936 21.2629 0.907227 21.3367 1.02856 21.3867C1.14996 21.437 1.28003 21.4629 1.41138 21.4629L5.41138 21.4629C5.54266 21.4629 5.67279 21.437 5.79413 21.3867C5.91547 21.3367 6.02576 21.2629 6.11865 21.1702C6.21149 21.0771 6.28516 20.9668 6.33539 20.8455C6.38562 20.7241 6.41144 20.5942 6.41138 20.4629L6.41138 8.46289C6.41144 8.33154 6.38562 8.20142 6.33539 8.08008C6.28516 7.95874 6.21149 7.84839 6.11865 7.75562C6.02576 7.6626 5.91547 7.58887 5.79413 7.53882C5.67279 7.48853 5.54266 7.46265 5.41138 7.46289ZM4.41138 19.4629L2.41138 19.4629L2.41138 9.46289L4.41138 9.46289L4.41138 19.4629ZM3.42603 0.00585938C2.98834 -0.0205078 2.54999 0.0427246 2.13745 0.191162C1.72498 0.339844 1.34705 0.570557 1.02655 0.869873C0.706116 1.16919 0.44989 1.53027 0.273376 1.93164C0.0969238 2.33301 0.00396729 2.76611 0.00012207 3.20459C-0.00372314 3.64282 0.081665 4.07739 0.251038 4.48193C0.42041 4.88623 0.670288 5.25195 0.985474 5.55664C1.3006 5.86157 1.67444 6.09888 2.08429 6.25464C2.49408 6.4104 2.93134 6.4812 3.36932 6.46289L3.39764 6.46289C3.83649 6.48877 4.27594 6.42505 4.68933 6.27563C5.10266 6.12598 5.4812 5.8938 5.80176 5.59302C6.12231 5.29224 6.37823 4.92944 6.55377 4.52637C6.72931 4.12329 6.82086 3.68872 6.82275 3.24927C6.82471 2.80957 6.737 2.37427 6.56494 1.96973C6.39294 1.56519 6.14026 1.2002 5.82239 0.896484C5.50446 0.593018 5.12799 0.357422 4.71594 0.204346C4.30396 0.0510254 3.86499 -0.0163574 3.42596 0.00585938L3.42603 0.00585938ZM3.39771 4.46289L3.36932 4.46289C3.19641 4.48389 3.021 4.46753 2.85486 4.41528C2.68866 4.36279 2.53564 4.27563 2.40601 4.15918C2.27631 4.04297 2.17303 3.90015 2.10309 3.74072C2.03308 3.58105 1.99799 3.40845 2.00024 3.23438C2.00024 2.48828 2.55981 2.00586 3.42603 2.00586C3.60071 1.98242 3.77838 1.99683 3.94702 2.0481C4.11566 2.09912 4.27142 2.18579 4.40375 2.30225C4.53607 2.4187 4.64191 2.56226 4.71411 2.7229C4.78638 2.88379 4.8233 3.05811 4.82245 3.23438C4.82245 3.98047 4.26288 4.46289 3.39771 4.46289Z" fill="#232E35" fill-opacity="1.000000" fill-rule="nonzero"/>
</svg>
