<svg width="20.000000" height="20.000000" viewBox="0 0 20 20" fill="none" xmlns="http://www.w3.org/2000/svg" xmlns:xlink="http://www.w3.org/1999/xlink">
	<desc>
			Created with Pixso.
	</desc>
	<defs/>
	<path id="Vector" d="M10 5C9.01111 5 8.04443 5.29321 7.22217 5.84277C6.3999 6.39209 5.75903 7.17285 5.38062 8.08667C5.0022 9.00024 4.9032 10.0056 5.09607 10.9753C5.28894 11.9453 5.76526 12.8362 6.46448 13.5356C7.1637 14.2349 8.05469 14.7109 9.02454 14.9038C9.99451 15.0969 10.9998 14.9978 11.9135 14.6194C12.827 14.241 13.6079 13.6001 14.1573 12.7778C14.7068 11.9556 15 10.989 15 10C15 8.67383 14.4733 7.4021 13.5355 6.46436C12.5979 5.52686 11.326 5 10 5ZM10 13C9.40662 13 8.82666 12.824 8.33325 12.4944C7.83997 12.1648 7.45544 11.6963 7.22839 11.1479C7.00134 10.5999 6.94189 9.99658 7.05762 9.41479C7.17334 8.83276 7.45911 8.29834 7.87866 7.87866C8.29822 7.45923 8.83276 7.17334 9.41467 7.05762C9.9967 6.94189 10.5999 7.00122 11.1481 7.22827C11.6963 7.45532 12.1648 7.83984 12.4944 8.33325C12.8241 8.82666 13 9.40674 13 10C13 10.7957 12.684 11.5586 12.1213 12.1213C11.5587 12.6838 10.7957 13 10 13ZM15 4C14.8022 4 14.6089 4.05859 14.4445 4.16846C14.28 4.27832 14.1519 4.43457 14.0762 4.61743C14.0005 4.80005 13.9806 5.00122 14.0192 5.19507C14.0579 5.38916 14.1531 5.56714 14.2928 5.70703C14.4327 5.84692 14.611 5.94214 14.8049 5.98071C14.9989 6.01929 15.2 5.99951 15.3827 5.92383C15.5654 5.84814 15.7216 5.71997 15.8314 5.55566C15.9414 5.39111 16 5.19775 16 5C16 4.73486 15.8947 4.48047 15.7072 4.29297C15.5195 4.10547 15.2653 4 15 4ZM19.9399 6.23999C19.9235 5.3855 19.7611 4.54004 19.46 3.73999C19.1808 3.01196 18.7516 2.35107 18.2003 1.7998C17.649 1.24829 16.9879 0.819336 16.26 0.540039C15.4601 0.239014 14.6146 0.0766602 13.76 0.0600586C12.79 0 12.47 0 10 0C7.53003 0 7.20996 0 6.23999 0.0600586C5.38538 0.0766602 4.53992 0.239014 3.73999 0.540039C3.01208 0.819336 2.35095 1.24829 1.79968 1.7998C1.24841 2.35107 0.819214 3.01196 0.540039 3.73999C0.238892 4.54004 0.0765381 5.3855 0.0600586 6.23999C0 7.21997 0 7.54004 0 10C0 12.46 0 12.78 0.0600586 13.76C0.0765381 14.6145 0.238892 15.46 0.540039 16.26C0.819214 16.988 1.24841 17.6489 1.79968 18.2002C2.35095 18.7517 3.01208 19.1807 3.73999 19.46C4.53992 19.761 5.38538 19.9233 6.23999 19.9399C7.23999 19.9399 7.53003 20 10 20C12.47 20 12.79 20 13.76 19.9399C14.6146 19.9233 15.4601 19.761 16.26 19.46C16.9879 19.1807 17.649 18.7517 18.2003 18.2002C18.7516 17.6489 19.1808 16.988 19.46 16.26C19.7611 15.46 19.9235 14.6145 19.9399 13.76C19.9399 12.76 20 12.46 20 10C20 7.54004 20 7.21997 19.9399 6.23999ZM17.9399 13.6699C17.9225 14.3047 17.8043 14.9324 17.59 15.53C17.4128 16.0024 17.1327 16.4294 16.77 16.78C16.4214 17.1428 15.9937 17.4202 15.52 17.5901C14.921 17.813 14.2891 17.9348 13.65 17.95C12.71 17.95 12.42 18 9.98999 18C7.56006 18 7.28003 18 6.33997 18C5.70203 17.9836 5.0708 17.8655 4.46997 17.6499C3.99768 17.4729 3.57068 17.1926 3.21997 16.8301C2.85718 16.4814 2.57996 16.0537 2.41003 15.5801C2.18774 14.9841 2.06616 14.3557 2.05005 13.72C2.05005 12.72 2.05005 12.47 2.05005 10.05C2.05005 7.62988 2.05005 7.34009 2.05005 6.37988C2.06726 5.74121 2.18884 5.10962 2.41003 4.51001C2.58252 4.04053 2.8595 3.6167 3.21997 3.27002C3.5686 2.90723 3.99646 2.62988 4.46997 2.45996C5.06897 2.23682 5.70105 2.11523 6.33997 2.1001C7.28003 2 7.56995 2 10 2C12.4301 2 12.72 2 13.66 2C14.3021 2.01636 14.9373 2.13794 15.54 2.36011C16.0094 2.53247 16.4333 2.80957 16.78 3.16992C17.1428 3.51855 17.42 3.94629 17.59 4.41992C17.8348 5.02856 17.9735 5.67456 18 6.33008C18 7.33008 18.05 7.58008 18.05 10C18.05 12.4199 18 12.71 18 13.6699L17.9399 13.6699Z" fill="#232E35" fill-opacity="1.000000" fill-rule="nonzero"/>
</svg>
