<svg width="109.000000" height="60.000000" viewBox="0 0 109 60" fill="none" xmlns="http://www.w3.org/2000/svg" xmlns:xlink="http://www.w3.org/1999/xlink">
	<desc>
			Created with Pixso.
	</desc>
	<defs>
		<clipPath id="clip2_208">
			<rect id="Frame" width="109.000000" height="60.000000" fill="white" fill-opacity="0"/>
		</clipPath>
	</defs>
	<g opacity="0.400000">
		<g clip-path="url(#clip2_208)">
			<path id="Vector" d="M109 60C72.6618 60 36.3285 60 0 60C0 39.9948 0 19.9944 0 0C36.3382 0 72.6715 0 109 0C109 20.0052 109 40.0056 109 60ZM40.0696 15.3756C39.5767 15.504 39.1383 15.6876 38.6889 15.7212C37.1835 15.8352 35.6745 15.9252 34.1654 15.9696C30.107 16.0884 26.791 18.4632 25.4515 22.2564C24.8799 23.874 24.6231 25.5492 24.5977 27.258C24.5735 28.8372 24.6025 30.4188 24.5819 31.998C24.565 33.354 23.636 34.3344 22.408 34.338C21.0733 34.3416 20.1323 33.396 20.1008 32.0028C20.0863 31.3632 20.0984 30.7224 20.0996 30.0828C20.1032 24.6624 20.1081 19.242 20.1105 13.8216C20.1105 13.4532 20.0657 13.1316 20.624 13.0776C22.4092 12.9048 24.1992 12.7356 25.9674 12.45C27.6715 12.1752 29.4022 11.9052 31.0323 11.37C33.6035 10.5252 34.794 7.9068 34.4355 5.616C33.4908 5.8032 32.5474 5.9952 31.6027 6.1776C24.6594 7.5156 17.6495 8.2536 10.5766 8.424C9.18506 8.4576 7.78381 8.412 6.40195 8.5488C4.42905 8.7432 2.88123 9.6996 2.25266 11.6328C1.67859 13.4016 1.93536 15.1128 3.42017 16.4124C4.98129 17.7804 6.82584 17.9748 8.78177 17.4864C8.71274 17.4276 8.63522 17.4144 8.55893 17.3928C7.38052 17.0604 6.84641 16.3308 6.99417 15.2532C7.12619 14.2884 7.79834 13.782 8.98767 13.7436C10.7426 13.6872 12.4975 13.626 14.2523 13.572C14.4437 13.566 14.6375 13.5876 14.8422 13.5972C14.8591 13.7772 14.8809 13.8936 14.8809 14.0112C14.8809 20.8116 14.8906 27.612 14.8712 34.4124C14.864 37.0476 13.9871 39.348 11.9924 41.166C11.7126 41.4204 11.4244 41.6664 11.1168 41.9376C11.3965 42.264 11.6557 42.5664 11.9088 42.8604C11.9742 42.8424 12.0227 42.8424 12.0506 42.8196C14.6605 40.6488 17.7561 39.6816 21.0612 39.198C22.3135 39.0144 23.5755 38.82 24.7914 38.4828C26.0995 38.1192 27.141 37.2744 28.0142 36.2208C29.6686 37.212 31.4223 37.6308 33.3116 37.3656C35.19 37.1016 36.7814 36.2664 38.0604 34.8792C39.6033 35.9208 41.2371 36.384 43.0381 36.2304C44.8426 36.0768 46.3432 35.2848 47.6221 34.0368C48.7048 34.8336 49.8057 35.448 51.1331 35.6472C52.4593 35.8464 53.7115 35.5548 55.0135 35.2176C55.0995 37.356 54.5836 39.2244 53.2925 40.8432C52.0693 42.3792 50.5348 43.362 48.4699 43.236C47.9418 43.2036 47.4211 43.062 46.8131 42.9564C47.0541 43.2468 47.2382 43.506 47.4574 43.7292C49.3964 45.6996 52.6373 46.182 55.3078 44.8944C57.7797 43.7028 59.0853 41.5932 59.7962 39.0864C60.1196 37.944 60.2237 36.7404 60.4381 35.5104C62.8058 36.2004 65.0282 35.784 66.9575 34.1652C70.1403 36.9804 73.4418 37.2636 76.9164 34.7976C77.0291 34.9116 77.126 35.0124 77.2241 35.1096C77.3391 35.2224 77.4518 35.3364 77.5717 35.4444C79.5567 37.2264 81.8602 37.7436 84.4254 37.0716C86.5908 36.504 88.0611 35.07 89.0942 33.1644C89.9686 31.554 90.3634 29.8056 90.4567 27.9888C90.5039 27.0708 90.5003 26.1504 90.5524 25.2324C90.5863 24.63 90.912 24.1788 91.4437 23.8908C92.7493 23.184 94.1518 24.084 94.1578 25.662C94.1687 28.5024 94.1566 31.3428 94.1348 34.182C94.1227 35.7468 93.4094 36.4788 91.8313 36.6072C91.7344 36.6156 91.6375 36.6324 91.514 36.6492C91.5007 36.8016 91.4825 36.9372 91.4789 37.074C91.4728 37.29 91.4777 37.5072 91.4777 37.7772C95.0359 38.16 98.4439 38.9604 101.67 40.4136C102.18 39.3264 102.18 39.3264 101.339 38.6244C100.085 37.578 99.4819 36.198 99.4576 34.6188C99.4056 31.1196 99.3898 27.618 99.4431 24.1188C99.4758 22.02 101.739 20.7468 103.641 21.6768C103.994 21.8496 104.323 22.0716 104.685 22.284C105.474 20.9892 106.253 19.7124 107.022 18.45C105.054 16.3704 102.217 15.8496 99.6841 17.0916C99.3862 17.238 99.2421 17.1816 99.018 16.9728C97.8372 15.8712 96.1731 15.7692 94.8712 16.7424C94.4776 17.0376 94.1736 17.4528 93.8369 17.8212C93.5135 18.1764 93.235 18.5796 92.8777 18.894C91.9464 19.716 90.7716 19.8012 89.7688 19.0644C88.8798 18.4104 88.0781 17.6412 87.2097 16.9596C84.796 15.0636 82.1618 14.5224 79.3023 15.8628C77.2301 16.8336 76.019 18.5712 75.233 20.64C74.5984 22.3116 74.4361 24.0576 74.4203 25.824C74.4082 27.1236 74.4506 28.4256 74.3913 29.7228C74.3295 31.0632 73.1196 31.854 71.8225 31.47C70.9566 31.2144 70.4612 30.4632 70.4612 29.376C70.4588 21.2748 70.46 13.1748 70.46 5.0736C70.46 4.8396 70.46 4.6056 70.46 4.3092C68.1032 4.3092 65.8142 4.3092 63.5082 4.3092C63.5082 4.7088 63.5082 5.0952 63.5082 5.4768C64.8417 5.6388 65.2002 6.0444 65.2014 7.3608C65.2026 12.3216 65.2014 17.2812 65.2014 22.242C65.2014 24.2616 65.1941 26.2824 65.205 28.302C65.2086 28.9668 65.0633 29.5704 64.614 30.078C63.9406 30.84 62.853 31.1256 61.9181 30.792C60.9443 30.444 60.3 29.5548 60.2976 28.4856C60.2891 24.4452 60.2939 20.4048 60.2939 16.3644C60.2939 16.1304 60.2939 15.8964 60.2939 15.6552C58.5052 15.6552 56.7866 15.6552 55.0244 15.6552C55.0244 15.9444 55.0244 16.182 55.0244 16.4196C55.0244 20.3004 55.0244 24.18 55.0232 28.0608C55.0232 28.32 55.0268 28.5816 55.0002 28.8396C54.896 29.8272 54.3062 30.4284 53.3943 30.7404C52.5852 31.0176 51.6854 30.7392 51.0956 30.0768C50.6366 29.5632 50.5227 28.9464 50.5239 28.2924C50.53 26.052 50.5433 23.8116 50.5409 21.5724C50.5397 20.3928 50.5893 19.2072 50.4803 18.0372C50.318 16.302 48.5692 14.9868 46.7743 15.1428C44.9746 15.2988 43.6024 16.818 43.669 18.5784C44.7554 18.2028 45.2834 18.4692 45.2871 19.4364C45.298 22.5372 45.2968 25.6368 45.2859 28.7376C45.2834 29.6052 44.9407 30.342 44.2237 30.858C43.3651 31.4748 42.4228 31.5564 41.483 31.0752C40.5407 30.5928 40.0793 29.7744 40.0769 28.7292C40.0672 25.2684 40.0696 21.8088 40.0684 18.348C40.0696 17.37 40.0696 16.3932 40.0696 15.3756ZM13.9254 55.1352C13.9508 55.1988 13.975 55.2624 14.0005 55.326C14.6908 54.8484 15.3545 55.128 16.023 55.3092C16.4106 55.4148 16.8066 55.4916 17.1905 55.608C17.784 55.7868 18.0795 55.3692 18.3968 55.1652C17.5066 54.9552 16.6225 54.7452 15.7372 54.5364C17.9632 53.7408 18.7359 52.7736 18.4937 50.994C18.3084 49.6296 17.3528 48.9072 15.6742 48.8616C14.1652 48.822 13.0824 49.626 12.8136 50.9856C12.4841 52.6524 13.1151 53.6664 14.9512 54.3552C14.5963 54.6264 14.2608 54.8808 13.9254 55.1352ZM93.2955 51.4056C93.7339 52.1112 94.1494 52.7676 94.5515 53.4324C95.0201 54.2076 95.4125 54.3432 96.2979 54.0528C95.7044 53.226 95.1001 52.3836 94.4763 51.5148C94.7258 51.3456 94.8966 51.246 95.048 51.1224C95.4973 50.7552 95.7601 50.2992 95.5918 49.7064C95.4283 49.1316 94.9681 48.9588 94.4231 48.9576C93.3961 48.9552 92.3702 48.9636 91.3432 48.9756C91.3057 48.9756 91.2693 49.0488 91.1773 49.1448C92.0614 49.23 91.8834 49.8696 91.8931 50.388C91.9076 51.186 91.9027 51.9864 91.8676 52.7832C91.8458 53.274 92.0469 53.904 91.2548 54.0528C92.0335 54.0528 92.8111 54.0528 93.5898 54.0528C93.6383 53.9988 93.6867 53.9448 93.7339 53.892C92.8898 53.9388 93.0121 53.424 93.0061 52.9896C92.9988 52.5108 92.9988 52.0308 92.9976 51.552C92.9964 50.82 92.9976 50.088 92.9976 49.374C93.9556 49.2372 94.4146 49.4724 94.4982 50.0736C94.6011 50.826 94.1942 51.2892 93.2955 51.4056ZM64.6128 50.4612C64.6576 50.274 64.6879 50.088 64.7472 49.9092C64.9301 49.3584 64.6891 49.0464 64.155 49.014C63.3181 48.9636 62.4594 48.8664 61.6431 48.996C60.3908 49.1952 59.6266 50.1888 59.5939 51.3924C59.5552 52.8072 60.2383 53.7816 61.5123 54.1656C62.5902 54.4908 63.6281 54.2976 64.6491 53.9472C64.7678 53.9064 64.8732 53.6976 64.8998 53.5512C64.9894 53.076 65.0391 52.5948 65.0984 52.1592C64.4711 52.1592 63.7335 52.1592 62.9959 52.1592C63.1267 52.3344 63.2672 52.3944 63.4126 52.4028C63.8304 52.4292 63.8256 52.7304 63.8074 53.0088C63.7892 53.2992 63.9394 53.6592 63.4671 53.79C62.3916 54.0876 61.304 53.6352 60.9709 52.5792C60.7869 51.996 60.7663 51.3132 60.8632 50.7048C60.9976 49.8612 61.7219 49.3524 62.5902 49.2924C63.6512 49.2204 63.9866 49.4232 64.4481 50.406C64.4565 50.4312 64.5159 50.4324 64.6128 50.4612ZM70.5 48.9672C70.7676 49.2576 71.1504 49.4796 71.1649 49.722C71.2206 50.676 71.2 51.6396 71.131 52.5936C71.0765 53.3556 70.5981 53.6724 69.7334 53.6472C68.8783 53.622 68.4338 53.2584 68.4011 52.5012C68.3708 51.7824 68.3793 51.0624 68.3866 50.3436C68.3914 49.8336 68.2473 49.242 68.9958 49.0728C69.0055 49.0704 68.9897 48.9624 68.9885 48.9324C68.1965 48.9324 67.4153 48.9324 66.6341 48.9324C67.5303 49.278 67.2203 50.016 67.2457 50.61C67.276 51.288 67.2469 51.9684 67.2591 52.6476C67.2712 53.3076 67.5667 53.8284 68.2001 54.0492C68.6482 54.2064 69.1436 54.3 69.6183 54.3036C70.9505 54.3132 71.6602 53.586 71.6881 52.2612C71.6978 51.8016 71.659 51.3384 71.7063 50.8836C71.7753 50.2128 71.4628 49.4196 72.2694 48.882C71.6905 48.9084 71.1128 48.9372 70.5 48.9672ZM19.9337 48.924C19.8961 48.9804 19.8574 49.0368 19.8198 49.0944C20.6931 49.1772 20.5719 49.7664 20.5756 50.2884C20.5816 51.108 20.5732 51.9288 20.584 52.7484C20.5925 53.4024 20.9328 53.8644 21.5408 54.0672C21.9744 54.2112 22.4467 54.3 22.9033 54.3072C24.181 54.3252 24.8907 53.6532 24.9731 52.3908C25.0143 51.7524 24.9961 51.1104 25.0361 50.4732C25.07 49.9296 24.8181 49.2696 25.6998 49.0224C25.6574 48.972 25.615 48.9228 25.5714 48.8724C24.9901 48.9096 24.4087 48.9456 23.7341 48.9888C24.4802 49.548 24.4814 49.548 24.4802 50.5284C24.4802 51.1488 24.4911 51.7692 24.4705 52.3884C24.4414 53.25 24.0078 53.6448 23.1237 53.6496C22.1597 53.6556 21.7019 53.2536 21.6704 52.3584C21.6547 51.8988 21.6268 51.4344 21.6728 50.9796C21.7419 50.2788 21.3119 49.4232 22.2578 48.9276C21.4827 48.924 20.7076 48.924 19.9337 48.924ZM28.0384 54.126C27.1797 53.8872 27.4886 53.3808 27.6836 52.9032C27.9173 52.3308 28.4175 52.6152 28.7881 52.602C29.8745 52.5612 29.981 52.6824 30.101 53.7696C29.9132 53.8716 29.7279 53.9724 29.4118 54.1428C30.388 54.1428 31.1716 54.1428 31.9539 54.1428C31.1716 53.6856 31.1013 52.8528 30.784 52.1832C30.3226 51.21 29.9374 50.2032 29.4918 49.2216C29.4264 49.0776 29.2217 48.93 29.0667 48.9132C28.9589 48.9012 28.782 49.0884 28.713 49.224C27.8895 50.8512 27.64 52.7508 26.3526 54.1248C26.8988 54.126 27.468 54.126 28.0384 54.126ZM89.7082 54.168C89.7373 54.1212 89.7676 54.0756 89.7966 54.0288C88.9271 53.7552 88.8822 52.9464 88.5867 52.314C88.1216 51.3204 87.7196 50.2968 87.2642 49.2972C87.1879 49.1304 86.976 48.918 86.8294 48.9192C86.6865 48.9216 86.4867 49.146 86.414 49.3152C85.9804 50.3244 85.5953 51.3528 85.1569 52.3596C84.8843 52.986 84.7984 53.7408 83.8985 54.0924C84.6252 54.0924 85.1811 54.0924 85.737 54.0924C85.7358 54.054 85.7346 54.0144 85.7346 53.976C85.5602 53.9016 85.3857 53.8284 85.221 53.7588C85.3785 52.6632 85.4439 52.59 86.2251 52.5864C87.6869 52.5804 87.6869 52.5804 87.8613 53.7576C87.6796 53.8644 87.4979 53.9724 87.3163 54.0792C87.3381 54.1092 87.3586 54.1392 87.3805 54.168C88.158 54.168 88.9331 54.168 89.7082 54.168ZM101.074 50.2752C101.381 49.7112 101.358 49.188 101.008 49.0728C100.198 48.8076 99.3813 48.7812 98.5941 49.1532C98.0625 49.404 97.7488 50.0304 97.8118 50.658C97.8735 51.2736 98.1714 51.7056 98.8073 51.8604C99.2372 51.9648 99.6757 52.0464 100.092 52.1868C100.678 52.3848 100.864 53.0244 100.492 53.4996C100.115 53.9808 99.5775 53.9976 99.058 53.8752C98.6002 53.7672 98.1799 53.544 98.2005 52.9512C98.2029 52.8624 98.1182 52.7712 98.0746 52.6812C98.0261 52.6848 97.9789 52.6884 97.9305 52.692C97.8881 53.1204 97.8469 53.5476 97.8021 53.9976C98.9127 54.4632 99.976 54.5784 100.99 53.8644C101.601 53.4348 101.742 52.8156 101.606 52.11C101.478 51.4452 100.996 51.222 100.401 51.1212C100.045 51.0612 99.6902 50.9856 99.3353 50.9196C98.8763 50.8332 98.622 50.4948 98.7334 50.1084C98.8218 49.8024 99.1331 49.4328 99.4274 49.3344C100.194 49.0764 100.68 49.4028 100.935 50.184C100.949 50.2248 101.026 50.2452 101.074 50.2752ZM48.327 49.0092C46.6544 49.0092 45.0582 49.0092 43.428 49.0092C43.4583 49.416 43.485 49.776 43.5116 50.1372C43.5697 50.1468 43.6279 50.1564 43.686 50.166C43.7587 49.9464 43.8301 49.7268 43.9197 49.4544C44.3497 49.4544 44.7966 49.4544 45.3052 49.4544C45.3052 50.5584 45.3113 51.612 45.3028 52.6668C45.298 53.2284 45.5123 53.9076 44.6258 54.0996C45.4445 54.0996 46.2632 54.0996 47.0819 54.0996C47.1098 54.0492 47.1389 53.9988 47.1667 53.9484C46.4461 53.9364 46.4352 53.4924 46.4437 53.0076C46.4582 52.17 46.4461 51.3312 46.4461 50.4924C46.4461 50.1456 46.4461 49.7976 46.4461 49.4628C47.375 49.3932 47.375 49.3932 48.2688 50.22C48.2882 49.7928 48.3064 49.4316 48.327 49.0092ZM54.9493 49.0536C54.8985 49.0056 54.8476 48.9564 54.7967 48.9084C53.645 49.2504 53.7285 50.6748 52.8626 51.27C52.5138 50.664 52.1844 50.0484 51.8138 49.458C51.3705 48.7512 50.5796 48.6876 49.939 49.2768C50.1448 49.4148 50.4113 49.5096 50.5445 49.698C51.0386 50.4012 51.5873 51.0924 51.9191 51.8712C52.1287 52.3644 52.0293 53.0076 51.976 53.574C51.9627 53.718 51.5958 53.8284 51.3959 53.9616C51.3777 53.9736 51.3935 54.036 51.3935 54.0912C52.2086 54.0912 53.0237 54.0912 53.8872 54.0912C53.6026 53.856 53.2283 53.6964 53.2114 53.5068C53.1387 52.7028 53.0188 51.8772 53.5565 51.1392C54.0446 50.4612 54.4867 49.7496 54.9493 49.0536ZM79.9394 49.4472C79.9394 50.622 79.9261 51.7752 79.9454 52.9272C79.9539 53.4552 79.937 53.9268 79.2599 54.096C80.0799 54.096 80.8998 54.096 81.7245 54.096C81.4775 53.856 81.1287 53.6748 81.1214 53.4816C81.073 52.1496 81.096 50.814 81.096 49.4328C81.5114 49.4328 81.9062 49.3416 82.2187 49.4616C82.4706 49.5588 82.6208 49.9116 82.8884 50.238C82.8884 49.7688 82.8884 49.3932 82.8884 49.0116C81.2789 49.0116 79.6814 49.0116 78.05 49.0116C78.0864 49.4196 78.1179 49.7796 78.1494 50.1396C78.1942 50.1744 78.2378 50.2104 78.2826 50.2452C78.4534 49.14 79.1945 49.4112 79.9394 49.4472ZM35.2082 53.7444C35.2082 52.5156 35.2046 51.4008 35.2106 50.2848C35.2131 49.8132 35.0992 49.2696 35.8029 49.1484C35.8089 49.1472 35.8041 49.0752 35.8041 49.0296C35.0072 49.0296 34.2188 49.0296 33.4315 49.0296C33.3879 49.0776 33.3431 49.1256 33.2995 49.1724C34.2357 49.2408 34.0625 49.8648 34.0746 50.382C34.0891 51.0408 34.0988 51.7008 34.0685 52.3584C34.0395 52.9812 34.2466 53.658 33.5986 54.2232C34.8255 54.2232 35.93 54.234 37.0346 54.2112C37.1944 54.2076 37.4585 54.0696 37.4875 53.9496C37.5735 53.5956 37.5663 53.2188 37.6002 52.7832C37.0406 52.8984 37.3591 53.7528 36.6785 53.6772C36.2292 53.628 35.7653 53.7144 35.2082 53.7444ZM39.395 48.9804C39.3623 49.032 39.3284 49.0836 39.2957 49.1352C40.112 49.1952 39.9945 49.7448 39.9957 50.2284C39.9969 51.108 39.9848 51.9888 39.9909 52.8684C39.9945 53.3424 40.0417 53.8248 39.4011 53.9508C39.3962 53.952 39.4047 54.0228 39.4071 54.0672C40.1847 54.0672 40.961 54.0672 41.7167 54.0672C41.5048 53.8524 41.1669 53.67 41.1608 53.4768C41.1148 52.1028 41.1366 50.7264 41.1366 49.3932C41.4067 49.2744 41.5992 49.1904 41.7906 49.1064C41.7724 49.0644 41.7555 49.0224 41.7373 48.9804C40.9561 48.9804 40.175 48.9804 39.395 48.9804ZM73.9056 53.9112C73.9517 53.9592 73.9977 54.006 74.0437 54.054C74.8224 54.054 75.6024 54.054 76.3387 54.054C76.1341 53.8428 75.7962 53.6568 75.7901 53.46C75.7429 52.0908 75.7659 50.7192 75.7659 49.3872C76.0469 49.2684 76.2382 49.188 76.4284 49.1076C76.4114 49.0668 76.3932 49.026 76.3763 48.9852C75.5915 48.9852 74.8055 48.9852 74.0207 48.9852C74.7982 49.2456 74.6299 49.8576 74.6323 50.3844C74.6359 51.2016 74.6323 52.0188 74.625 52.8372C74.6202 53.3136 74.7619 53.8716 73.9056 53.9112ZM104.543 39.252C103.815 39.2508 103.277 39.8088 103.287 40.5576C103.297 41.2848 103.823 41.8224 104.525 41.8224C105.19 41.8224 105.788 41.2368 105.809 40.5648C105.831 39.8556 105.249 39.2532 104.543 39.252Z" fill="#FFFFFF" fill-opacity="1.000000" fill-rule="nonzero"/>
			<path id="Vector" d="M40.07 15.3755C40.07 16.3931 40.07 17.3699 40.07 18.3479C40.0712 21.8087 40.0676 25.2683 40.0785 28.7291C40.0821 29.7743 40.5424 30.5927 41.4846 31.0751C42.4244 31.5563 43.3667 31.4747 44.2253 30.8579C44.9423 30.3419 45.2851 29.6051 45.2875 28.7375C45.2984 25.6367 45.2996 22.5371 45.2887 19.4363C45.2851 18.4691 44.757 18.2027 43.6707 18.5783C43.6028 16.8179 44.9762 15.2987 46.7759 15.1427C48.5708 14.9867 50.3196 16.3019 50.4819 18.0371C50.5909 19.2071 50.5413 20.3939 50.5425 21.5723C50.5449 23.8127 50.5316 26.0531 50.5255 28.2923C50.5243 28.9463 50.6382 29.5631 51.0972 30.0767C51.6882 30.7379 52.5869 31.0163 53.3959 30.7403C54.3078 30.4283 54.8976 29.8259 55.0018 28.8395C55.0297 28.5815 55.0248 28.3199 55.0248 28.0607C55.026 24.1799 55.026 20.3003 55.026 16.4195C55.026 16.1819 55.026 15.9443 55.026 15.6551C56.7882 15.6551 58.5068 15.6551 60.2956 15.6551C60.2956 15.8963 60.2956 16.1303 60.2956 16.3643C60.2956 20.4047 60.2907 24.4451 60.2992 28.4855C60.3016 29.5547 60.946 30.4439 61.9197 30.7919C62.8547 31.1255 63.9422 30.8399 64.6156 30.0779C65.0661 29.5691 65.2103 28.9667 65.2066 28.3019C65.1957 26.2823 65.203 24.2615 65.203 22.2419C65.203 17.2811 65.203 12.3215 65.203 7.36068C65.203 6.04428 64.8445 5.63868 63.5099 5.47668C63.5099 5.09508 63.5099 4.70748 63.5099 4.30908C65.8158 4.30908 68.1048 4.30908 70.4616 4.30908C70.4616 4.60548 70.4616 4.83948 70.4616 5.07348C70.4616 13.1747 70.4604 21.2747 70.4629 29.3759C70.4629 30.4631 70.9582 31.2143 71.8242 31.4699C73.1212 31.8527 74.3324 31.0631 74.3929 29.7227C74.4523 28.4255 74.4099 27.1235 74.422 25.8239C74.4377 24.0575 74.6 22.3115 75.2346 20.6399C76.0194 18.5711 77.2318 16.8347 79.304 15.8627C82.1634 14.5223 84.7976 15.0635 87.2113 16.9595C88.0797 17.6423 88.8814 18.4115 89.7704 19.0643C90.7732 19.8011 91.9467 19.7159 92.8793 18.8939C93.2366 18.5783 93.5151 18.1751 93.8385 17.8211C94.1752 17.4527 94.478 17.0375 94.8728 16.7423C96.1735 15.7691 97.8388 15.8723 99.0197 16.9727C99.2425 17.1815 99.3866 17.2379 99.6858 17.0915C102.218 15.8495 105.056 16.3715 107.024 18.4499C106.254 19.7123 105.476 20.9891 104.686 22.2839C104.324 22.0715 103.996 21.8495 103.642 21.6767C101.74 20.7467 99.4774 22.0199 99.4448 24.1187C99.3903 27.6179 99.4072 31.1195 99.4593 34.6187C99.4823 36.1979 100.087 37.5779 101.34 38.6243C102.182 39.3275 102.182 39.3275 101.672 40.4135C98.4456 38.9603 95.0375 38.1599 91.4793 37.7771C91.4793 37.5071 91.4756 37.2911 91.4805 37.0739C91.4841 36.9383 91.5023 36.8027 91.5156 36.6491C91.6391 36.6323 91.736 36.6155 91.8329 36.6071C93.411 36.4787 94.1243 35.7467 94.1364 34.1819C94.1583 31.3415 94.1703 28.5011 94.1595 25.6619C94.1534 24.0839 92.7509 23.1839 91.4453 23.8907C90.9137 24.1787 90.5879 24.6311 90.554 25.2323C90.5019 26.1503 90.5056 27.0707 90.4583 27.9887C90.3651 29.8055 89.9702 31.5539 89.0958 33.1643C88.0615 35.0687 86.5924 36.5039 84.427 37.0715C81.8618 37.7435 79.5571 37.2263 77.5733 35.4443C77.4534 35.3375 77.3408 35.2223 77.2257 35.1095C77.1264 35.0123 77.0295 34.9115 76.9181 34.7975C73.4434 37.2635 70.1419 36.9791 66.9591 34.1651C65.0298 35.7839 62.8086 36.2003 60.4397 35.5103C60.2265 36.7415 60.1224 37.9439 59.7978 39.0863C59.0869 41.5931 57.7813 43.7027 55.3094 44.8943C52.6377 46.1819 49.398 45.7007 47.459 43.7291C47.2386 43.5059 47.0545 43.2467 46.8147 42.9563C47.4227 43.0619 47.9435 43.2047 48.4715 43.2359C50.5364 43.3619 52.0709 42.3779 53.2942 40.8431C54.584 39.2243 55.1011 37.3571 55.0151 35.2175C53.7132 35.5547 52.4597 35.8475 51.1347 35.6471C49.8074 35.4467 48.7065 34.8323 47.6237 34.0367C46.3448 35.2847 44.8442 36.0767 43.0397 36.2303C41.2387 36.3827 39.6049 35.9207 38.062 34.8791C36.7843 36.2651 35.1917 37.1003 33.3132 37.3655C31.4239 37.6307 29.6702 37.2119 28.0158 36.2207C27.1426 37.2755 26.1011 38.1203 24.7931 38.4827C23.5771 38.8199 22.3151 39.0143 21.0628 39.1979C17.7577 39.6815 14.6621 40.6487 12.0522 42.8195C12.0243 42.8423 11.9771 42.8423 11.9105 42.8603C11.6586 42.5663 11.3994 42.2639 11.1184 41.9375C11.426 41.6675 11.7143 41.4215 11.994 41.1659C13.9875 39.3479 14.8644 37.0475 14.8729 34.4123C14.8934 27.6119 14.8825 20.8115 14.8825 14.0111C14.8825 13.8935 14.8607 13.7771 14.8438 13.5971C14.6391 13.5875 14.4465 13.5659 14.254 13.5719C12.4991 13.6271 10.7442 13.6871 8.98929 13.7435C7.79996 13.7819 7.12781 14.2883 6.99579 15.2531C6.84802 16.3295 7.38214 17.0603 8.56055 17.3927C8.63684 17.4143 8.71436 17.4275 8.78339 17.4863C6.82745 17.9747 4.98172 17.7791 3.42178 16.4123C1.93817 15.1115 1.68021 13.4015 2.25427 11.6327C2.88165 9.69948 4.43066 8.74308 6.40356 8.54868C7.78543 8.41188 9.18549 8.45748 10.5782 8.42388C17.6499 8.25348 24.6599 7.51548 31.6044 6.17508C32.549 5.99268 33.4913 5.80068 34.4371 5.61348C34.7956 7.90428 33.6051 10.5227 31.0339 11.3675C29.4026 11.9027 27.6731 12.1727 25.9691 12.4475C24.1996 12.7331 22.4108 12.9023 20.6256 13.0751C20.0673 13.1291 20.1121 13.4507 20.1121 13.8191C20.1097 19.2395 20.1049 24.6599 20.1012 30.0803C20.1012 30.7199 20.0879 31.3607 20.1024 32.0003C20.1339 33.3947 21.075 34.3391 22.4096 34.3355C23.6377 34.3331 24.5666 33.3527 24.5836 31.9955C24.6041 30.4151 24.5751 28.8347 24.5993 27.2555C24.6247 25.5479 24.8815 23.8715 25.4531 22.2539C26.7926 18.4607 30.1098 16.0847 34.1671 15.9671C35.6761 15.9227 37.1852 15.8327 38.6906 15.7187C39.1399 15.6863 39.5783 15.5027 40.07 15.3755Z" fill="#000000" fill-opacity="1.000000" fill-rule="nonzero"/>
			<path id="Vector" d="M79.5966 26.1792C79.6294 26.1828 79.6609 26.1852 79.6935 26.1888C79.6935 26.6688 79.6669 27.15 79.6984 27.6264C79.7783 28.8252 79.8873 30.024 80.5898 31.0632C81.5344 32.46 83.1985 32.5416 84.2219 31.2036C84.5404 30.7872 84.779 30.2652 84.9037 29.7564C85.4088 27.6912 85.3785 25.59 85.0563 23.5092C84.9388 22.746 84.647 21.9432 84.2134 21.3072C83.3196 19.998 81.6349 20.0112 80.7048 21.2964C80.3403 21.7992 80.0714 22.428 79.9539 23.0352C79.7541 24.0672 79.7081 25.1292 79.5966 26.1792Z" fill="#000000" fill-opacity="1.000000" fill-rule="nonzero"/>
			<path id="Vector" d="M34.8291 20.9243C32.7993 20.8763 31.0904 22.0655 30.3904 23.9039C29.7267 25.6474 29.6226 27.4606 29.8333 29.2762C29.9229 30.0454 30.2039 30.847 30.6035 31.5142C31.4816 32.977 33.5369 32.9434 34.3895 31.4662C34.685 30.955 34.8388 30.2962 34.8473 29.7022C34.8848 27.205 34.8424 24.7066 34.8291 22.2083C34.8279 21.7931 34.8291 21.3779 34.8291 20.9243Z" fill="#000000" fill-opacity="1.000000" fill-rule="nonzero"/>
			<path id="Vector" d="M13.9256 55.1352C14.261 54.8808 14.5965 54.6264 14.9526 54.3564C13.1165 53.6664 12.4856 52.6536 12.815 50.9868C13.0839 49.6272 14.1666 48.822 15.6756 48.8628C17.353 48.9072 18.3086 49.6296 18.4951 50.9952C18.7373 52.7748 17.9646 53.7432 15.7386 54.5376C16.6239 54.7464 17.5092 54.9564 18.3982 55.1664C18.0809 55.3692 17.7842 55.788 17.192 55.6092C16.808 55.4928 16.412 55.416 16.0244 55.3104C15.3559 55.1292 14.691 54.8496 14.0019 55.3272C13.9753 55.2624 13.9498 55.1988 13.9256 55.1352ZM17.4063 51.6408C17.3034 51.18 17.2501 50.676 17.0733 50.22C16.8395 49.62 16.3757 49.2672 15.6744 49.278C14.9562 49.2888 14.4016 49.56 14.1678 50.2476C13.842 51.2088 13.8626 52.1796 14.3362 53.0964C14.6414 53.6868 15.1742 53.9376 15.8379 53.8992C16.4944 53.862 16.9376 53.5116 17.1387 52.908C17.2682 52.5168 17.313 52.0956 17.4063 51.6408Z" fill="#000000" fill-opacity="1.000000" fill-rule="nonzero"/>
			<path id="Vector" d="M93.296 51.4054C94.1946 51.289 94.6028 50.8258 94.4986 50.0734C94.415 49.4722 93.9572 49.237 92.998 49.3738C92.998 50.0878 92.9968 50.8198 92.998 51.5518C92.9992 52.0306 92.9992 52.5106 93.0065 52.9894C93.0126 53.4238 92.8903 53.9386 93.7344 53.8918C93.6859 53.9458 93.6375 53.9998 93.5903 54.0526C92.8115 54.0526 92.034 54.0526 91.2552 54.0526C92.0473 53.9038 91.8463 53.2738 91.8681 52.783C91.9032 51.9862 91.908 51.1858 91.8935 50.3878C91.8838 49.8694 92.0619 49.2298 91.1777 49.1446C91.2686 49.0486 91.3061 48.9754 91.3437 48.9754C92.3707 48.9646 93.3965 48.955 94.4235 48.9574C94.9685 48.9586 95.4287 49.1302 95.5922 49.7062C95.7606 50.299 95.4978 50.7538 95.0485 51.1222C94.8971 51.2458 94.7263 51.3454 94.4768 51.5146C95.1005 52.3834 95.7049 53.2258 96.2983 54.0526C95.413 54.343 95.0206 54.2074 94.5519 53.4322C94.1498 52.7674 93.7332 52.111 93.296 51.4054Z" fill="#000000" fill-opacity="1.000000" fill-rule="nonzero"/>
			<path id="Vector" d="M64.6123 50.4612C64.5154 50.4324 64.4561 50.4312 64.4464 50.4084C63.985 49.4256 63.6495 49.2228 62.5886 49.2948C61.7214 49.3536 60.996 49.8624 60.8615 50.7072C60.7646 51.3156 60.7852 51.9984 60.9693 52.5816C61.3024 53.6376 62.39 54.09 63.4654 53.7924C63.9366 53.6616 63.7876 53.3028 63.8057 53.0112C63.8227 52.7316 63.8287 52.4316 63.4109 52.4052C63.2668 52.3956 63.1263 52.3368 62.9943 52.1616C63.7319 52.1616 64.4694 52.1616 65.0968 52.1616C65.0374 52.5972 64.9878 53.0784 64.8982 53.5536C64.8703 53.7 64.7649 53.9088 64.6475 53.9496C63.6253 54.3 62.5874 54.4932 61.5107 54.168C60.2378 53.784 59.5547 52.8084 59.5923 51.3948C59.625 50.1912 60.388 49.1976 61.6415 48.9984C62.4578 48.8688 63.3165 48.966 64.1533 49.0164C64.6886 49.0488 64.9297 49.3608 64.7455 49.9116C64.6874 50.088 64.6559 50.274 64.6123 50.4612Z" fill="#000000" fill-opacity="1.000000" fill-rule="nonzero"/>
			<path id="Vector" d="M70.5 48.9673C71.1116 48.9373 71.6905 48.9097 72.2682 48.8809C71.4628 49.4185 71.7753 50.2117 71.705 50.8825C71.6578 51.3373 71.6966 51.8005 71.6869 52.2601C71.6602 53.5849 70.9505 54.3121 69.6171 54.3025C69.1423 54.2989 68.647 54.2053 68.1989 54.0481C67.5667 53.8273 67.27 53.3065 67.2578 52.6465C67.2457 51.9673 67.2736 51.2869 67.2445 50.6089C67.2179 50.0149 67.5279 49.2769 66.6329 48.9313C67.4141 48.9313 68.1953 48.9313 68.9873 48.9313C68.9897 48.9613 69.0043 49.0705 68.9946 49.0717C68.2461 49.2409 68.3902 49.8325 68.3854 50.3425C68.3793 51.0613 68.3696 51.7825 68.3999 52.5001C68.4326 53.2573 68.8771 53.6221 69.7321 53.6461C70.5969 53.6713 71.0741 53.3545 71.1298 52.5925C71.1988 51.6385 71.2194 50.6749 71.1637 49.7209C71.1504 49.4797 70.7676 49.2577 70.5 48.9673Z" fill="#000000" fill-opacity="1.000000" fill-rule="nonzero"/>
			<path id="Vector" d="M19.9341 48.9239C20.7093 48.9239 21.4832 48.9239 22.2583 48.9239C21.3136 49.4195 21.7436 50.2762 21.6733 50.9758C21.6285 51.4318 21.6552 51.895 21.6709 52.3546C21.7024 53.251 22.1602 53.6518 23.1242 53.6458C24.0083 53.641 24.4419 53.2462 24.471 52.3846C24.4916 51.7654 24.4795 51.1451 24.4807 50.5247C24.4819 49.5455 24.4807 49.5454 23.7346 48.9851C24.4092 48.9419 24.9905 48.9059 25.5719 48.8687C25.6143 48.9191 25.6566 48.9683 25.7003 49.0187C24.8186 49.2659 25.0705 49.9258 25.0366 50.4694C24.9966 51.1078 25.0148 51.7498 24.9736 52.387C24.8912 53.6494 24.1815 54.3214 22.9038 54.3034C22.4472 54.2974 21.9749 54.2086 21.5413 54.0634C20.9345 53.8606 20.5942 53.3986 20.5845 52.7446C20.5736 51.925 20.5809 51.1042 20.576 50.2846C20.5724 49.7627 20.6935 49.1735 19.8203 49.0907C19.8578 49.0379 19.8954 48.9815 19.9341 48.9239Z" fill="#000000" fill-opacity="1.000000" fill-rule="nonzero"/>
			<path id="Vector" d="M28.0382 54.126C27.4689 54.126 26.8997 54.126 26.3535 54.126C27.6409 52.7508 27.8904 50.8512 28.714 49.2252C28.783 49.0884 28.9598 48.9024 29.0676 48.9144C29.2226 48.9312 29.4273 49.0788 29.4927 49.2228C29.9372 50.2032 30.3235 51.2112 30.785 52.1844C31.1023 52.854 31.1725 53.6868 31.9549 54.144C31.1725 54.144 30.3889 54.144 29.4128 54.144C29.7289 53.9724 29.9142 53.8716 30.1019 53.7708C29.982 52.6836 29.8754 52.5624 28.7891 52.6032C28.4185 52.6176 27.9183 52.332 27.6845 52.9044C27.4883 53.3808 27.1783 53.8872 28.0382 54.126ZM28.7673 50.2224C28.4826 50.9304 28.2538 51.5016 28.0067 52.1172C28.5771 52.1172 29.0349 52.1172 29.563 52.1172C29.2941 51.4788 29.0591 50.9184 28.7673 50.2224Z" fill="#000000" fill-opacity="1.000000" fill-rule="nonzero"/>
			<path id="Vector" d="M89.7086 54.168C88.9335 54.168 88.1584 54.168 87.3833 54.168C87.3615 54.138 87.3409 54.108 87.3191 54.0792C87.5008 53.9724 87.6825 53.8644 87.8653 53.7576C87.6897 52.5816 87.6897 52.5816 86.2279 52.5864C85.4467 52.59 85.3813 52.6632 85.2239 53.7588C85.3886 53.8284 85.563 53.9028 85.7374 53.976C85.7386 54.0144 85.7398 54.054 85.7398 54.0924C85.1839 54.0924 84.6292 54.0924 83.9014 54.0924C84.8012 53.7408 84.8872 52.9848 85.1597 52.3596C85.5981 51.3528 85.9833 50.3244 86.4168 49.3152C86.4895 49.146 86.6881 48.9216 86.8322 48.9192C86.9788 48.9168 87.1907 49.1304 87.267 49.2972C87.7224 50.2968 88.1233 51.3192 88.5896 52.314C88.8863 52.9464 88.9311 53.7552 89.7995 54.0288C89.768 54.0756 89.7389 54.1212 89.7086 54.168ZM86.567 50.394C86.5174 50.3976 86.4677 50.4024 86.4168 50.406C86.1916 50.9652 85.9663 51.5256 85.7277 52.1172C86.2824 52.1172 86.7438 52.1172 87.2804 52.1172C87.02 51.4884 86.7935 50.9412 86.567 50.394Z" fill="#000000" fill-opacity="1.000000" fill-rule="nonzero"/>
			<path id="Vector" d="M101.074 50.2751C101.026 50.2451 100.948 50.2259 100.935 50.1851C100.679 49.4027 100.194 49.0775 99.4271 49.3355C99.1328 49.4351 98.8215 49.8035 98.7331 50.1095C98.6217 50.4971 98.876 50.8355 99.335 50.9207C99.6911 50.9867 100.045 51.0623 100.401 51.1223C100.997 51.2231 101.479 51.4463 101.606 52.1111C101.742 52.8179 101.601 53.4359 100.989 53.8655C99.9745 54.5783 98.9124 54.4643 97.8018 53.9987C97.8454 53.5487 97.8878 53.1215 97.9301 52.6931C97.9786 52.6895 98.0258 52.6859 98.0742 52.6823C98.1179 52.7723 98.2039 52.8635 98.2002 52.9523C98.1796 53.5451 98.5999 53.7683 99.0577 53.8763C99.5772 53.9987 100.114 53.9819 100.492 53.5007C100.863 53.0255 100.679 52.3859 100.092 52.1879C99.6741 52.0475 99.2357 51.9659 98.807 51.8615C98.1711 51.7067 97.8732 51.2747 97.8115 50.6591C97.7473 50.0315 98.0609 49.4051 98.5938 49.1543C99.381 48.7823 100.197 48.8087 101.008 49.0739C101.358 49.1867 101.379 49.7099 101.074 50.2751Z" fill="#000000" fill-opacity="1.000000" fill-rule="nonzero"/>
			<path id="Vector" d="M48.327 49.0093C48.3064 49.4317 48.2894 49.7929 48.2676 50.2213C47.3738 49.3945 47.3738 49.3945 46.4449 49.4641C46.4449 49.7989 46.4449 50.1457 46.4449 50.4937C46.4461 51.3325 46.457 52.1701 46.4425 53.0089C46.434 53.4937 46.4449 53.9377 47.1655 53.9497C47.1377 54.0001 47.1086 54.0505 47.0807 54.1009C46.262 54.1009 45.4433 54.1009 44.6246 54.1009C45.5099 53.9089 45.2968 53.2297 45.3016 52.6681C45.3101 51.6145 45.304 50.5597 45.304 49.4557C44.7954 49.4557 44.3485 49.4557 43.9185 49.4557C43.8289 49.7281 43.7563 49.9477 43.6848 50.1673C43.6266 50.1577 43.5685 50.1481 43.5104 50.1385C43.4837 49.7773 43.4571 49.4161 43.4268 49.0105C45.0582 49.0093 46.6544 49.0093 48.327 49.0093Z" fill="#000000" fill-opacity="1.000000" fill-rule="nonzero"/>
			<path id="Vector" d="M54.9496 49.0535C54.4857 49.7495 54.0449 50.4611 53.5531 51.1367C53.0154 51.8759 53.1353 52.7015 53.208 53.5043C53.2249 53.6951 53.5992 53.8535 53.8838 54.0887C53.0202 54.0887 52.2064 54.0887 51.3901 54.0887C51.3901 54.0347 51.3744 53.9711 51.3925 53.9591C51.5923 53.8259 51.9593 53.7167 51.9726 53.5715C52.0259 53.0039 52.1252 52.3619 51.9157 51.8687C51.5851 51.0899 51.0352 50.3987 50.5411 49.6955C50.4091 49.5071 50.1414 49.4123 49.9355 49.2755C50.5774 48.6863 51.3683 48.7499 51.8116 49.4567C52.1822 50.0471 52.5128 50.6639 52.8604 51.2687C53.7275 50.6747 53.644 49.2503 54.7945 48.9071C54.8478 48.9575 54.8987 49.0055 54.9496 49.0535Z" fill="#000000" fill-opacity="1.000000" fill-rule="nonzero"/>
			<path id="Vector" d="M79.9391 49.4471C79.1943 49.4111 78.4531 49.1411 78.2823 50.2463C78.2375 50.2115 78.1939 50.1755 78.1491 50.1407C78.1176 49.7807 78.0862 49.4207 78.0498 49.0127C79.6812 49.0127 81.2798 49.0127 82.8882 49.0127C82.8882 49.3943 82.8882 49.7699 82.8882 50.2391C82.6205 49.9127 82.4704 49.5587 82.2184 49.4627C81.906 49.3427 81.5099 49.4339 81.0957 49.4339C81.0957 50.8151 81.0727 52.1495 81.1212 53.4827C81.1284 53.6759 81.4772 53.8559 81.7243 54.0971C80.8995 54.0971 80.0796 54.0971 79.2597 54.0971C79.9367 53.9279 79.9549 53.4575 79.9452 52.9283C79.9258 51.7751 79.9391 50.6219 79.9391 49.4471Z" fill="#000000" fill-opacity="1.000000" fill-rule="nonzero"/>
			<path id="Vector" d="M35.208 53.7443C35.7651 53.7131 36.229 53.6279 36.6759 53.6771C37.3565 53.7527 37.038 52.8983 37.5975 52.7831C37.5636 53.2187 37.5709 53.5943 37.4849 53.9495C37.4558 54.0695 37.1918 54.2075 37.032 54.2111C35.9274 54.2339 34.8229 54.2231 33.596 54.2231C34.244 53.6579 34.0369 52.9823 34.0659 52.3583C34.0962 51.7007 34.0865 51.0407 34.072 50.3819C34.0611 49.8647 34.2331 49.2419 33.2969 49.1723C33.3405 49.1243 33.3853 49.0763 33.4289 49.0295C34.2173 49.0295 35.0057 49.0295 35.8015 49.0295C35.8015 49.0751 35.8075 49.1471 35.8002 49.1483C35.0966 49.2695 35.2104 49.8119 35.208 50.2847C35.2044 51.4007 35.208 52.5167 35.208 53.7443Z" fill="#000000" fill-opacity="1.000000" fill-rule="nonzero"/>
			<path id="Vector" d="M39.3952 48.9805C40.1764 48.9805 40.9563 48.9805 41.7375 48.9805C41.7557 49.0225 41.7726 49.0645 41.7908 49.1065C41.5982 49.1905 41.4069 49.2745 41.1368 49.3933C41.1368 50.7265 41.115 52.1029 41.161 53.4769C41.1671 53.6701 41.5062 53.8525 41.7169 54.0673C40.9612 54.0673 40.1861 54.0673 39.4073 54.0673C39.4049 54.0217 39.3964 53.9509 39.4013 53.9509C40.0419 53.8261 39.9935 53.3425 39.9911 52.8685C39.985 51.9889 39.9959 51.1081 39.9959 50.2285C39.9959 49.7449 40.1122 49.1953 39.2959 49.1353C39.3286 49.0837 39.3613 49.0321 39.3952 48.9805Z" fill="#000000" fill-opacity="1.000000" fill-rule="nonzero"/>
			<path id="Vector" d="M73.9053 53.9111C74.7615 53.8715 74.6198 53.3135 74.6235 52.8383C74.6307 52.0211 74.6356 51.2039 74.6307 50.3855C74.6283 49.8587 74.7967 49.2467 74.0191 48.9863C74.8039 48.9863 75.5899 48.9863 76.3747 48.9863C76.3917 49.0271 76.4099 49.0679 76.4268 49.1087C76.2367 49.1891 76.0453 49.2695 75.7643 49.3883C75.7643 50.7203 75.7425 52.0919 75.7885 53.4611C75.7958 53.6579 76.1337 53.8439 76.3372 54.0551C75.5996 54.0551 74.8209 54.0551 74.0421 54.0551C73.9973 54.0071 73.9513 53.9591 73.9053 53.9111Z" fill="#000000" fill-opacity="1.000000" fill-rule="nonzero"/>
			<path id="Vector" d="M79.5966 26.1792C79.7081 25.1292 79.7541 24.0672 79.9551 23.0352C80.0726 22.4268 80.3427 21.7992 80.706 21.2964C81.6362 20.0112 83.3208 19.9992 84.2146 21.3072C84.6494 21.9432 84.9401 22.746 85.0576 23.5092C85.3785 25.59 85.41 27.6912 84.9049 29.7564C84.7802 30.2664 84.5416 30.7872 84.2231 31.2036C83.1997 32.5416 81.5368 32.46 80.591 31.0632C79.8885 30.0252 79.7795 28.8252 79.6996 27.6264C79.6681 27.1488 79.6948 26.6676 79.6948 26.1888C79.6609 26.1852 79.6281 26.1828 79.5966 26.1792Z" fill="#FFFFFF" fill-opacity="1.000000" fill-rule="nonzero"/>
			<path id="Vector" d="M34.8291 20.9243C34.8291 21.3779 34.8279 21.7931 34.8291 22.2083C34.8412 24.7067 34.8836 27.2051 34.8473 29.7023C34.8388 30.2963 34.685 30.9551 34.3895 31.4663C33.5369 32.9435 31.4816 32.9759 30.6035 31.5143C30.2039 30.8483 29.9229 30.0455 29.8333 29.2763C29.6226 27.4607 29.7267 25.6475 30.3904 23.9039C31.0916 22.0655 32.7993 20.8763 34.8291 20.9243Z" fill="#FFFFFF" fill-opacity="1.000000" fill-rule="nonzero"/>
			<path id="Vector" d="M17.4063 51.6406C17.313 52.0955 17.2682 52.5166 17.1374 52.909C16.9364 53.5126 16.4931 53.8618 15.8367 53.9003C15.173 53.9387 14.6401 53.6879 14.3349 53.0975C13.8614 52.1806 13.8396 51.2098 14.1666 50.2486C14.4003 49.5598 14.955 49.2887 15.6732 49.279C16.3732 49.2682 16.8371 49.6211 17.072 50.2211C17.2501 50.6758 17.3033 51.1798 17.4063 51.6406Z" fill="#FFFFFF" fill-opacity="1.000000" fill-rule="nonzero"/>
			<path id="Vector" d="M28.7676 50.2224C29.0595 50.9184 29.2945 51.4788 29.5621 52.1172C29.0341 52.1172 28.5763 52.1172 28.0059 52.1172C28.2542 51.5016 28.483 50.9316 28.7676 50.2224Z" fill="#FFFFFF" fill-opacity="1.000000" fill-rule="nonzero"/>
			<path id="Vector" d="M86.5669 50.394C86.7933 50.9412 87.0198 51.4884 87.2802 52.1172C86.7437 52.1172 86.2822 52.1172 85.7275 52.1172C85.9661 51.5256 86.1914 50.9652 86.4167 50.406C86.4663 50.4024 86.516 50.3976 86.5669 50.394Z" fill="#FFFFFF" fill-opacity="1.000000" fill-rule="nonzero"/>
			<path id="Vector" d="M104.505 39.4103C105.122 39.3935 105.621 39.8687 105.633 40.4855C105.647 41.1443 105.168 41.6543 104.535 41.6555C103.935 41.6567 103.442 41.1635 103.426 40.5479C103.412 39.9479 103.907 39.4259 104.505 39.4103ZM104.933 41.1359C104.978 41.1119 105.022 41.0891 105.067 41.0651C104.785 40.6751 104.504 40.2863 104.228 39.9059C104.228 40.2959 104.228 40.7039 104.228 41.1131C104.255 41.1119 104.281 41.1095 104.307 41.1083C104.354 40.9355 104.401 40.7627 104.475 40.4927C104.67 40.7651 104.801 40.9511 104.933 41.1359Z" fill="#FFFFFF" fill-opacity="1.000000" fill-rule="nonzero"/>
		</g>
	</g>
</svg>
