<svg width="26.122437" height="32.107910" viewBox="0 0 26.1224 32.1079" fill="none" xmlns="http://www.w3.org/2000/svg" xmlns:xlink="http://www.w3.org/1999/xlink">
	<desc>
			Created with Pixso.
	</desc>
	<defs/>
	<path id="Apple logo" d="M19.4337 0C19.5764 1.86401 18.9869 3.71045 17.7904 5.14673C16.6444 6.57202 14.8466 7.42212 13.0179 7.40332C12.9012 5.61035 13.5183 3.79663 14.7042 2.44702C15.917 1.06567 17.6056 0.191895 19.4337 0ZM25.2928 10.9529C23.1812 12.251 21.8501 14.5962 21.8181 17.075C21.8211 19.875 23.5434 22.4705 26.1224 23.5613C25.6212 25.1897 24.8655 26.7288 23.8836 28.1211C22.5648 30.0938 21.1822 32.021 18.9876 32.0566C17.9439 32.0808 17.2393 31.7805 16.5052 31.4678C15.7394 31.1416 14.9415 30.8018 13.6928 30.8018C11.2241 30.8018 10.4603 32.021 8.4151 32.106C6.32513 32.1833 4.72787 30.0005 3.36118 28.0461C0.629578 24.0554 -1.49747 16.7996 1.35413 11.8623C2.68073 9.47852 5.22266 7.92822 7.94931 7.84009C9.13464 7.81592 10.2721 8.27271 11.2693 8.67334C12.0319 8.97949 12.7126 9.25293 13.2699 9.25293C13.7599 9.25293 14.4215 8.99023 15.1926 8.68433C16.4072 8.20215 17.8934 7.6123 19.408 7.77124C21.7294 7.84399 23.9607 9.05029 25.2928 10.9529Z" fill="#B2B2B2" fill-opacity="1.000000" fill-rule="evenodd"/>
</svg>
