<svg width="114.000000" height="41.000000" viewBox="0 0 114 41" fill="none" xmlns="http://www.w3.org/2000/svg" xmlns:xlink="http://www.w3.org/1999/xlink">
	<desc>
			Created with Pixso.
	</desc>
	<defs>
		<clipPath id="clip1_267">
			<rect width="114.000000" height="41.000000" fill="white" fill-opacity="0"/>
		</clipPath>
	</defs>
	<rect width="114.000000" height="41.000000" fill="#FFFFFF" fill-opacity="0"/>
	<g clip-path="url(#clip1_267)">
		<path d="M56.3 30.5L59.8 30.5L61.1001 26.7002L68 26.7002L69.3 30.5L72.9 30.5L66.7001 12.6001L62.5 12.6001L56.3 30.5ZM62 23.8L64.5 16.3L67 23.8L62 23.8Z" fill="#232E35" fill-opacity="1.000000" fill-rule="nonzero"/>
		<path d="M74.5 30.5L77.6 30.5L77.6 12.3L74.5 12.3L74.5 30.5Z" fill="#232E35" fill-opacity="1.000000" fill-rule="nonzero"/>
		<path d="M86.7999 30.8C88.1 30.8 89.2999 30.5 90.2999 29.8999C91.2999 29.3 92 28.5 92.4 27.5999L89.9 26.3999C89.6 26.8999 89.2 27.3 88.7 27.5999C88.2 27.8999 87.6 28.0999 86.9 28.0999C86 28.0999 85.2 27.8 84.5 27.2C83.7999 26.5999 83.5 25.8999 83.4 24.8999L92.7999 24.8999C92.9 24.7 92.9 24.5 92.9 24.3C92.9 24.0999 92.9 23.8 92.9 23.5999C92.9 22.3999 92.7 21.3999 92.2 20.3999C91.7 19.3999 91 18.7 90 18.0999C89.1 17.5 87.9 17.2 86.5 17.2C85.2999 17.2 84.2 17.5 83.2 18.0999C82.2 18.7 81.4 19.5 80.9 20.5C80.2999 21.5 80.1 22.7 80.1 24C80.1 25.3 80.4 26.3999 80.9 27.5C81.5 28.5 82.2 29.3999 83.2999 30C84.2999 30.5 85.4 30.8 86.7999 30.8ZM86.5 19.7C87.2999 19.7 88 20 88.6 20.5C89.2 21 89.5 21.5999 89.5 22.3999L83.4 22.3999C83.6 21.5 83.9 20.8999 84.5 20.3999C85.1 20 85.7999 19.7 86.5 19.7Z" fill="#232E35" fill-opacity="1.000000" fill-rule="nonzero"/>
		<path d="M93.9 30.5L97.6 30.5L100.3 26.3999L103 30.5L106.7 30.5L102.2 23.8999L106.8 17.3999L103.1 17.3999L100.4 21.5L97.6 17.3999L93.9 17.3999L98.5 23.8999L93.9 30.5Z" fill="#232E35" fill-opacity="1.000000" fill-rule="nonzero"/>
		<path d="M109.9 30.5L113.1 30.5L113.1 27.1001L109.9 27.1001L109.9 30.5Z" fill="#232E35" fill-opacity="1.000000" fill-rule="nonzero"/>
		<path d="M20 0.5C9 0.5 0 9.5 0 20.5C0 31.5 9 40.5 20 40.5C31 40.5 40 31.5 40 20.5C40 9.5 31 0.5 20 0.5ZM11.8 28C9.59998 28 7.80005 26.2 7.80005 24C7.80005 21.8 9.59998 20 11.8 20C14 20 15.8 21.8 15.8 24C15.8 26.2 14 28 11.8 28ZM28.5 26.8999C26.7 28 24.3 27.3 23.2 25.5L17.6 15.8C16.5 14 17.2 11.6001 19 10.5C20.8 9.3999 23.2 10.1001 24.3 11.8999L29.9 21.6001C31 23.5 30.3 25.8999 28.5 26.8999Z" fill="#232E35" fill-opacity="1.000000" fill-rule="nonzero"/>
	</g>
</svg>
