<svg width="41.000000" height="35.000000" viewBox="0 0 41 35" fill="none" xmlns="http://www.w3.org/2000/svg" xmlns:xlink="http://www.w3.org/1999/xlink">
	<desc>
			Created with Pixso.
	</desc>
	<defs/>
	<path id="Vector (Border)" d="M33.63 2.25C34.07 2.08 34.51 1.89 34.94 1.68C35.72 1.31 36.46 0.87 37.18 0.36C37.41 0.19 37.67 0.08 37.96 0.03C38.24 -0.02 38.52 -0.02 38.8 0.05C39.34 0.18 39.75 0.48 40.04 0.96C40.32 1.43 40.4 1.93 40.27 2.47C39.94 3.84 39.44 5.11 38.77 6.29C38.27 7.18 37.66 8.02 36.97 8.8C36.99 9.03 36.99 9.26 37 9.5C37 15.56 35.55 20.58 32.67 24.55C30.73 27.23 28.14 29.43 24.89 31.16C21.68 32.87 18.42 33.83 15.12 34.04C10.41 34.35 5.6 33.14 0.69 30.41C0.36 30.23 0.1 29.97 -0.08 29.64C-0.27 29.31 -0.35 28.96 -0.34 28.58C-0.31 28.03 -0.1 27.57 0.3 27.19C0.71 26.82 1.19 26.64 1.74 26.66C3.65 26.74 5.48 26.53 7.22 26.03C7.87 25.84 8.52 25.62 9.15 25.35C6.73 23.78 4.89 21.89 3.62 19.67C2.36 17.46 1.67 14.94 1.54 12.09C1.39 8.87 1.88 5.91 3.01 3.22C3.06 3.1 3.11 2.97 3.17 2.85C3.24 2.68 3.34 2.53 3.45 2.39C3.57 2.25 3.7 2.13 3.85 2.03C4.3 1.71 4.8 1.6 5.34 1.69C5.88 1.79 6.31 2.06 6.63 2.51C7.39 3.59 8.25 4.55 9.22 5.39C10.19 6.23 11.27 6.94 12.45 7.53C13.63 8.13 14.84 8.56 16.09 8.84C16.72 8.98 17.35 9.09 18 9.15C18.02 8.31 18.15 7.5 18.38 6.72C18.66 5.81 19.07 4.95 19.63 4.13C20.19 3.31 20.84 2.6 21.58 2.01C22.32 1.43 23.16 0.95 24.09 0.6C25.01 0.25 25.95 0.04 26.9 -0.02C27.84 -0.07 28.8 0.02 29.76 0.26C30.72 0.5 31.61 0.87 32.42 1.37C32.84 1.63 33.24 1.92 33.63 2.25ZM30.32 4.78C30.79 5.07 31.21 5.42 31.59 5.86C31.84 6.15 32.16 6.36 32.54 6.47C32.92 6.58 33.3 6.57 33.67 6.46C33.6 6.54 33.53 6.61 33.46 6.69C33.22 6.92 33.05 7.2 32.95 7.52C32.85 7.84 32.83 8.16 32.9 8.49C32.95 8.78 32.99 9.08 32.99 9.37C32.99 9.41 32.99 9.45 33 9.5C33 14.77 31.73 19.09 29.2 22.45C27.62 24.54 25.56 26.27 23.01 27.63C20.44 29 17.81 29.79 15.14 30C13.24 30.15 11.3 30 9.35 29.56C11.12 28.95 12.82 28.09 14.45 26.98C14.61 26.88 14.74 26.75 14.86 26.61C14.98 26.47 15.08 26.31 15.16 26.14C15.38 25.64 15.39 25.13 15.2 24.61C15 24.1 14.65 23.73 14.14 23.5C10.76 22 8.38 19.96 6.99 17.39C6.11 15.77 5.63 13.94 5.53 11.9C5.47 10.42 5.56 9.02 5.82 7.7C6.07 7.94 6.34 8.18 6.61 8.42C7.82 9.47 9.17 10.36 10.65 11.11C12.13 11.85 13.65 12.4 15.22 12.75C16.78 13.1 18.39 13.25 20.05 13.21C20.59 13.2 21.05 13 21.43 12.61C21.81 12.22 22 11.75 22 11.21L21.99 9.52C21.99 8.94 22.06 8.4 22.22 7.87C22.38 7.35 22.62 6.85 22.94 6.37C23.26 5.9 23.64 5.49 24.06 5.15C24.49 4.81 24.98 4.54 25.51 4.34C26.05 4.13 26.59 4.01 27.13 3.98C27.68 3.95 28.23 4 28.79 4.14C29.34 4.28 29.86 4.49 30.32 4.78Z" fill="#000000" fill-opacity="1.000000" fill-rule="evenodd"/>
</svg>
