<svg width="14.295006" height="13.500977" viewBox="0 0 14.295 13.501" fill="none" xmlns="http://www.w3.org/2000/svg" xmlns:xlink="http://www.w3.org/1999/xlink">
	<desc>
			Created with Pixso.
	</desc>
	<defs/>
	<path id="Vector" d="M3.00001 1.50098C2.99981 1.89844 2.84158 2.27979 2.56013 2.56104C2.27868 2.84229 1.89707 3 1.49924 3C1.10143 3 0.719971 2.8418 0.438812 2.56006C0.157646 2.27881 -0.000198364 1.89697 0 1.49902C0.000198364 1.10156 0.158424 0.720215 0.439873 0.438965C0.721313 0.157715 1.10293 0 1.50076 0C1.89858 0 2.28002 0.158203 2.5612 0.439941C2.84235 0.721191 3.00021 1.10303 3.00001 1.50098ZM3.04501 4.11084L0.0449982 4.11084L0.0449982 13.501L3.04501 13.501L3.04501 4.11084ZM7.785 4.11084L4.8 4.11084L4.8 13.501L7.755 13.501L7.755 8.57324C7.755 5.82812 11.3325 5.57324 11.3325 8.57324L11.3325 13.501L14.295 13.501L14.295 7.55322C14.295 2.92578 9.00001 3.09814 7.755 5.37061L7.785 4.11084Z" fill="#75757F" fill-opacity="1.000000" fill-rule="nonzero"/>
</svg>
