<svg width="14.000000" height="12.000000" viewBox="0 0 14 12" fill="none" xmlns="http://www.w3.org/2000/svg" xmlns:xlink="http://www.w3.org/1999/xlink">
	<desc>
			Created with Pixso.
	</desc>
	<defs/>
	<path id="Vector" d="M12.359 1.90088C12.9874 1.49316 13.4035 0.937012 13.6072 0.229492C12.9959 0.571777 12.387 0.807129 11.7788 0.937012C11.232 0.31543 10.5399 0 9.71002 0C8.89883 0 8.21365 0.300781 7.65446 0.885742C7.09839 1.4751 6.81763 2.19092 6.81763 3.02686C6.81763 3.28076 6.84795 3.50781 6.90862 3.7002C4.5163 3.61377 2.53619 2.56494 0.976059 0.546387C0.711624 1.04053 0.579407 1.54346 0.579407 2.06348C0.579407 3.13281 1.00639 3.98047 1.85878 4.60254C1.3727 4.55908 0.944168 4.4292 0.579407 4.21631C0.579407 4.97949 0.791733 5.61719 1.21715 6.17871C1.64413 6.73438 2.19243 7.08838 2.86206 7.23975C2.61942 7.30566 2.36354 7.33691 2.10066 7.33691C1.858 7.33691 1.68613 7.31543 1.58424 7.26855C1.76312 7.89062 2.10066 8.39551 2.5883 8.78174C3.07439 9.16943 3.63358 9.37402 4.26198 9.39209C3.22604 10.251 2.04155 10.6758 0.701523 10.6758C0.373306 10.6758 0.140778 10.6709 0 10.6445C1.31981 11.5503 2.78896 12 4.41443 12C6.078 12 7.54791 11.5547 8.82729 10.6636C10.1067 9.77783 11.0508 8.68457 11.6575 7.39746C12.2672 6.1123 12.569 4.77441 12.569 3.37695L12.569 2.99219C13.1585 2.52393 13.6352 1.99609 14 1.41357C13.4711 1.6543 12.9244 1.81787 12.359 1.90088Z" fill="#75757F" fill-opacity="1.000000" fill-rule="nonzero"/>
</svg>
