<svg width="16.000000" height="12.000000" viewBox="0 0 16 12" fill="none" xmlns="http://www.w3.org/2000/svg" xmlns:xlink="http://www.w3.org/1999/xlink">
	<desc>
			Created with Pixso.
	</desc>
	<defs/>
	<path id="Vector" d="M15.6656 1.87744C15.4817 1.13867 14.9395 0.556641 14.2511 0.358887C13.0034 0 8 0 8 0C8 0 2.99667 0 1.7489 0.358887C1.06052 0.556641 0.518341 1.13867 0.334351 1.87744C0 3.21729 0 6.01221 0 6.01221C0 6.01221 0 8.80713 0.334351 10.1465C0.518341 10.8857 1.06052 11.4434 1.7489 11.6411C2.99667 12 8 12 8 12C8 12 13.0033 12 14.2511 11.6411C14.9395 11.4434 15.4817 10.8857 15.6656 10.1465C16 8.80713 16 6.01221 16 6.01221C16 6.01221 16 3.21729 15.6656 1.87744ZM6.36362 8.5498L6.36362 3.47461L10.5454 6.01221L6.36362 8.5498Z" fill="#75757F" fill-opacity="1.000000" fill-rule="nonzero"/>
</svg>
