<svg width="38.760223" height="38.760254" viewBox="0 0 38.7602 38.7603" fill="none" xmlns="http://www.w3.org/2000/svg" xmlns:xlink="http://www.w3.org/1999/xlink">
	<desc>
			Created with Pixso.
	</desc>
	<defs/>
	<path id="Vector (Граница)" d="M10.782 33.7186C12.8444 34.5729 15.0837 35 17.5 35C19.9162 35 22.1555 34.5729 24.218 33.7186C26.2803 32.8643 28.1658 31.5829 29.8744 29.8744C31.5829 28.1658 32.8643 26.2804 33.7186 24.218C34.5728 22.1556 35 19.9163 35 17.5C35 15.0837 34.5729 12.8444 33.7186 10.782C32.8643 8.71967 31.5829 6.83417 29.8744 5.12561C28.1658 3.41711 26.2804 2.13568 24.218 1.28143C22.1556 0.427124 19.9163 0 17.5 0C15.0837 0 12.8444 0.427124 10.782 1.28143C8.71964 2.13568 6.83417 3.41711 5.12564 5.12561C3.41708 6.83417 2.13568 8.71967 1.2814 10.782C0.427124 12.8444 0 15.0837 0 17.5C0 19.9163 0.427124 22.1556 1.2814 24.218C2.13568 26.2803 3.41708 28.1658 5.12564 29.8744C6.83417 31.5829 8.71964 32.8643 10.782 33.7186ZM22.2986 29.0847C20.8254 29.6949 19.2259 30 17.5 30C15.7741 30 14.1746 29.6949 12.7014 29.0847C11.2283 28.4745 9.88156 27.5592 8.66116 26.3388C7.44077 25.1185 6.52548 23.7717 5.91528 22.2985C5.30508 20.8254 5 19.2259 5 17.5C5 15.7741 5.30508 14.1746 5.91528 12.7015C6.52548 11.2283 7.44077 9.88153 8.66116 8.66119C9.88156 7.4408 11.2283 6.52551 12.7014 5.91528C14.1746 5.30511 15.7741 5 17.5 5C19.2259 5 20.8254 5.30511 22.2986 5.91528C23.7717 6.52551 25.1184 7.4408 26.3388 8.66119C27.5592 9.88153 28.4745 11.2283 29.0847 12.7015C29.6949 14.1746 30 15.7741 30 17.5C30 19.2259 29.6949 20.8254 29.0847 22.2985C28.4745 23.7717 27.5592 25.1185 26.3388 26.3388C25.1184 27.5592 23.7717 28.4745 22.2986 29.0847Z" fill="#FFFFFF" fill-opacity="1.000000" fill-rule="evenodd"/>
	<path id="Vector (Граница)" d="M29.8615 26.3259C28.8716 25.336 27.3159 25.336 26.326 26.3259C25.336 27.3159 25.336 28.8715 26.326 29.8615L34.4822 38.0178C35.4722 39.0077 37.0278 39.0077 38.0178 38.0178C39.0077 37.0278 39.0077 35.4722 38.0178 34.4822L29.8615 26.3259Z" fill="#FFFFFF" fill-opacity="1.000000" fill-rule="evenodd"/>
</svg>
