<svg width="38.750065" height="38.757385" viewBox="0 0 38.7501 38.7574" fill="none" xmlns="http://www.w3.org/2000/svg" xmlns:xlink="http://www.w3.org/1999/xlink">
	<desc>
			Created with Pixso.
	</desc>
	<defs/>
	<path id="Vector (Граница)" d="M36.794 26.6897C37.4564 25.3765 37.9549 24.0144 38.28 22.6224C38.5971 21.265 38.7537 19.87 38.75 18.4376L38.75 17.5001C38.7494 17.4774 38.7475 17.385 38.7462 17.3624C38.617 15.0212 38.1057 12.8509 37.2121 10.8514C36.3186 8.85181 35.0428 7.02307 33.3849 5.36517C31.727 3.70721 29.8982 2.43146 27.8987 1.5379C25.8992 0.644348 23.7288 0.132996 21.3877 0.00384521C21.3651 0.00323486 21.2726 6.10352e-05 21.25 6.10352e-05L20.319 6.10352e-05C18.8318 -0.00378418 17.3863 0.164246 15.9824 0.504333C14.6402 0.829468 13.336 1.31177 12.0699 1.95129C10.5084 2.73169 9.10786 3.68811 7.8681 4.82056C6.62836 5.95306 5.54944 7.2616 4.63134 8.74615C3.70672 10.2413 3.01472 11.8021 2.55535 13.4286C2.10246 15.0323 1.87568 16.6997 1.87501 18.431C1.87122 19.8856 2.03232 21.3011 2.35832 22.6776C2.60373 23.7137 2.94259 24.7278 3.3749 25.7197L0.128292 35.4595C0.0427647 35.7161 0 35.9796 0 36.2501C0 36.5205 0.0427647 36.7841 0.128292 37.0406C0.346601 37.6956 0.764492 38.1774 1.38197 38.4861C1.99944 38.7949 2.63564 38.8401 3.29057 38.6218L13.0303 35.3752C14.0375 35.8142 15.0672 36.1569 16.1195 36.4031C17.4798 36.7215 18.8778 36.8788 20.3135 36.8751C22.0589 36.8744 23.7391 36.6443 25.3541 36.1851C26.9693 35.7256 28.5192 35.0369 30.0039 34.1187C31.4885 33.2006 32.7971 32.1216 33.9296 30.8819C35.0597 29.6447 36.0145 28.2473 36.794 26.6897ZM33.3858 21.58C33.1493 22.5596 32.7977 23.5114 32.331 24.4354C31.7623 25.5734 31.0605 26.6036 30.2351 27.5071C29.4097 28.4107 28.4561 29.1971 27.3741 29.8662C26.292 30.5353 25.1624 31.0374 23.9853 31.3721C22.8083 31.7069 21.5837 31.8746 20.3115 31.8751C19.2374 31.8779 18.193 31.7571 17.1783 31.5129C16.1959 31.2764 15.2413 30.9241 14.3146 30.4561C14.0171 30.3058 13.7022 30.2185 13.3698 30.1942C13.0374 30.1699 12.7131 30.2104 12.3969 30.3159L6.45285 32.2972L8.43421 26.3531C8.5396 26.0369 8.58015 25.7126 8.55585 25.3802C8.53154 25.0479 8.44426 24.7329 8.29399 24.4354C7.81824 23.4935 7.46211 22.5233 7.22561 21.5247C6.98911 20.5262 6.87224 19.4993 6.87499 18.4441C6.87549 17.1577 7.04642 15.9201 7.38779 14.7316C7.72256 13.566 8.22125 12.4474 8.88386 11.376C9.55299 10.294 10.3393 9.34033 11.2429 8.51495C12.1464 7.68958 13.1672 6.99255 14.3051 6.42383C15.2793 5.93176 16.2828 5.56726 17.3156 5.33026C18.2865 5.10742 19.2833 4.99738 20.306 5.00006L21.1785 5.00006C22.8582 5.10004 24.4167 5.47113 25.854 6.11346C27.3102 6.76422 28.642 7.6933 29.8494 8.9007C31.0568 10.1081 31.9859 11.4399 32.6366 12.8961C33.2789 14.3334 33.65 15.8919 33.75 17.5716L33.75 18.4376C33.7528 19.515 33.6314 20.5625 33.3858 21.58Z" fill="#FFFFFF" fill-opacity="1.000000" fill-rule="evenodd"/>
</svg>
