<svg width="192.375000" height="57.000000" viewBox="0 0 192.375 57" fill="none" xmlns="http://www.w3.org/2000/svg" xmlns:xlink="http://www.w3.org/1999/xlink">
	<desc>
			Created with Pixso.
	</desc>
	<defs>
		<filter id="filter_72_11_dd" x="14.211548" y="10.175781" width="32.902893" height="36.652100" filterUnits="userSpaceOnUse" color-interpolation-filters="sRGB">
			<feFlood flood-opacity="0" result="BackgroundImageFix"/>
			<feBlend mode="normal" in="SourceGraphic" in2="BackgroundImageFix" result="shape"/>
			<feColorMatrix in="SourceAlpha" type="matrix" values="0 0 0 0 0 0 0 0 0 0 0 0 0 0 0 0 0 0 127 0" result="hardAlpha"/>
			<feOffset dx="0" dy="-0.15"/>
			<feGaussianBlur stdDeviation="0"/>
			<feComposite in2="hardAlpha" operator="arithmetic" k2="-1" k3="1"/>
			<feColorMatrix type="matrix" values="0 0 0 0 0 0 0 0 0 0 0 0 0 0 0 0 0 0 0.12 0"/>
			<feBlend mode="normal" in2="shape" result="effect_innerShadow_1"/>
			<feColorMatrix in="SourceAlpha" type="matrix" values="0 0 0 0 0 0 0 0 0 0 0 0 0 0 0 0 0 0 127 0" result="hardAlpha"/>
			<feOffset dx="0" dy="0.15"/>
			<feGaussianBlur stdDeviation="0"/>
			<feComposite in2="hardAlpha" operator="arithmetic" k2="-1" k3="1"/>
			<feColorMatrix type="matrix" values="0 0 0 0 1 0 0 0 0 1 0 0 0 0 1 0 0 0 0.25 0"/>
			<feBlend mode="normal" in2="effect_innerShadow_1" result="effect_innerShadow_2"/>
		</filter>
		<filter id="filter_72_9_dd" x="14.871338" y="28.501465" width="23.777527" height="18.326416" filterUnits="userSpaceOnUse" color-interpolation-filters="sRGB">
			<feFlood flood-opacity="0" result="BackgroundImageFix"/>
			<feBlend mode="normal" in="SourceGraphic" in2="BackgroundImageFix" result="shape"/>
			<feColorMatrix in="SourceAlpha" type="matrix" values="0 0 0 0 0 0 0 0 0 0 0 0 0 0 0 0 0 0 127 0" result="hardAlpha"/>
			<feOffset dx="0" dy="-0.15"/>
			<feGaussianBlur stdDeviation="0"/>
			<feComposite in2="hardAlpha" operator="arithmetic" k2="-1" k3="1"/>
			<feColorMatrix type="matrix" values="0 0 0 0 0 0 0 0 0 0 0 0 0 0 0 0 0 0 0.078 0"/>
			<feBlend mode="normal" in2="shape" result="effect_innerShadow_1"/>
		</filter>
		<clipPath id="clip2_299">
			<rect id="Mobile app store badge" rx="5.000000" width="192.375000" height="57.000000" fill="white" fill-opacity="0"/>
		</clipPath>
		<linearGradient id="paint_linear_72_7_0" x1="31.066158" y1="12.410408" x2="7.151819" y2="36.324768" gradientUnits="userSpaceOnUse">
			<stop stop-color="#00A0FF"/>
			<stop offset="0.006600" stop-color="#00A1FF"/>
			<stop offset="0.260100" stop-color="#00BEFF"/>
			<stop offset="0.512200" stop-color="#00D2FF"/>
			<stop offset="0.760400" stop-color="#00DFFF"/>
			<stop offset="1.000000" stop-color="#00E3FF"/>
		</linearGradient>
		<linearGradient id="paint_linear_72_8_0" x1="48.212765" y1="28.501505" x2="13.733612" y2="28.501505" gradientUnits="userSpaceOnUse">
			<stop stop-color="#FFE000"/>
			<stop offset="0.408700" stop-color="#FFBD00"/>
			<stop offset="0.775400" stop-color="#FFA500"/>
			<stop offset="1.000000" stop-color="#FF9C00"/>
		</linearGradient>
		<linearGradient id="paint_linear_72_9_0" x1="35.380081" y1="31.770279" x2="2.949223" y2="64.201141" gradientUnits="userSpaceOnUse">
			<stop stop-color="#FF3A44"/>
			<stop offset="1.000000" stop-color="#C31162"/>
		</linearGradient>
		<linearGradient id="paint_linear_72_10_0" x1="10.398831" y1="0.251904" x2="24.880116" y2="14.733182" gradientUnits="userSpaceOnUse">
			<stop stop-color="#32A071"/>
			<stop offset="0.068500" stop-color="#2DA771"/>
			<stop offset="0.476200" stop-color="#15CF74"/>
			<stop offset="0.800900" stop-color="#06E775"/>
			<stop offset="1.000000" stop-color="#00F076"/>
		</linearGradient>
	</defs>
	<rect id="Mobile app store badge" rx="5.000000" width="192.375000" height="57.000000" fill="#000000" fill-opacity="1.000000"/>
	<g clip-path="url(#clip2_299)">
		<path id="Google Play" d="M97.0938 30.9951C93.7422 30.9951 91.0105 33.5444 91.0105 37.0557C91.0105 40.5457 93.7422 43.1162 97.0938 43.1162C100.447 43.1162 103.179 40.5457 103.179 37.0557C103.177 33.5444 100.445 30.9951 97.0938 30.9951ZM97.0938 40.7307C95.257 40.7307 93.6738 39.2161 93.6738 37.0571C93.6738 34.8755 95.2584 33.3835 97.0938 33.3835C98.9306 33.3835 100.514 34.8755 100.514 37.0571C100.514 39.2146 98.9306 40.7307 97.0938 40.7307ZM83.8214 30.9951C80.4698 30.9951 77.738 33.5444 77.738 37.0557C77.738 40.5457 80.4698 43.1162 83.8214 43.1162C87.1744 43.1162 89.9061 40.5457 89.9061 37.0557C89.9061 33.5444 87.1744 30.9951 83.8214 30.9951ZM83.8214 40.7307C81.9845 40.7307 80.4014 39.2161 80.4014 37.0571C80.4014 34.8755 81.986 33.3835 83.8214 33.3835C85.6582 33.3835 87.2414 34.8755 87.2414 37.0571C87.2428 39.2146 85.6582 40.7307 83.8214 40.7307ZM68.0352 32.8562L68.0352 35.427L74.1884 35.427C74.0045 36.8733 73.5229 37.9292 72.7876 38.6631C71.8927 39.5581 70.4919 40.5457 68.0352 40.5457C64.2476 40.5457 61.2864 37.4917 61.2864 33.7041C61.2864 29.9165 64.2476 26.8628 68.0352 26.8628C70.0787 26.8628 71.5706 27.6665 72.6722 28.6995L74.4862 26.8855C72.9472 25.4163 70.9052 24.292 68.0352 24.292C62.8468 24.292 58.4849 28.5156 58.4849 33.7041C58.4849 38.8926 62.8468 43.1162 68.0352 43.1162C70.8353 43.1162 72.9486 42.197 74.6002 40.4758C76.2988 38.7771 76.8275 36.3889 76.8275 34.4607C76.8275 33.8652 76.7819 33.3137 76.6892 32.8547L68.0352 32.8547L68.0352 32.8562ZM132.599 34.8528C132.095 33.499 130.556 30.9951 127.411 30.9951C124.289 30.9951 121.694 33.4519 121.694 37.0557C121.694 40.4529 124.266 43.1162 127.708 43.1162C130.486 43.1162 132.093 41.4177 132.76 40.4302L130.694 39.0522C130.006 40.0625 129.064 40.728 127.708 40.728C126.355 40.728 125.39 40.1082 124.77 38.8911L132.874 35.5396L132.599 34.8528ZM124.334 36.8733C124.266 34.5305 126.148 33.3379 127.503 33.3379C128.559 33.3379 129.454 33.8665 129.753 34.6233L124.334 36.8733ZM117.746 42.75L120.408 42.75L120.408 24.936L117.746 24.936L117.746 42.75ZM113.383 32.3503L113.292 32.3503C112.695 31.6379 111.546 30.9951 110.101 30.9951C107.07 30.9951 104.293 33.6584 104.293 37.0798C104.293 40.4771 107.07 43.1177 110.101 43.1177C111.548 43.1177 112.695 42.4751 113.292 41.7412L113.383 41.7412L113.383 42.6133C113.383 44.9316 112.143 46.1714 110.147 46.1714C108.517 46.1714 107.506 45.0015 107.093 44.0139L104.775 44.9788C105.44 46.5847 107.207 48.5598 110.147 48.5598C113.269 48.5598 115.91 46.7229 115.91 42.2456L115.91 31.3643L113.384 31.3643L113.384 32.3503L113.383 32.3503ZM110.331 40.7307C108.494 40.7307 106.956 39.1919 106.956 37.0798C106.956 34.9438 108.494 33.3835 110.331 33.3835C112.143 33.3835 113.567 34.9438 113.567 37.0798C113.567 39.1919 112.143 40.7307 110.331 40.7307ZM145.074 24.936L138.702 24.936L138.702 42.75L141.36 42.75L141.36 36.0012L145.072 36.0012C148.019 36.0012 150.917 33.8679 150.917 30.4695C150.917 27.0708 148.02 24.936 145.074 24.936ZM145.142 33.5217L141.36 33.5217L141.36 27.4155L145.142 27.4155C147.13 27.4155 148.258 29.0615 148.258 30.4695C148.258 31.8489 147.13 33.5217 145.142 33.5217ZM161.575 30.9639C159.65 30.9639 157.656 31.8118 156.831 33.6914L159.191 34.676C159.695 33.6914 160.636 33.3691 161.621 33.3691C162.996 33.3691 164.394 34.1943 164.417 35.6606L164.417 35.8445C163.935 35.5693 162.903 35.1577 161.643 35.1577C159.1 35.1577 156.509 36.5557 156.509 39.1675C156.509 41.5515 158.595 43.0864 160.932 43.0864C162.719 43.0864 163.705 42.2839 164.324 41.3435L164.415 41.3435L164.415 42.7188L166.983 42.7188L166.983 35.8887C166.984 32.728 164.622 30.9639 161.575 30.9639ZM161.253 40.7266C160.384 40.7266 159.168 40.2905 159.168 39.2131C159.168 37.8381 160.682 37.3108 161.988 37.3108C163.155 37.3108 163.707 37.563 164.417 37.9065C164.21 39.5581 162.789 40.7266 161.253 40.7266ZM176.334 31.3528L173.286 39.0764L173.194 39.0764L170.031 31.3528L167.167 31.3528L171.911 42.1472L169.206 48.1521L171.979 48.1521L179.291 31.3528L176.334 31.3528ZM152.385 42.75L155.043 42.75L155.043 24.936L152.385 24.936L152.385 42.75Z" fill="#FFFFFF" fill-opacity="1.000000" fill-rule="nonzero"/>
		<path id="Get it on" d="M104.893 17.4207C104.052 18.2842 103.007 18.7161 101.758 18.7161C100.508 18.7161 99.4634 18.2842 98.6241 17.4207C97.7834 16.5571 97.3644 15.4998 97.3644 14.25C97.3644 13.0002 97.7834 11.9431 98.6241 11.0793C99.4634 10.2158 100.508 9.78271 101.758 9.78271C103 9.78271 104.043 10.2173 104.887 11.0852C105.731 11.9529 106.152 13.0076 106.152 14.25C106.152 15.4998 105.732 16.5571 104.893 17.4207ZM67.5707 14.5962C67.5707 15.7905 67.2173 16.741 66.509 17.4507C65.7054 18.2942 64.6566 18.7161 63.3683 18.7161C62.1343 18.7161 61.0841 18.2886 60.222 17.4333C59.3584 16.5771 58.9266 15.5168 58.9266 14.2515C58.9266 12.9846 59.3584 11.9243 60.222 11.0693C61.0841 10.2129 62.1343 9.7854 63.3683 9.7854C63.9811 9.7854 64.5668 9.90527 65.1226 10.1431C65.6797 10.3826 66.1257 10.7004 66.4592 11.0979L65.7082 11.8503C65.1425 11.1733 64.363 10.8357 63.3669 10.8357C62.4663 10.8357 61.6883 11.1521 61.0314 11.7847C60.3745 12.4175 60.0467 13.2397 60.0467 14.25C60.0467 15.2603 60.3745 16.0825 61.0314 16.7153C61.6883 17.3479 62.4663 17.6643 63.3669 17.6643C64.3217 17.6643 65.1183 17.3464 65.7552 16.7095C66.1685 16.2949 66.4079 15.7178 66.472 14.9783L63.3669 14.9783L63.3669 13.9507L67.5094 13.9507C67.5522 14.1746 67.5707 14.3896 67.5707 14.5962ZM74.1401 11.0254L70.2469 11.0254L70.2469 13.7356L73.7582 13.7356L73.7582 14.7632L70.2469 14.7632L70.2469 17.4734L74.1401 17.4734L74.1401 18.5251L69.1483 18.5251L69.1483 9.9751L74.1401 9.9751L74.1401 11.0254ZM78.7726 18.5251L77.6739 18.5251L77.6739 11.0254L75.2856 11.0254L75.2856 9.9751L81.1609 9.9751L81.1609 11.0254L78.7726 11.0254L78.7726 18.5251ZM85.4116 18.5251L85.4116 9.9751L86.5103 9.9751L86.5103 18.5251L85.4116 18.5251ZM91.3826 18.5251L90.2839 18.5251L90.2839 11.0254L87.8956 11.0254L87.8956 9.9751L93.7709 9.9751L93.7709 11.0254L91.3826 11.0254L91.3826 18.5251ZM107.694 18.5251L107.694 9.9751L109.031 9.9751L113.186 16.6255L113.233 16.6255L113.186 14.9783L113.186 9.9751L114.285 9.9751L114.285 18.5251L113.138 18.5251L108.79 11.5513L108.743 11.5513L108.79 13.1985L108.79 18.5251L107.694 18.5251ZM99.4349 16.7039C100.068 17.3452 100.841 17.6643 101.758 17.6643C102.674 17.6643 103.449 17.3438 104.08 16.7039C104.713 16.0627 105.031 15.2446 105.031 14.25C105.031 13.2554 104.713 12.4375 104.08 11.7961C103.449 11.155 102.674 10.8357 101.758 10.8357C100.841 10.8357 100.068 11.1565 99.4349 11.7961C98.8036 12.4375 98.4859 13.2554 98.4859 14.25C98.4859 15.2446 98.8036 16.0627 99.4349 16.7039Z" fill="#FFFFFF" fill-opacity="1.000000" fill-rule="evenodd"/>
		<path id="Get it on" d="M66.509 17.4507C65.7054 18.2942 64.6566 18.7161 63.3683 18.7161C62.1343 18.7161 61.0841 18.2886 60.222 17.4333C59.3584 16.5771 58.9266 15.5168 58.9266 14.2515C58.9266 12.9846 59.3584 11.9243 60.222 11.0693C61.0841 10.2129 62.1343 9.7854 63.3683 9.7854C63.9811 9.7854 64.5668 9.90527 65.1226 10.1431C65.6797 10.3826 66.1257 10.7004 66.4592 11.0979L65.7082 11.8503C65.1425 11.1733 64.363 10.8357 63.3669 10.8357C62.4663 10.8357 61.6883 11.1521 61.0314 11.7847C60.3745 12.4175 60.0467 13.2397 60.0467 14.25C60.0467 15.2603 60.3745 16.0825 61.0314 16.7153C61.6883 17.3479 62.4663 17.6643 63.3669 17.6643C64.3217 17.6643 65.1183 17.3464 65.7552 16.7095C66.1685 16.2949 66.4079 15.7178 66.472 14.9783L63.3669 14.9783L63.3669 13.9507L67.5094 13.9507C67.5522 14.1746 67.5707 14.3896 67.5707 14.5962C67.5707 15.7905 67.2173 16.741 66.509 17.4507ZM70.2469 11.0254L70.2469 13.7356L73.7582 13.7356L73.7582 14.7632L70.2469 14.7632L70.2469 17.4734L74.1401 17.4734L74.1401 18.5251L69.1483 18.5251L69.1483 9.9751L74.1401 9.9751L74.1401 11.0254L70.2469 11.0254ZM77.6739 18.5251L77.6739 11.0254L75.2856 11.0254L75.2856 9.9751L81.1609 9.9751L81.1609 11.0254L78.7726 11.0254L78.7726 18.5251L77.6739 18.5251ZM85.4116 9.9751L86.5103 9.9751L86.5103 18.5251L85.4116 18.5251L85.4116 9.9751ZM90.2839 18.5251L90.2839 11.0254L87.8956 11.0254L87.8956 9.9751L93.7709 9.9751L93.7709 11.0254L91.3826 11.0254L91.3826 18.5251L90.2839 18.5251ZM101.758 18.7161C100.508 18.7161 99.4634 18.2842 98.6241 17.4207C97.7834 16.5571 97.3644 15.4998 97.3644 14.25C97.3644 13.0002 97.7834 11.9431 98.6241 11.0793C99.4634 10.2158 100.508 9.78271 101.758 9.78271C103 9.78271 104.043 10.2173 104.887 11.0852C105.731 11.9529 106.152 13.0076 106.152 14.25C106.152 15.4998 105.732 16.5571 104.893 17.4207C104.052 18.2842 103.007 18.7161 101.758 18.7161ZM101.758 17.6643C102.674 17.6643 103.449 17.3438 104.08 16.7039C104.713 16.0627 105.031 15.2446 105.031 14.25C105.031 13.2554 104.713 12.4375 104.08 11.7961C103.449 11.155 102.674 10.8357 101.758 10.8357C100.841 10.8357 100.068 11.1565 99.4349 11.7961C98.8036 12.4375 98.4859 13.2554 98.4859 14.25C98.4859 15.2446 98.8036 16.0627 99.4349 16.7039C100.068 17.3452 100.841 17.6643 101.758 17.6643ZM107.694 9.9751L109.031 9.9751L113.186 16.6255L113.233 16.6255L113.186 14.9783L113.186 9.9751L114.285 9.9751L114.285 18.5251L113.138 18.5251L108.79 11.5513L108.743 11.5513L108.79 13.1985L108.79 18.5251L107.694 18.5251L107.694 9.9751Z" stroke="#FFFFFF" stroke-opacity="1.000000" stroke-width="0.200000"/>
		<g filter="url(#filter_72_11_dd)">
			<path id="Vector" d="M14.8713 10.7417C14.4567 11.1807 14.2115 11.8618 14.2115 12.7439L14.2115 44.259C14.2115 45.1426 14.4567 45.8223 14.8713 46.2612L14.9767 46.3638L32.6311 28.7095L32.6311 28.5015L32.6311 28.2935L14.9767 10.6377L14.8713 10.7417Z" fill="url(#paint_linear_72_7_0)" fill-opacity="1.000000" fill-rule="nonzero"/>
			<path id="Vector" d="M38.515 34.5962L32.6311 28.7095L32.6311 28.5015L32.6311 28.2935L38.5164 22.4082L38.6489 22.4836L45.6214 26.4453C47.6121 27.5767 47.6121 29.4277 45.6214 30.5605L38.6489 34.5222L38.515 34.5962Z" fill="url(#paint_linear_72_8_0)" fill-opacity="1.000000" fill-rule="nonzero"/>
			<g filter="url(#filter_72_9_dd)">
				<path id="Vector" d="M38.6489 34.5208L32.6297 28.5015L14.8713 46.2612C15.5269 46.9565 16.6113 47.0422 17.8325 46.3496L38.6489 34.5208Z" fill="url(#paint_linear_72_9_0)" fill-opacity="1.000000" fill-rule="nonzero"/>
			</g>
			<path id="Vector" d="M38.6489 22.4822L17.8325 10.6548C16.6113 9.96069 15.5269 10.0476 14.8713 10.7429L32.6311 28.5029L38.6489 22.4822Z" fill="url(#paint_linear_72_10_0)" fill-opacity="1.000000" fill-rule="nonzero"/>
		</g>
	</g>
</svg>
