<svg width="136.000000" height="27.000000" viewBox="0 0 136 27" fill="none" xmlns="http://www.w3.org/2000/svg" xmlns:xlink="http://www.w3.org/1999/xlink">
	<desc>
			Created with Pixso.
	</desc>
	<defs>
		<clipPath id="clip2_236">
			<rect id="Frame" width="136.000000" height="27.000000" fill="white" fill-opacity="0"/>
		</clipPath>
	</defs>
	<g opacity="0.400000">
		<rect id="Frame" width="136.000000" height="27.000000" fill="#FFFFFF" fill-opacity="0"/>
		<g clip-path="url(#clip2_236)">
			<path id="Vector" d="M35.4131 2.32929C35.4439 2.14363 35.4407 2.11555 35.452 2.09371C36.5258 0.0202637 36.5258 0.0202637 38.946 0.0202637C64.458 0.0202637 89.9717 0.0202637 115.484 0.0202637C115.798 0.0202637 116.115 0.0202637 116.582 0.0202637C116.131 0.780058 115.787 1.45404 115.341 2.0547C115.206 2.23724 114.783 2.28872 114.493 2.28872C109.438 2.30277 104.386 2.29809 99.3311 2.29809C91.9523 2.29809 84.5751 2.30589 77.1962 2.28249C76.5668 2.28093 76.2457 2.46814 75.9456 2.99548C71.5806 10.6667 67.1783 18.3193 62.8278 25.9984C62.4077 26.7394 61.9698 27.039 61.0874 26.9828C59.801 26.9001 58.505 26.961 57.0354 26.961C61.7281 18.714 66.3542 10.5841 71.0534 2.32617C59.1003 2.32929 47.2867 2.32929 35.4131 2.32929Z" fill="#000000" fill-opacity="1.000000" fill-rule="nonzero"/>
			<path id="Vector" d="M126.533 0.0218029C123.928 4.2467 121.417 8.32026 118.817 12.5373C120.162 12.5373 121.338 12.5654 122.512 12.5108C122.718 12.5015 122.957 12.1754 123.098 11.9476C125.388 8.24381 127.678 4.53844 129.932 0.814362C130.284 0.230864 130.652 -0.0296822 131.383 0.00152206C132.866 0.0670471 134.353 0.0218029 136 0.0218029C135.789 0.383759 135.633 0.663027 135.468 0.936052C130.301 9.4264 125.132 17.9152 119.977 26.4133C119.727 26.8252 119.455 26.9859 118.958 26.9766C117.419 26.9469 115.879 26.9656 114.157 26.9656C116.6 22.8531 118.981 18.8466 121.459 14.6763C120.105 14.6763 118.931 14.6482 117.761 14.7028C117.552 14.7122 117.304 15.0274 117.166 15.2536C115.012 18.8232 112.848 22.3866 110.75 25.9874C110.309 26.7457 109.826 27.0405 108.924 26.9875C107.561 26.9063 106.191 26.9672 104.676 26.9672C105.377 25.7986 106.001 24.7471 106.634 23.7018C111.274 16.029 115.922 8.35926 120.543 0.675507C120.843 0.177818 121.154 -0.00315857 121.743 0.0108833C123.278 0.0483265 124.817 0.0218029 126.533 0.0218029Z" fill="#000000" fill-opacity="1.000000" fill-rule="nonzero"/>
			<path id="Vector" d="M31.5963 0.0373936C31.1096 0.800308 30.7366 1.45869 30.2759 2.05779C30.1445 2.22941 29.765 2.28869 29.4989 2.29025C26.7154 2.30585 23.9303 2.36202 21.1485 2.27465C19.6772 2.22941 18.7883 2.81602 18.0779 3.98302C15.4566 8.2828 12.7834 12.5514 10.141 16.8387C8.86121 18.9152 7.6041 21.0043 6.34212 23.0902C6.22046 23.2915 6.09395 23.499 6.02582 23.7189C5.81981 24.3742 6.1199 24.8095 6.83199 24.8329C7.80362 24.8641 8.77849 24.8625 9.75011 24.8267C9.97234 24.8189 10.2789 24.6644 10.3925 24.4865C12.3016 21.502 14.1881 18.5049 16.0762 15.5079C16.0989 15.472 16.0795 15.4096 16.0795 15.291C15.3155 15.291 14.5466 15.291 13.5798 15.291C13.9902 14.564 14.3114 13.9586 14.678 13.3798C14.7526 13.2612 15.0008 13.1864 15.1679 13.1864C17.708 13.1817 20.2466 13.1926 22.7868 13.202C22.8322 13.202 22.8776 13.2488 23.0025 13.3174C22.4672 14.2036 21.9368 15.0913 21.3999 15.9759C19.2912 19.4504 17.1727 22.9202 15.0819 26.4055C14.8175 26.8471 14.5239 27.0031 13.9967 26.9999C10.0778 26.9781 6.15883 26.989 2.2415 26.989C0.601578 26.989 -0.311646 25.8844 0.0971222 24.318C0.239853 23.7736 0.49939 23.2415 0.792984 22.7532C4.70383 16.2318 8.64548 9.72906 12.5466 3.2045C13.7307 1.22467 15.5312 0.131002 17.8102 0.0717163C22.3456 -0.0452957 26.8858 0.0373936 31.5963 0.0373936Z" fill="#000000" fill-opacity="1.000000" fill-rule="nonzero"/>
			<path id="Vector" d="M20.4629 26.986C21.0112 26.0468 21.4783 25.2371 21.9552 24.4336C25.5254 18.4177 29.1037 12.408 32.6593 6.38421C33.0681 5.69307 33.6472 5.35764 34.4241 5.35295C37.558 5.33579 40.6918 5.30615 43.8241 5.35452C45.8614 5.38572 46.6141 6.59951 45.6781 8.32348C44.7292 10.0709 43.6976 11.7761 42.6675 13.4798C42.1679 14.3067 41.2612 14.5672 40.3707 14.8059C39.4477 15.0524 39.4347 15.0914 39.9149 15.8559C40.481 16.7577 40.2993 17.6501 39.8111 18.5128C38.7405 20.4037 37.6229 22.2712 36.5912 24.1809C36.1354 25.0249 35.8418 25.9501 35.4152 26.9829C34.15 26.9829 32.6123 27.0094 31.0778 26.972C30.3251 26.9533 30.3754 26.3105 30.429 25.8612C30.4825 25.415 30.7112 24.9703 30.9367 24.5616C32.4192 21.8828 33.9229 19.2149 35.4168 16.5424C35.9002 15.678 35.6602 15.3379 34.6642 15.235C33.4168 15.1055 32.6447 15.4456 31.9894 16.5954C30.1126 19.8951 28.0494 23.0966 26.0866 26.351C25.8109 26.8082 25.5222 27.0141 24.9528 26.9985C23.527 26.9595 22.0963 26.986 20.4629 26.986ZM34.2068 13.1756C34.8767 13.1756 35.3844 13.1225 35.8759 13.1865C37.0389 13.3363 37.7835 12.8074 38.3074 11.8916C38.9822 10.7121 39.657 9.5326 40.2977 8.3344C40.6529 7.67134 40.4323 7.31406 39.6732 7.19081C38.1208 6.93963 37.7607 7.10656 36.9757 8.43893C36.8962 8.57467 36.8118 8.70728 36.7323 8.84145C35.9213 10.2347 35.1103 11.6279 34.2068 13.1756Z" fill="#000000" fill-opacity="1.000000" fill-rule="nonzero"/>
			<path id="Vector" d="M75.8143 20.7546C75.2044 21.8061 74.6724 22.7001 74.1663 23.6081C73.7267 24.3944 73.9506 24.733 74.8654 24.8422C75.8662 24.9623 76.5167 24.7423 77.0341 23.7626C78.4259 21.1275 79.9734 18.5688 81.4576 15.979C81.5711 15.7793 81.6652 15.5702 81.8436 15.2161C81.3862 15.2161 81.052 15.2239 80.7179 15.2145C79.4251 15.1817 78.1177 15.241 76.8411 15.0803C75.5824 14.9212 75.0974 14.0179 75.464 12.8462C75.571 12.5014 75.7138 12.1582 75.9019 11.8492C76.9449 10.1222 77.9993 8.39975 79.0666 6.68514C79.623 5.79273 80.473 5.33873 81.55 5.33405C84.2784 5.32156 87.0067 5.31844 89.7366 5.33249C91.0732 5.33873 91.9135 5.89882 92.0189 6.85987C92.0562 7.20623 92.0141 7.61187 91.8535 7.91454C91.3896 8.78978 91.0051 9.80388 90.2752 10.4108C89.8161 10.7915 88.7877 10.5528 88.0156 10.5652C87.1316 10.5808 86.2476 10.5684 85.2013 10.5684C85.6701 9.79452 86.0837 9.1377 86.4698 8.46527C86.9532 7.62435 86.6969 7.23587 85.709 7.1407C84.7585 7.04865 84.1178 7.26395 83.662 8.186C82.9564 9.61198 82.0723 10.9553 81.2678 12.336C81.1413 12.5544 81.0407 12.7853 80.8639 13.1379C82.1907 13.1379 83.3943 13.1379 84.5979 13.1379C87.2873 13.1395 88.1065 14.4126 86.7974 16.6498C85.0245 19.6796 83.2045 22.6845 81.3829 25.6862C80.8866 26.5038 80.0885 26.9406 79.1023 26.9468C76.3204 26.9671 73.5369 26.9936 70.7551 26.9468C68.648 26.911 67.9067 25.6628 68.8735 23.8624C69.3682 22.9419 69.9197 22.0464 70.4842 21.1634C70.6042 20.9746 70.8881 20.7733 71.1022 20.7686C72.6075 20.739 74.1176 20.7546 75.8143 20.7546Z" fill="#000000" fill-opacity="1.000000" fill-rule="nonzero"/>
			<path id="Vector" d="M104.076 10.5808C104.553 9.75082 104.976 9.03627 105.377 8.3108C105.713 7.70234 105.526 7.30294 104.809 7.21557C104.224 7.14537 103.619 7.14693 103.032 7.19841C102.822 7.21713 102.569 7.44024 102.451 7.63525C99.1872 12.9881 95.9349 18.3457 92.6924 23.7095C92.2528 24.4365 92.4912 24.7938 93.3931 24.8406C95.4678 24.9483 95.4613 24.9451 96.5318 23.2025C97.0249 22.399 97.3672 21.3084 98.1069 20.9044C98.8465 20.4987 99.9966 20.7842 100.968 20.7717C101.559 20.7655 102.149 20.7702 102.903 20.7702C102.511 21.4286 102.186 21.9793 101.857 22.5285C101.275 23.4942 100.678 24.4521 100.109 25.4241C99.5116 26.4429 98.6324 26.9687 97.4061 26.9655C94.7849 26.9593 92.1619 26.9702 89.5407 26.9562C89.1416 26.9546 88.7312 26.8953 88.3436 26.7955C87.2195 26.5069 86.6696 25.6971 87.1384 24.6737C87.7986 23.2337 88.6274 21.8576 89.4547 20.4956C92.2349 15.9228 95.0493 11.3718 97.8409 6.80681C98.4313 5.84264 99.3169 5.36211 100.443 5.34963C102.983 5.32155 105.526 5.28566 108.065 5.37615C108.756 5.40112 109.53 5.74435 110.073 6.16715C110.375 6.40117 110.485 7.17969 110.326 7.58221C109.948 8.5417 109.367 9.42943 108.842 10.3312C108.769 10.456 108.545 10.5668 108.388 10.5683C106.993 10.5886 105.598 10.5808 104.076 10.5808Z" fill="#000000" fill-opacity="1.000000" fill-rule="nonzero"/>
			<path id="Vector" d="M59.8998 13.1254C59.4505 13.8212 59.1212 14.411 58.7027 14.9352C58.5599 15.113 58.195 15.1988 57.9306 15.2035C56.5794 15.23 55.2282 15.1926 53.877 15.2347C53.5883 15.2441 53.1746 15.4219 53.0449 15.6435C51.3514 18.5376 49.6985 21.455 48.0408 24.3679C47.9807 24.4739 47.9678 24.6034 47.9012 24.825C49.7391 24.825 51.5023 24.825 53.3952 24.825C52.9946 25.5317 52.6767 26.1246 52.3214 26.6956C52.2419 26.8235 52.0327 26.9499 51.8835 26.9499C48.2711 26.9639 44.6587 26.9608 40.8906 26.9608C41.7503 25.4709 42.5435 24.0948 43.3383 22.7203C46.4365 17.3706 49.5558 12.0302 52.6199 6.66168C53.1714 5.69438 53.8754 5.29342 55.0092 5.31059C58.0879 5.35427 61.1682 5.32619 64.4091 5.32619C64.0718 5.92997 63.8171 6.46042 63.4829 6.93938C63.3856 7.0798 63.0645 7.1266 62.8438 7.12816C61.384 7.14376 59.9241 7.1188 58.4659 7.15313C58.195 7.15937 57.8073 7.31226 57.6824 7.51664C56.6345 9.24217 55.6353 10.9942 54.6232 12.7385C54.5745 12.8227 54.5453 12.9194 54.4609 13.1223C56.2874 13.1254 58.0182 13.1254 59.8998 13.1254Z" fill="#000000" fill-opacity="1.000000" fill-rule="nonzero"/>
			<path id="Vector" d="M34.2061 13.1753C35.1079 11.6276 35.9206 10.2344 36.7316 8.84273C36.8111 8.707 36.8955 8.57439 36.9749 8.44021C37.76 7.10784 38.1201 6.94091 39.6725 7.19209C40.4316 7.31534 40.6506 7.67262 40.297 8.33568C39.6562 9.53232 38.9814 10.7118 38.3067 11.8928C37.7827 12.8086 37.0382 13.3375 35.8752 13.1878C35.3837 13.1222 34.876 13.1753 34.2061 13.1753Z" fill="#FFFFFF" fill-opacity="1.000000" fill-rule="nonzero"/>
		</g>
	</g>
</svg>
