<svg width="100.000000" height="59.000000" viewBox="0 0 100 59" fill="none" xmlns="http://www.w3.org/2000/svg" xmlns:xlink="http://www.w3.org/1999/xlink">
	<desc>
			Created with Pixso.
	</desc>
	<defs>
		<clipPath id="clip2_247">
			<rect id="Frame" width="100.000000" height="59.000000" fill="white" fill-opacity="0"/>
		</clipPath>
	</defs>
	<g opacity="0.400000">
		<rect id="Frame" width="100.000000" height="59.000000" fill="#FFFFFF" fill-opacity="0"/>
		<g clip-path="url(#clip2_247)">
			<path id="Vector" d="M99.9329 55.5117C99.8142 55.5194 99.6749 55.4935 99.5717 55.5427C97.2596 56.6874 95.9694 56.5268 94.7876 54.2324C93.6419 52.0079 93.0097 49.514 92.1969 47.1238C92.1066 46.8571 92.2563 46.4427 92.4111 46.163C94.6664 42.1232 95.9333 37.7389 96.8132 33.2355C97.559 29.4235 98.1705 25.5805 97.5873 21.6779C97.4299 20.6239 97.288 19.2048 96.0933 19.0701C95.1308 18.9614 93.998 19.5829 93.0872 20.1267C92.4679 20.497 92.0163 21.2454 91.637 21.9084C91.0616 22.9132 90.5145 23.9542 90.1249 25.0419C87.5935 32.0883 87.4645 39.3212 88.7341 46.6033C88.9869 48.0612 88.1277 48.5455 87.3097 49.167C86.4685 49.8067 85.506 50.0035 84.5564 49.3354C82.985 48.2296 81.8599 43.7987 82.5463 41.9808C83.7178 38.8809 84.897 35.776 85.8569 32.6088C86.5846 30.2108 86.8762 27.7014 86.2259 25.2024C85.9318 24.0707 85.3589 23.1022 84.0868 22.8614C82.8018 22.6205 81.7309 23.1462 81.0884 24.195C80.4459 25.2438 79.8627 26.4014 79.5866 27.5901C78.3532 32.9429 78.348 38.3656 79.0551 43.7831C79.2512 45.2851 78.5906 46.2563 77.672 47.1885C76.965 47.9059 76.1754 47.8152 75.8038 46.9037C75.3729 45.8445 74.9135 44.6766 74.9394 43.5682C75.0193 40.3519 75.3238 37.1407 75.5664 33.9295C75.6799 32.4301 75.8915 30.9385 75.9741 29.4365C76.0283 28.4498 75.3987 28.0717 74.4697 28.1209C73.2131 28.1883 72.4828 28.8435 72.3048 30.0917C71.879 33.0801 71.5797 36.0919 71.0017 39.0493C70.5914 41.1417 69.8921 43.1901 69.1335 45.1867C68.9374 45.7047 68.0162 46.2563 67.4562 46.2252C67.0408 46.2019 66.4009 45.2955 66.3415 44.731C66.1738 43.1565 66.0912 41.5379 66.2744 39.9712C66.6047 37.1485 67.1595 34.3516 67.6059 31.5419C67.8253 30.1642 66.7879 29.2215 65.5132 29.7731C64.9352 30.0243 64.3727 30.7002 64.1585 31.3088C63.8076 32.311 63.5934 33.4168 63.5909 34.4785C63.5831 36.9206 62.0994 38.464 60.466 40.2224C60.3757 39.2979 60.3628 38.5676 60.226 37.858C59.8622 35.9598 59.6042 34.0202 59.0107 32.1945C58.4017 30.3196 57.1193 29.654 55.2665 30.2237C53.9067 30.6407 52.4875 31.2674 51.4295 32.1893C48.137 35.0612 46.5036 38.8447 46.0288 43.1694C45.9823 43.5837 45.6082 43.9592 45.3863 44.3529C44.8831 44.0577 44.0987 43.8712 43.9361 43.4439C43.6239 42.6308 43.4948 41.6596 43.5981 40.7921C43.8406 38.7877 44.2303 36.7989 44.6354 34.8204C44.7876 34.0746 44.8754 33.4271 44.0935 33.0465C43.2574 32.6399 42.5762 32.9429 42.1066 33.6861C41.8821 34.0435 41.7247 34.4578 41.6112 34.8696C41.3222 35.9054 41.1725 36.9931 40.788 37.9927C39.9262 40.2302 39.0566 42.4754 37.9677 44.6041C37.6658 45.1919 36.5536 45.728 35.8698 45.6658C34.8325 45.57 34.688 44.459 34.639 43.5216C34.4764 40.5124 35.4415 37.8218 37.0749 35.3668C38.7599 32.8341 41.0357 31.2104 44.1916 31.0913C44.4909 31.0809 44.7825 30.9152 45.0792 30.822C45.0947 30.7132 45.1102 30.6018 45.1256 30.4931C44.656 30.2626 44.207 29.9492 43.7116 29.812C41.4151 29.1749 39.3275 29.7706 37.5497 31.2311C33.5114 34.5459 31.4367 38.9146 30.9826 44.0991C30.9387 44.5937 30.9645 45.2722 30.6678 45.5338C29.5815 46.4919 28.4512 47.4604 27.1869 48.1415C25.7909 48.8925 24.5394 48.3642 23.9433 46.8571C23.5227 45.7953 23.4221 44.6092 23.1718 43.4776C22.9783 42.6049 23.2853 42.0999 24.0956 41.6337C26.6424 40.1706 29.0421 38.4951 30.802 36.0686C31.9864 34.4345 32.6211 32.6451 32.2547 30.6018C31.718 27.6082 28.9054 26.1243 26.3353 27.7273C24.9729 28.5767 23.773 29.9078 22.8905 31.2751C21.012 34.1833 20.2405 37.5162 19.8792 40.9475C19.8328 41.3825 19.745 41.9808 19.4535 42.1957C18.4652 42.9234 17.3763 43.5138 16.4628 44.0732C14.2746 41.9419 12.1484 39.9945 10.1641 37.9046C8.33459 35.9779 6.48447 34.0253 4.96204 31.8578C3.32608 29.5245 3.55316 26.9452 5.10654 24.5654C6.66766 22.1699 9.60672 21.204 12.3806 22.0819C14.7081 22.8199 16.1815 25.0134 16.1454 27.6574C16.1196 29.4158 15.1107 30.7132 14.1843 32.0676C13.965 32.3861 13.934 32.8367 13.8153 33.2277C14.254 33.3054 14.6875 33.4142 15.1288 33.4479C15.3274 33.4634 15.5442 33.352 15.7377 33.2614C18.1168 32.1375 19.7166 30.3895 19.954 27.6729C20.1837 25.0496 19.0354 23.0582 16.8344 21.7167C13.7637 19.8444 10.4402 19.5699 7.01086 20.4452C0.547028 22.0948 -1.91208 27.8646 1.61014 33.5385C3.00354 35.7811 4.88464 37.7389 6.68573 39.6941C8.73972 41.9264 10.9511 44.0136 13.1444 46.2122C11.4104 47.5252 9.79767 48.6077 8.3501 49.8818C6.8096 51.2413 5.25879 52.6527 4.01505 54.2738C2.34555 56.4465 3.09128 58.1997 5.7981 58.5752C10.2002 59.1864 14.1611 57.9744 17.4975 55.0222C18.9606 53.7274 19.6805 51.9742 19.2032 49.9983C18.8548 48.5559 18.2458 47.1782 17.7143 45.6555C18.2665 45.2955 18.9322 44.8604 19.6393 44.3995C19.9979 45.7927 20.2276 47.1083 20.6765 48.3435C21.5436 50.7234 23.3369 52.1192 25.5251 51.8085C26.7637 51.6324 27.9842 50.8917 29.0705 50.1848C30.0124 49.5736 30.7529 48.6543 31.5812 47.8722C33.1553 49.6617 34.8764 50.2158 36.7033 49.2499C37.6967 48.7242 38.605 47.9136 39.3456 47.0539C40.1894 46.0724 40.8009 44.8941 41.3815 44.0033C41.9002 44.8863 42.2433 46.2252 43.0588 46.6473C43.8922 47.0798 45.1876 46.6162 46.4571 46.5359C47.5125 48.1415 48.5472 48.6776 50.4438 47.9628C51.5663 47.5407 52.7842 46.8674 53.4861 45.9429C54.6937 44.3555 55.5323 42.4857 56.5232 40.7325C56.6677 40.4762 56.7812 40.2043 57.0522 39.6501C57.158 40.6056 57.1967 41.209 57.2999 41.8021C57.5295 43.1202 57.2173 44.1768 56.2342 45.1764C55.1246 46.3055 54.0822 47.5614 53.2796 48.921C52.2656 50.6457 51.3211 52.4662 50.7199 54.3645C50.1238 56.2549 50.7999 57.731 52.0488 58.4716C53.3932 59.2693 55.5323 59.2071 56.7322 57.9434C57.8237 56.791 58.7758 55.3796 59.3694 53.9087C60.5641 50.9435 60.7266 47.7427 60.4557 44.6015C60.2647 42.377 61.7665 41.5017 62.8425 40.2845C63.2502 42.4728 63.4308 44.6481 64.0889 46.6654C64.9094 49.1748 67.5698 49.7885 69.6135 48.0923C70.3231 47.5045 70.8572 46.681 71.3836 45.9041C71.7422 45.3758 71.9461 44.7439 72.2067 44.1923C72.746 45.728 73.1176 47.2999 73.8272 48.6983C74.929 50.8658 76.8076 51.0652 78.5674 49.3742C79.0164 48.9417 79.4214 48.4626 79.8756 47.9732C80.7684 50.0812 81.4032 52.316 83.7849 52.9505C86.2904 53.6161 87.7638 51.6583 89.4746 50.177C89.6475 50.6923 89.7301 51.117 89.9236 51.4796C90.9326 53.3623 91.7944 55.3615 93.051 57.0629C94.3051 58.7617 96.5242 59.088 98.3021 58.2904C99.5923 57.7077 100.217 56.6615 99.9329 55.5117Z" fill="#FFFFFF" fill-opacity="1.000000" fill-rule="nonzero"/>
			<path id="Vector" d="M22.6992 12.829C22.7611 12.9844 22.8231 13.1424 22.885 13.2978C23.8346 13.0595 24.8203 12.9145 25.7286 12.5649C28.9618 11.3115 32.2853 10.5424 35.7508 10.3223C38.9737 10.1177 43.6287 12.7539 45.2182 15.8201C43.5332 17.0683 41.7295 17.7623 39.5749 17.2651C39.1414 17.1641 38.6434 17.3402 38.1763 17.3868C38.3983 17.8115 38.5221 18.3502 38.8575 18.6428C40.8445 20.3753 43.1797 20.8362 45.7239 20.3494C48.8823 19.746 51.7388 18.3709 54.5643 16.887C55.5165 16.3872 56.6364 16.2034 57.6788 15.8771C57.7253 16.0195 57.7717 16.1619 57.8182 16.3018C57.6375 16.3872 57.4182 16.4338 57.2815 16.5659C57.0389 16.799 56.848 17.0864 56.6338 17.3506C56.9615 17.493 57.3047 17.7856 57.6169 17.7546C60.6489 17.4542 63.0951 18.5263 65.3168 20.585C67.701 22.794 70.4491 24.5032 73.6875 25.2205C74.0436 25.3008 74.4642 25.1014 74.8538 25.0289C74.7403 24.6845 74.7094 24.2675 74.4952 24.0034C72.5444 21.5976 70.5678 19.2125 68.5861 16.8301C67.621 15.6673 66.3257 15.1287 64.86 15.0328C62.5893 14.8826 60.3134 14.8231 58.0453 14.6444C57.4492 14.5978 56.8712 14.2663 56.288 14.0539C55.3565 13.7147 54.4224 13.0673 53.4986 13.0828C51.4859 13.1165 49.7906 12.5105 48.2398 11.3219C47.3857 10.6667 46.5316 10.0141 45.7033 9.32784C43.817 7.7611 41.7682 6.89357 39.2885 7.72743C39.0898 7.79476 38.8627 7.76887 38.6485 7.80253C33.5368 8.57425 28.4948 9.59716 23.8604 12.047C23.4501 12.2541 23.0863 12.5623 22.6992 12.829Z" fill="#FFFFFF" fill-opacity="1.000000" fill-rule="nonzero"/>
			<path id="Vector" d="M49.9764 0.0077858C46.3691 -0.113928 42.4882 1.28966 39.0666 4.00621C38.5376 4.42573 38.0602 4.95143 37.6809 5.51079C37.5261 5.74127 37.699 6.19187 37.7222 6.54147C38.0267 6.47932 38.3905 6.50263 38.6228 6.33689C39.3943 5.79306 40.1039 5.16119 40.86 4.59924C47.4993 -0.334047 58.9923 0.126909 64.2975 9.26579C65.0407 10.5451 65.389 12.0522 65.967 13.4325C66.0935 13.7355 66.4289 13.9479 66.6663 14.2017C66.8495 13.8728 67.2056 13.5309 67.185 13.2124C67.1334 12.4485 66.9734 11.6768 66.7411 10.9439C64.6278 4.33509 58.3162 0.0259132 49.9764 0.0077858Z" fill="#FFFFFF" fill-opacity="1.000000" fill-rule="nonzero"/>
			<path id="Vector" d="M32.3682 17.3972C32.5617 20.8855 33.8029 23.9516 35.2917 26.9272C35.5033 27.3493 36.391 27.8387 36.7367 27.704C37.6812 27.3363 37.0283 26.619 36.7393 26.1192C35.4698 23.9128 34.7215 21.5329 34.6673 19.0106C34.6234 16.9674 34.915 14.9164 34.995 12.8679C35.0105 12.4536 34.755 12.0289 34.6234 11.6094C34.306 11.8891 33.8054 12.1144 33.6996 12.4614C33.1965 14.0877 32.8017 15.7502 32.3682 17.3972Z" fill="#FFFFFF" fill-opacity="1.000000" fill-rule="nonzero"/>
			<path id="Vector" d="M67.2809 23.004C66.8474 22.8175 66.5197 22.543 66.2487 22.5922C65.9004 22.6544 65.4772 22.9004 65.2966 23.1982C64.5663 24.4024 63.8954 25.648 63.2478 26.9014C63.0749 27.2329 63.0594 27.6446 62.9717 28.0201C63.4413 27.9968 64.1767 28.1522 64.3341 27.9191C65.3018 26.4793 66.1378 24.9514 67.2809 23.004Z" fill="#FFFFFF" fill-opacity="1.000000" fill-rule="nonzero"/>
			<path id="Vector" d="M99.9326 55.5117C100.216 56.6589 99.592 57.7077 98.2967 58.2878C96.5214 59.0854 94.2996 58.7591 93.0456 57.0603C91.7889 55.3589 90.9271 53.3571 89.9182 51.477C89.7246 51.1144 89.6421 50.6923 89.4692 50.1744C87.7584 51.6557 86.285 53.616 83.7794 52.9479C81.3952 52.3134 80.763 50.0786 79.8702 47.9706C79.416 48.46 79.0109 48.9391 78.5619 49.3716C76.8047 51.0652 74.9236 50.8632 73.8218 48.6957C73.1122 47.2973 72.7406 45.7254 72.2013 44.1897C71.9432 44.7413 71.7368 45.3732 71.3781 45.9015C70.8517 46.6784 70.315 47.5019 69.608 48.0897C67.5643 49.7859 64.904 49.1722 64.0834 46.6628C63.4229 44.6455 63.2448 42.4676 62.8371 40.2819C61.7611 41.4991 60.2567 42.3744 60.4503 44.5989C60.7212 47.7401 60.556 50.9409 59.3639 53.9061C58.773 55.3744 57.8182 56.7884 56.7267 57.9408C55.5269 59.2071 53.3878 59.2667 52.0434 58.469C50.7945 57.7284 50.1184 56.2523 50.7145 54.3619C51.3131 52.4636 52.2575 50.6431 53.2742 48.9184C54.0767 47.5588 55.1192 46.3029 56.2288 45.1738C57.2119 44.1742 57.5241 43.1176 57.2944 41.7995C57.1912 41.209 57.1551 40.6056 57.0467 39.6475C56.7784 40.2017 56.6622 40.4762 56.5178 40.7299C55.5294 42.4831 54.6883 44.3529 53.4807 45.9403C52.7788 46.8622 51.5609 47.5381 50.4384 47.9602C48.5418 48.675 47.5096 48.1389 46.4517 46.5333C45.1821 46.6162 43.8868 47.0772 43.0533 46.6447C42.2379 46.2226 41.8947 44.8837 41.3761 44.0007C40.7955 44.8915 40.184 46.0724 39.3402 47.0513C38.5996 47.911 37.6939 48.7242 36.6979 49.2473C34.8709 50.2132 33.1498 49.659 31.5758 47.8696C30.7501 48.6491 30.0069 49.571 29.0651 50.1822C27.9788 50.8891 26.7582 51.6298 25.5197 51.8059C23.3341 52.1166 21.5407 50.7208 20.6711 48.3409C20.2196 47.1057 19.9925 45.7901 19.6338 44.3969C18.9268 44.8578 18.261 45.2929 17.7089 45.6529C18.2404 47.173 18.8494 48.5533 19.1977 49.9957C19.6751 51.9716 18.9552 53.7248 17.4921 55.0196C14.1557 57.9718 10.1948 59.1838 5.79266 58.5726C3.08585 58.1971 2.34012 56.4439 4.00961 54.2712C5.25595 52.6501 6.80417 51.2387 8.34467 49.8792C9.78967 48.6051 11.405 47.5226 13.139 46.2096C10.9457 44.011 8.73431 41.9238 6.68033 39.6915C4.87921 37.7337 2.99554 35.7759 1.60471 33.5359C-1.91235 27.8646 0.546753 22.0948 7.01062 20.4426C10.4399 19.5673 13.7635 19.8418 16.8341 21.7141C19.0352 23.0556 20.1834 25.047 19.9538 27.6703C19.7164 30.3869 18.1165 32.1375 15.7375 33.2588C15.5465 33.3494 15.3272 33.4608 15.1285 33.4452C14.6872 33.4116 14.2512 33.3028 13.8151 33.2251C13.9338 32.8341 13.9647 32.3861 14.1841 32.065C15.113 30.7132 16.1194 29.4132 16.1451 27.6548C16.1813 25.0133 14.7079 22.8199 12.3726 22.0819C9.60132 21.204 6.66226 22.1725 5.09854 24.5653C3.54517 26.9452 3.31808 29.5245 4.95404 31.8578C6.47388 34.0253 8.32401 35.9779 10.1561 37.9046C12.1378 39.9919 14.2666 41.9419 16.4548 44.0732C17.3708 43.5138 18.4572 42.9234 19.4455 42.1957C19.737 41.9807 19.8248 41.3851 19.8712 40.9475C20.2325 37.5188 21.0066 34.1859 22.8825 31.2751C23.765 29.9078 24.9649 28.5767 26.3273 27.7273C28.8974 26.1243 31.7126 27.6056 32.2467 30.6018C32.6131 32.6451 31.9784 34.4345 30.7939 36.0686C29.0316 38.4977 26.6318 40.1732 24.0876 41.6337C23.2773 42.0999 22.9728 42.6048 23.1638 43.4776C23.4141 44.6066 23.5147 45.7953 23.9353 46.8571C24.5314 48.3642 25.7854 48.8899 27.1788 48.1415C28.4432 47.4604 29.5734 46.4919 30.6598 45.5337C30.9565 45.2722 30.9307 44.5937 30.9746 44.0991C31.4287 38.9146 33.5034 34.5459 37.5417 31.2311C39.3195 29.7705 41.407 29.1723 43.7036 29.812C44.199 29.9492 44.648 30.26 45.1176 30.493C45.1021 30.6018 45.0867 30.7132 45.0712 30.8219C44.7744 30.9152 44.4828 31.0783 44.1835 31.0913C41.0277 31.213 38.7518 32.8341 37.0668 35.3668C35.4335 37.8218 34.4684 40.5124 34.631 43.5216C34.68 44.4564 34.8245 45.57 35.8618 45.6658C36.5456 45.728 37.6603 45.1919 37.9597 44.6041C39.0486 42.4754 39.9182 40.2301 40.78 37.9927C41.1645 36.9957 41.3141 35.908 41.6031 34.8696C41.7167 34.4604 41.8741 34.0435 42.0986 33.6861C42.5682 32.9429 43.2495 32.6373 44.0855 33.0464C44.8699 33.4271 44.7796 34.0771 44.6273 34.8204C44.2222 36.7989 43.83 38.7877 43.5901 40.7921C43.4843 41.6596 43.6158 42.6307 43.9281 43.4439C44.0906 43.8712 44.8751 44.0576 45.3782 44.3529C45.6002 43.9592 45.9769 43.5837 46.0208 43.1694C46.4955 38.8421 48.1289 35.0586 51.4215 32.1893C52.4795 31.2674 53.8987 30.6407 55.2585 30.2237C57.1138 29.654 58.3937 30.317 59.0027 32.1945C59.5961 34.0202 59.8542 35.9598 60.218 37.858C60.3522 38.565 60.3677 39.2953 60.458 40.2224C62.0939 38.464 63.5777 36.9232 63.5828 34.4785C63.5854 33.4168 63.7996 32.311 64.1505 31.3088C64.3647 30.7002 64.9272 30.0243 65.5052 29.7731C66.7799 29.2215 67.8172 30.1642 67.5979 31.5419C67.1515 34.3516 66.5967 37.1485 66.2664 39.9712C66.0832 41.5379 66.1658 43.1564 66.3335 44.7309C66.3929 45.2955 67.0328 46.2045 67.4482 46.2252C68.0056 46.2563 68.9268 45.7047 69.1255 45.1867C69.8841 43.1901 70.5834 41.1417 70.9937 39.0493C71.5717 36.0919 71.871 33.0775 72.2968 30.0917C72.4748 28.8434 73.205 28.1883 74.4617 28.1209C75.3906 28.0717 76.0202 28.4498 75.9661 29.4365C75.8861 30.9359 75.6719 32.4301 75.5583 33.9295C75.3184 37.1407 75.0113 40.3519 74.9313 43.5682C74.903 44.6766 75.3622 45.8445 75.7957 46.9037C76.1673 47.8152 76.9569 47.9059 77.6639 47.1885C78.58 46.2588 79.2431 45.2851 79.047 43.7831C78.34 38.3656 78.3452 32.9429 79.5786 27.59C79.8521 26.4014 80.4379 25.2438 81.0804 24.195C81.7229 23.1462 82.7937 22.6179 84.0788 22.8613C85.3509 23.1022 85.9211 24.0707 86.2179 25.2024C86.8707 27.7014 86.5766 30.2134 85.8489 32.6088C84.889 35.7759 83.7098 38.8835 82.5383 41.9807C81.8519 43.7961 82.977 48.227 84.5484 49.3353C85.498 50.0035 86.4604 49.8067 87.3017 49.167C88.1196 48.5455 88.9789 48.0612 88.726 46.6033C87.4565 39.3186 87.5855 32.0883 90.1169 25.0418C90.5065 23.9542 91.0535 22.9131 91.629 21.9084C92.0083 21.2454 92.4598 20.497 93.0791 20.1267C93.99 19.5829 95.1254 18.9639 96.0853 19.0701C97.28 19.2048 97.4219 20.6239 97.5793 21.6779C98.1625 25.5805 97.5509 29.4235 96.8052 33.2355C95.9253 37.7363 94.6609 42.1232 92.4031 46.163C92.2482 46.4427 92.0986 46.8545 92.1889 47.1238C92.9991 49.514 93.6313 52.0079 94.7796 54.2324C95.964 56.5268 97.2516 56.6874 99.5636 55.5427C99.672 55.4935 99.8139 55.522 99.9326 55.5117ZM91.8199 43.4853C94.6635 36.1488 96.3072 28.9237 95.8582 21.0331C92.723 23.1255 90.1994 37.7544 91.8199 43.4853ZM56.4894 34.4241C56.3629 34.0668 56.301 33.1293 55.8778 32.9144C55.4469 32.6968 54.6367 33.1423 54.0328 33.396C53.6948 33.5385 53.4006 33.8466 53.1504 34.1367C50.8151 36.8403 49.6385 40.0281 49.4372 43.5604C49.4036 44.1301 49.8191 45.0365 50.2655 45.2308C50.6887 45.412 51.6176 45.0313 51.9918 44.6041C54.4638 41.7839 55.9397 38.4821 56.4894 34.4241ZM14.2228 48.0664C13.4693 48.631 12.7339 49.0816 12.1146 49.659C10.7393 50.9383 9.36908 52.2306 8.11502 53.6238C7.75375 54.0252 7.48022 55.0429 7.71246 55.3226C8.06342 55.7447 8.95621 56.0399 9.50327 55.9079C10.8063 55.5945 12.1843 55.2087 13.2784 54.4758C15.5904 52.9246 15.8794 50.6146 14.2228 48.0664ZM23.2696 39.9971C25.8448 38.2491 28.0846 36.6875 29.3025 34.0823C30.0198 32.5441 29.865 31.0369 29.0058 30.5423C28.0923 30.0166 26.8047 30.5889 25.819 32.0468C24.2682 34.3387 23.6773 36.9516 23.2696 39.9971ZM81.7203 38.4303C81.8777 38.4614 82.0377 38.4951 82.1951 38.5261C82.8789 35.9339 83.6478 33.3572 84.2155 30.7391C84.5226 29.3277 84.5742 27.8387 84.5562 26.3885C84.551 25.8679 84.0039 25.3526 83.7046 24.8347C83.3304 25.2568 82.7602 25.6193 82.6105 26.1114C81.3719 30.1512 81.6403 34.2998 81.7203 38.4303ZM57.4054 46.0258C55.114 48.4471 53.6897 50.9047 53.0394 53.774C52.8665 54.5431 52.673 55.6567 53.6871 55.8431C54.2754 55.9519 55.0289 55.2294 55.6843 54.8383C55.8469 54.7425 55.9372 54.4939 56.0249 54.3023C57.1783 51.7878 57.3848 49.1152 57.4054 46.0258Z" fill="#000000" fill-opacity="1.000000" fill-rule="nonzero"/>
			<path id="Vector" d="M22.6992 12.8291C23.0863 12.5624 23.4501 12.2568 23.8604 12.0393C28.4922 9.58946 33.5342 8.56913 38.6485 7.79483C38.8601 7.76375 39.0872 7.78706 39.2885 7.71973C41.7682 6.88845 43.817 7.75339 45.7033 9.32013C46.5316 10.0064 47.3857 10.659 48.2398 11.3142C49.7906 12.5054 51.4859 13.1088 53.4986 13.0751C54.4224 13.0596 55.3565 13.707 56.288 14.0462C56.8712 14.2586 57.4466 14.5901 58.0453 14.6367C60.3134 14.8154 62.5893 14.8749 64.86 15.0251C66.3257 15.121 67.621 15.6596 68.5861 16.8223C70.5652 19.2048 72.5444 21.5899 74.4952 23.9957C74.7094 24.2598 74.7377 24.6742 74.8538 25.0212C74.4642 25.0911 74.0462 25.2905 73.6875 25.2128C70.4491 24.4955 67.701 22.7889 65.3168 20.5773C63.0951 18.5186 60.6489 17.449 57.6169 17.7469C57.3047 17.7779 56.9615 17.4853 56.6338 17.3429C56.848 17.0787 57.0389 16.7939 57.2815 16.5582C57.4182 16.4261 57.6375 16.3795 57.8182 16.2941C57.7717 16.1516 57.7253 16.0092 57.6788 15.8694C56.6364 16.1982 55.5165 16.3795 54.5643 16.8793C51.7388 18.3632 48.8849 19.7383 45.7239 20.3417C43.1797 20.8285 40.8445 20.3676 38.8575 18.6351C38.5221 18.3425 38.3983 17.8038 38.1763 17.3791C38.6434 17.3325 39.1414 17.1564 39.5749 17.2574C41.7295 17.7546 43.5306 17.0632 45.2182 15.8124C43.6287 12.7488 38.9737 10.1126 35.7508 10.3146C32.2879 10.5347 28.9618 11.3038 25.7286 12.5572C24.8229 12.9094 23.8346 13.0518 22.885 13.2901C22.8231 13.1399 22.7611 12.9845 22.6992 12.8291Z" fill="#000000" fill-opacity="1.000000" fill-rule="nonzero"/>
			<path id="Vector" d="M49.9764 0.0077858C58.3162 0.0259132 64.6278 4.33509 66.7412 10.9491C66.976 11.6793 67.1334 12.4536 67.185 13.2176C67.2056 13.5335 66.8521 13.8754 66.6663 14.2068C66.4264 13.9531 66.0935 13.7381 65.967 13.4377C65.389 12.0574 65.0407 10.5502 64.2975 9.27096C58.9923 0.129499 47.4993 -0.331458 40.86 4.60441C40.1013 5.16896 39.3917 5.79824 38.6228 6.34207C38.3905 6.50522 38.0267 6.48191 37.7222 6.54665C37.699 6.19705 37.5261 5.74386 37.6809 5.51597C38.0602 4.95661 38.535 4.43091 39.0666 4.01138C42.4882 1.28966 46.3691 -0.113928 49.9764 0.0077858Z" fill="#000000" fill-opacity="1.000000" fill-rule="nonzero"/>
			<path id="Vector" d="M32.3682 17.3974C32.8017 15.7478 33.1965 14.0878 33.6996 12.4589C33.8054 12.1119 34.306 11.8866 34.6234 11.6069C34.755 12.0265 35.0105 12.4512 34.995 12.8655C34.9124 14.9139 34.6234 16.9649 34.6673 19.0082C34.7215 21.5305 35.4698 23.9104 36.7393 26.1167C37.0283 26.6165 37.6812 27.3339 36.7367 27.7016C36.391 27.8363 35.5033 27.3468 35.2917 26.9247C33.8029 23.9544 32.5617 20.8857 32.3682 17.3974Z" fill="#000000" fill-opacity="1.000000" fill-rule="nonzero"/>
			<path id="Vector" d="M67.2809 23.0038C66.1378 24.9513 65.3018 26.4791 64.3341 27.919C64.1767 28.1547 63.4387 27.9967 62.9717 28.02C63.0594 27.6445 63.0749 27.2327 63.2478 26.9013C63.8954 25.6479 64.5663 24.4048 65.2966 23.1981C65.4772 22.9003 65.9004 22.6542 66.2487 22.5921C66.5197 22.5403 66.8474 22.8148 67.2809 23.0038Z" fill="#000000" fill-opacity="1.000000" fill-rule="nonzero"/>
			<path id="Vector" d="M91.8201 43.4855C90.1996 37.7546 92.7232 23.1256 95.8584 21.0332C96.3074 28.9239 94.6637 36.149 91.8201 43.4855Z" fill="#FFFFFF" fill-opacity="1.000000" fill-rule="nonzero"/>
			<path id="Vector" d="M56.49 34.4243C55.9404 38.4848 54.4644 41.7867 51.995 44.6042C51.6208 45.0315 50.6893 45.4147 50.2687 45.2309C49.8223 45.0367 49.4068 44.1303 49.4404 43.5606C49.6417 40.0283 50.8183 36.8378 53.1535 34.1368C53.4038 33.8468 53.6954 33.5386 54.036 33.3962C54.6398 33.1424 55.4501 32.697 55.881 32.9145C56.3042 33.1269 56.3635 34.0669 56.49 34.4243Z" fill="#FFFFFF" fill-opacity="1.000000" fill-rule="nonzero"/>
			<path id="Vector" d="M14.2232 48.0664C15.8824 50.6146 15.5934 52.9246 13.2788 54.4758C12.1847 55.2113 10.8068 55.5945 9.50366 55.9079C8.95663 56.0399 8.06125 55.7447 7.71289 55.3226C7.48065 55.0429 7.75418 54.0252 8.11542 53.6238C9.37207 52.2306 10.7397 50.9383 12.115 49.659C12.7343 49.0816 13.4671 48.631 14.2232 48.0664Z" fill="#FFFFFF" fill-opacity="1.000000" fill-rule="nonzero"/>
			<path id="Vector" d="M23.2695 39.9972C23.6772 36.9518 24.2681 34.3388 25.8189 32.047C26.8047 30.5916 28.0923 30.0193 29.0057 30.5424C29.865 31.037 30.0224 32.5442 29.3025 34.0825C28.0845 36.6876 25.8448 38.2466 23.2695 39.9972Z" fill="#FFFFFF" fill-opacity="1.000000" fill-rule="nonzero"/>
			<path id="Vector" d="M81.7203 38.4305C81.6403 34.3 81.372 30.1514 82.608 26.109C82.7576 25.6169 83.3279 25.2544 83.7021 24.8323C84.0014 25.3502 84.5484 25.8655 84.5536 26.3861C84.5716 27.8363 84.52 29.3253 84.213 30.7367C83.6453 33.3548 82.8763 35.9315 82.1925 38.5238C82.0351 38.4953 81.8777 38.4616 81.7203 38.4305Z" fill="#FFFFFF" fill-opacity="1.000000" fill-rule="nonzero"/>
			<path id="Vector" d="M57.4052 46.0259C57.3846 49.1153 57.1782 51.7878 56.0247 54.3024C55.937 54.4966 55.8467 54.7426 55.6841 54.8385C55.0287 55.2295 54.2752 55.952 53.6869 55.8432C52.6728 55.6542 52.8664 54.5406 53.0392 53.7741C53.6895 50.9048 55.1139 48.4472 57.4052 46.0259Z" fill="#FFFFFF" fill-opacity="1.000000" fill-rule="nonzero"/>
		</g>
	</g>
</svg>
