<svg width="72.000000" height="72.000000" viewBox="0 0 72 72" fill="none" xmlns="http://www.w3.org/2000/svg" xmlns:xlink="http://www.w3.org/1999/xlink">
	<desc>
			Created with Pixso.
	</desc>
	<defs/>
	<rect id="Rectangle 135" rx="20.000000" width="72.000000" height="72.000000" fill="#262626" fill-opacity="1.000000"/>
	<rect id="vuesax/linear/category-2" width="32.000000" height="32.000000" transform="translate(20.000000 20.000000)" fill="#FFFFFF" fill-opacity="0"/>
	<path id="Vector (Stroke)" d="M38.9599 22.9594C39.8802 22.0391 41.1795 21.6665 42.667 21.6665L45.3336 21.6665C46.8211 21.6665 48.1204 22.0391 49.0408 22.9594C49.9611 23.8797 50.3336 25.179 50.3336 26.6665L50.3336 29.3332C50.3336 30.8206 49.9611 32.1199 49.0408 33.0403C48.1204 33.9606 46.8211 34.3332 45.3336 34.3332L42.667 34.3332C41.1795 34.3332 39.8802 33.9606 38.9599 33.0403C38.0396 32.1199 37.667 30.8206 37.667 29.3332L37.667 26.6665C37.667 25.179 38.0396 23.8797 38.9599 22.9594ZM40.3741 24.3736C39.9611 24.7866 39.667 25.4873 39.667 26.6665L39.667 29.3332C39.667 30.5124 39.9611 31.2131 40.3741 31.6261C40.7871 32.0391 41.4878 32.3332 42.667 32.3332L45.3336 32.3332C46.5128 32.3332 47.2136 32.0391 47.6266 31.6261C48.0396 31.2131 48.3336 30.5124 48.3336 29.3332L48.3336 26.6665C48.3336 25.4873 48.0396 24.7866 47.6266 24.3736C47.2136 23.9606 46.5128 23.6665 45.3336 23.6665L42.667 23.6665C41.4878 23.6665 40.7871 23.9606 40.3741 24.3736Z" fill="#A4A4A4" fill-opacity="1.000000" fill-rule="evenodd"/>
	<path id="Vector (Stroke)" d="M22.9599 38.9594C23.8802 38.0391 25.1795 37.6665 26.667 37.6665L29.3336 37.6665C30.8211 37.6665 32.1204 38.0391 33.0408 38.9594C33.9611 39.8798 34.3336 41.179 34.3336 42.6665L34.3336 45.3332C34.3336 46.8207 33.9611 48.1199 33.0408 49.0403C32.1204 49.9606 30.8211 50.3332 29.3336 50.3332L26.667 50.3332C25.1795 50.3332 23.8802 49.9606 22.9599 49.0403C22.0396 48.1199 21.667 46.8207 21.667 45.3332L21.667 42.6665C21.667 41.179 22.0396 39.8798 22.9599 38.9594ZM24.3741 40.3736C23.9611 40.7866 23.667 41.4873 23.667 42.6665L23.667 45.3332C23.667 46.5123 23.9611 47.2131 24.3741 47.626C24.7871 48.0391 25.4878 48.3332 26.667 48.3332L29.3336 48.3332C30.5128 48.3332 31.2136 48.0391 31.6266 47.626C32.0396 47.2131 32.3336 46.5123 32.3336 45.3332L32.3336 42.6665C32.3336 41.4873 32.0396 40.7866 31.6266 40.3736C31.2136 39.9606 30.5128 39.6665 29.3336 39.6665L26.667 39.6665C25.4878 39.6665 24.7871 39.9606 24.3741 40.3736Z" fill="#A4A4A4" fill-opacity="1.000000" fill-rule="evenodd"/>
	<path id="Vector (Stroke)" d="M28.0003 23.6665C25.6071 23.6665 23.667 25.6066 23.667 27.9998C23.667 30.3931 25.6071 32.3332 28.0003 32.3332C30.3936 32.3332 32.3336 30.3931 32.3336 27.9998C32.3336 25.6066 30.3936 23.6665 28.0003 23.6665ZM21.667 27.9998C21.667 24.502 24.5025 21.6665 28.0003 21.6665C31.4981 21.6665 34.3336 24.502 34.3336 27.9998C34.3336 31.4977 31.4981 34.3332 28.0003 34.3332C24.5025 34.3332 21.667 31.4977 21.667 27.9998Z" fill="#A4A4A4" fill-opacity="1.000000" fill-rule="evenodd"/>
	<path id="Vector (Stroke)" d="M44.0003 39.6665C41.6071 39.6665 39.667 41.6066 39.667 43.9998C39.667 46.3931 41.6071 48.3332 44.0003 48.3332C46.3936 48.3332 48.3336 46.3931 48.3336 43.9998C48.3336 41.6066 46.3936 39.6665 44.0003 39.6665ZM37.667 43.9998C37.667 40.502 40.5025 37.6665 44.0003 37.6665C47.4981 37.6665 50.3336 40.502 50.3336 43.9998C50.3336 47.4976 47.4981 50.3332 44.0003 50.3332C40.5025 50.3332 37.667 47.4976 37.667 43.9998Z" fill="#A4A4A4" fill-opacity="1.000000" fill-rule="evenodd"/>
</svg>
