<svg width="72.000000" height="72.000000" viewBox="0 0 72 72" fill="none" xmlns="http://www.w3.org/2000/svg" xmlns:xlink="http://www.w3.org/1999/xlink">
	<desc>
			Created with Pixso.
	</desc>
	<defs/>
	<rect id="Rectangle 136" rx="20.000000" width="72.000000" height="72.000000" fill="#262626" fill-opacity="1.000000"/>
	<rect id="vuesax/linear/group" width="32.000000" height="32.000000" transform="translate(20.000000 20.000000)" fill="#FFFFFF" fill-opacity="0"/>
	<path id="Vector (Stroke)" d="M22.4734 24.913C23.5496 22.9821 25.6233 21.6665 28.0002 21.6665L40.0002 21.6665C40.5525 21.6665 41.0002 22.1142 41.0002 22.6665L41.0002 35.9998C41.0002 38.0188 39.3525 39.6665 37.3335 39.6665L36.0002 39.6665C35.4479 39.6665 35.0002 39.2188 35.0002 38.6665C35.0002 38.1142 35.4479 37.6665 36.0002 37.6665L37.3335 37.6665C38.2479 37.6665 39.0002 36.9142 39.0002 35.9998L39.0002 23.6665L28.0002 23.6665C26.3771 23.6665 24.9575 24.5642 24.2203 25.8867C23.9515 26.3691 23.3424 26.5422 22.86 26.2733C22.3776 26.0044 22.2045 25.3954 22.4734 24.913Z" fill="#A4A4A4" fill-opacity="1.000000" fill-rule="evenodd"/>
	<path id="Vector (Stroke)" d="M39.0003 26.6665C39.0003 26.1142 39.448 25.6665 40.0003 25.6665L42.4537 25.6665C43.7788 25.6665 44.984 26.3838 45.6385 27.511L45.6418 27.5167L45.6418 27.5168L47.9217 31.5034C48.0987 31.8129 48.0975 32.1932 47.9186 32.5016C47.7397 32.81 47.4102 32.9998 47.0536 32.9998L45.3337 32.9998C45.1526 32.9998 45.0003 33.1521 45.0003 33.3332L45.0003 37.3332C45.0003 37.5142 45.1526 37.6665 45.3337 37.6665L49.3337 37.6665C49.8859 37.6665 50.3337 38.1142 50.3337 38.6665L50.3337 42.6665C50.3337 45.4321 48.0993 47.6665 45.3337 47.6665L44.0003 47.6665C43.448 47.6665 43.0003 47.2188 43.0003 46.6665C43.0003 45.7521 42.248 44.9998 41.3337 44.9998C40.4193 44.9998 39.667 45.7521 39.667 46.6665C39.667 47.2188 39.2193 47.6665 38.667 47.6665L33.3337 47.6665C32.7814 47.6665 32.3337 47.2188 32.3337 46.6665C32.3337 45.7521 31.5814 44.9998 30.667 44.9998C29.7526 44.9998 29.0003 45.7521 29.0003 46.6665C29.0003 47.2188 28.5526 47.6665 28.0003 47.6665L26.667 47.6665C23.9014 47.6665 21.667 45.4321 21.667 42.6665C21.667 42.1142 22.1147 41.6665 22.667 41.6665C23.2193 41.6665 23.667 42.1142 23.667 42.6665C23.667 44.3276 25.0059 45.6665 26.667 45.6665L27.1394 45.6665C27.5767 44.1306 28.9945 42.9998 30.667 42.9998C32.3395 42.9998 33.7573 44.1306 34.1946 45.6665L37.8061 45.6665C38.2434 44.1306 39.6611 42.9998 41.3337 42.9998C43.0062 42.9998 44.424 44.1306 44.8613 45.6665L45.3337 45.6665C46.9947 45.6665 48.3337 44.3276 48.3337 42.6665L48.3337 39.6665L45.3337 39.6665C44.048 39.6665 43.0003 38.6188 43.0003 37.3332L43.0003 33.3332C43.0003 32.0489 44.0459 31.002 45.3298 30.9998L43.9089 28.5153C43.9084 28.5145 43.9079 28.5137 43.9074 28.5128C43.6017 27.9882 43.0476 27.6665 42.4537 27.6665L41.0003 27.6665L41.0003 35.9998C41.0003 38.0188 39.3526 39.6665 37.3337 39.6665L36.0003 39.6665C35.448 39.6665 35.0003 39.2188 35.0003 38.6665C35.0003 38.1142 35.448 37.6665 36.0003 37.6665L37.3337 37.6665C38.248 37.6665 39.0003 36.9142 39.0003 35.9998L39.0003 26.6665Z" fill="#A4A4A4" fill-opacity="1.000000" fill-rule="evenodd"/>
	<path id="Vector (Stroke)" d="M30.6667 45C29.7462 45 29 45.7462 29 46.6667C29 47.5872 29.7462 48.3333 30.6667 48.3333C31.5871 48.3333 32.3333 47.5872 32.3333 46.6667C32.3333 45.7462 31.5871 45 30.6667 45ZM27 46.6667C27 44.6416 28.6416 43 30.6667 43C32.6917 43 34.3333 44.6416 34.3333 46.6667C34.3333 48.6917 32.6917 50.3333 30.6667 50.3333C28.6416 50.3333 27 48.6917 27 46.6667Z" fill="#A4A4A4" fill-opacity="1.000000" fill-rule="evenodd"/>
	<path id="Vector (Stroke)" d="M41.3337 45C40.4132 45 39.667 45.7462 39.667 46.6667C39.667 47.5872 40.4132 48.3333 41.3337 48.3333C42.2541 48.3333 43.0003 47.5872 43.0003 46.6667C43.0003 45.7462 42.2541 45 41.3337 45ZM37.667 46.6667C37.667 44.6416 39.3086 43 41.3337 43C43.3587 43 45.0003 44.6416 45.0003 46.6667C45.0003 48.6917 43.3587 50.3333 41.3337 50.3333C39.3086 50.3333 37.667 48.6917 37.667 46.6667Z" fill="#A4A4A4" fill-opacity="1.000000" fill-rule="evenodd"/>
	<path id="Vector (Stroke)" d="M45.3333 33C45.1523 33 45 33.1523 45 33.3333L45 37.3333C45 37.5144 45.1523 37.6667 45.3333 37.6667L48.3333 37.6667L48.3333 36.265L46.4723 33L45.3333 33ZM43 33.3333C43 32.0477 44.0477 31 45.3333 31L47.0533 31C47.4125 31 47.7442 31.1927 47.9221 31.5048L50.2021 35.5048C50.2881 35.6557 50.3333 35.8263 50.3333 36L50.3333 38.6667C50.3333 39.2189 49.8856 39.6667 49.3333 39.6667L45.3333 39.6667C44.0477 39.6667 43 38.619 43 37.3333L43 33.3333Z" fill="#A4A4A4" fill-opacity="1.000000" fill-rule="evenodd"/>
	<path id="Vector (Stroke)" d="M21.667 30.6665C21.667 30.1142 22.1147 29.6665 22.667 29.6665L30.667 29.6665C31.2193 29.6665 31.667 30.1142 31.667 30.6665C31.667 31.2188 31.2193 31.6665 30.667 31.6665L22.667 31.6665C22.1147 31.6665 21.667 31.2188 21.667 30.6665Z" fill="#A4A4A4" fill-opacity="1.000000" fill-rule="evenodd"/>
	<path id="Vector (Stroke)" d="M21.667 34.6665C21.667 34.1142 22.1147 33.6665 22.667 33.6665L28.0003 33.6665C28.5526 33.6665 29.0003 34.1142 29.0003 34.6665C29.0003 35.2188 28.5526 35.6665 28.0003 35.6665L22.667 35.6665C22.1147 35.6665 21.667 35.2188 21.667 34.6665Z" fill="#A4A4A4" fill-opacity="1.000000" fill-rule="evenodd"/>
	<path id="Vector (Stroke)" d="M21.667 38.6665C21.667 38.1142 22.1147 37.6665 22.667 37.6665L25.3337 37.6665C25.8859 37.6665 26.3337 38.1142 26.3337 38.6665C26.3337 39.2188 25.8859 39.6665 25.3337 39.6665L22.667 39.6665C22.1147 39.6665 21.667 39.2188 21.667 38.6665Z" fill="#A4A4A4" fill-opacity="1.000000" fill-rule="evenodd"/>
</svg>
