<svg width="72.000000" height="72.000000" viewBox="0 0 72 72" fill="none" xmlns="http://www.w3.org/2000/svg" xmlns:xlink="http://www.w3.org/1999/xlink">
	<desc>
			Created with Pixso.
	</desc>
	<defs/>
	<rect id="Rectangle 137" rx="20.000000" width="72.000000" height="72.000000" fill="#262626" fill-opacity="1.000000"/>
	<rect id="vuesax/linear/empty-wallet-tick" width="32.000000" height="32.000000" transform="translate(20.000000 20.000000)" fill="#FFFFFF" fill-opacity="0"/>
	<path id="Vector (Stroke)" d="M28.3463 31.3335C26.1386 31.3335 24.333 33.1391 24.333 35.3468L24.333 39.4478C25.0565 39.1595 25.8441 39.0002 26.6664 39.0002C30.1653 39.0002 32.9997 41.8345 32.9997 45.3335C32.9997 46.4103 32.7261 47.4384 32.2355 48.3335L43.653 48.3335C45.8607 48.3335 47.6664 46.5279 47.6664 44.3201L47.6664 43.7335L46.133 43.7335C44.2536 43.7335 42.4294 42.3592 42.257 40.3291C42.1493 39.1795 42.587 38.1055 43.3454 37.3601C44.0276 36.6644 44.9628 36.2668 45.973 36.2668L47.6664 36.2668L47.6664 35.3468C47.6664 33.1391 45.8607 31.3335 43.653 31.3335L28.3463 31.3335ZM22.333 35.3468C22.333 32.0346 25.0341 29.3335 28.3463 29.3335L43.653 29.3335C46.9653 29.3335 49.6664 32.0346 49.6664 35.3468L49.6664 37.2668C49.6664 37.8191 49.2186 38.2668 48.6664 38.2668L45.973 38.2668C45.4943 38.2668 45.0732 38.4525 44.7695 38.7644L44.7515 38.7824C44.3968 39.1287 44.1986 39.6217 44.2485 40.1453L44.2496 40.1571L44.2495 40.1571C44.3201 41.0037 45.1342 41.7335 46.133 41.7335L48.6664 41.7335C49.2186 41.7335 49.6664 42.1812 49.6664 42.7335L49.6664 44.3201C49.6664 47.6324 46.9653 50.3335 43.653 50.3335L30.173 50.3335C29.7526 50.3335 29.377 50.0705 29.2333 49.6754C29.0895 49.2803 29.2083 48.8375 29.5304 48.5673C29.8543 48.2957 30.1399 47.958 30.3625 47.5763L30.3752 47.5553C30.7723 46.9113 30.9997 46.146 30.9997 45.3335C30.9997 42.9391 29.0607 41.0002 26.6664 41.0002C25.651 41.0002 24.7084 41.356 23.9563 41.9555C23.656 42.1949 23.2451 42.2411 22.899 42.0744C22.553 41.9077 22.333 41.5576 22.333 41.1735L22.333 35.3468Z" fill="#A4A4A4" fill-opacity="1.000000" fill-rule="evenodd"/>
	<path id="Vector (Stroke)" d="M38.7997 25.2669C38.7997 24.1902 37.7236 23.451 36.7274 23.8286L26.1402 27.8288C25.0512 28.2411 24.333 29.2808 24.333 30.4536L24.333 36.5468C24.333 37.0991 23.8853 37.5468 23.333 37.5468C22.7807 37.5468 22.333 37.0991 22.333 36.5468L22.333 30.4536C22.333 28.4531 23.5617 26.666 25.4324 25.9582L36.0186 21.9584C38.3291 21.0827 40.7997 22.7969 40.7997 25.2669L40.7997 30.3335C40.7997 30.8858 40.352 31.3335 39.7997 31.3335C39.2474 31.3335 38.7997 30.8858 38.7997 30.3335L38.7997 25.2669Z" fill="#A4A4A4" fill-opacity="1.000000" fill-rule="evenodd"/>
	<path id="Vector (Stroke)" d="M45.9715 38.2671C45.4927 38.2671 45.0717 38.4527 44.7679 38.7646L44.75 38.7827C44.3953 39.1289 44.1971 39.6219 44.247 40.1456L44.2481 40.1573L44.248 40.1573C44.3186 41.004 45.1327 41.7337 46.1315 41.7337L48.7218 41.7337C48.9373 41.7198 49.0781 41.5513 49.0781 41.3738L49.0781 38.627C49.0781 38.4495 48.9373 38.281 48.7218 38.2671L45.9715 38.2671ZM43.3439 37.3604C44.026 36.6646 44.9613 36.2671 45.9715 36.2671L48.7448 36.2671C48.7567 36.2671 48.7686 36.2673 48.7805 36.2677C50.0511 36.3131 51.0781 37.3413 51.0781 38.627L51.0781 41.3738C51.0781 42.6595 50.0511 43.6877 48.7805 43.7331C48.7686 43.7335 48.7567 43.7337 48.7448 43.7337L46.1315 43.7337C44.2521 43.7337 42.4279 42.3594 42.2554 40.3293C42.1478 39.1797 42.5854 38.1058 43.3439 37.3604Z" fill="#A4A4A4" fill-opacity="1.000000" fill-rule="evenodd"/>
	<path id="Vector (Stroke)" d="M28.333 36C28.333 35.4477 28.7807 35 29.333 35L38.6664 35C39.2186 35 39.6664 35.4477 39.6664 36C39.6664 36.5523 39.2186 37 38.6664 37L29.333 37C28.7807 37 28.333 36.5523 28.333 36Z" fill="#A4A4A4" fill-opacity="1.000000" fill-rule="evenodd"/>
	<path id="Vector (Stroke)" d="M26.6664 41C25.651 41 24.7084 41.3558 23.9563 41.9553L23.9546 41.9567L23.9546 41.9567C22.961 42.7451 22.333 43.9661 22.333 45.3333C22.333 46.1458 22.5604 46.9111 22.9575 47.5551L22.9659 47.5687L22.9658 47.5688C23.7122 48.8236 25.0852 49.6667 26.6664 49.6667C27.7633 49.6667 28.7523 49.2666 29.5041 48.59C29.5127 48.5823 29.5215 48.5746 29.5304 48.5671C29.8543 48.2955 30.1399 47.9579 30.3625 47.5761L30.3752 47.5551C30.7723 46.9111 30.9997 46.1458 30.9997 45.3333C30.9997 42.939 29.0607 41 26.6664 41ZM22.7106 40.3907C23.7983 39.5239 25.1754 39 26.6664 39C30.1653 39 32.9997 41.8344 32.9997 45.3333C32.9997 46.5165 32.6694 47.6407 32.0839 48.5945C31.7505 49.1633 31.323 49.6713 30.8291 50.0882C29.7158 51.0846 28.2566 51.6667 26.6664 51.6667C24.3571 51.6667 22.3455 50.4328 21.251 48.5981C20.6641 47.6436 20.333 46.518 20.333 45.3333C20.333 43.341 21.2513 41.549 22.7106 40.3907Z" fill="#A4A4A4" fill-opacity="1.000000" fill-rule="evenodd"/>
	<path id="Vector (Stroke)" d="M29.482 43.3472C29.857 43.7526 29.8323 44.3853 29.4269 44.7603L26.5869 47.3869C26.1925 47.7516 25.5806 47.7397 25.2008 47.3599L23.8808 46.0399C23.4903 45.6494 23.4903 45.0162 23.8808 44.6257C24.2713 44.2351 24.9045 44.2351 25.295 44.6257L25.9349 45.2656L28.0689 43.292C28.4744 42.917 29.107 42.9417 29.482 43.3472Z" fill="#A4A4A4" fill-opacity="1.000000" fill-rule="evenodd"/>
</svg>
