<svg width="147.359375" height="39.997543" viewBox="0 0 147.359 39.9975" fill="none" xmlns="http://www.w3.org/2000/svg" xmlns:xlink="http://www.w3.org/1999/xlink">
	<desc>
			Created with Pixso.
	</desc>
	<defs>
		<clipPath id="clip1_606">
			<rect id="630bb0a3939978434668c079_logo-growfy.svg" width="147.359375" height="39.997543" fill="white" fill-opacity="0"/>
		</clipPath>
	</defs>
	<g clip-path="url(#clip1_606)">
		<path id="Vector" d="M57.6049 17.3884C57.2583 16.7498 56.7565 16.2664 56.0997 15.938C55.4611 15.5914 54.704 15.418 53.8283 15.418C52.3139 15.418 51.1008 15.9198 50.1885 16.9232C49.2762 17.9084 48.8202 19.2311 48.8202 20.8913C48.8202 22.661 49.2946 24.0477 50.2432 25.0511C51.2102 26.0363 52.5329 26.5289 54.2114 26.5289C55.3608 26.5289 56.3278 26.237 57.1123 25.6532C57.9151 25.0693 58.4988 24.2301 58.8638 23.1354L52.9252 23.1354L52.9252 19.6872L63.1056 19.6872L63.1056 24.0385C62.759 25.2061 62.166 26.2918 61.3268 27.2952C60.5058 28.2986 59.4567 29.1105 58.1796 29.7308C56.9025 30.3511 55.4611 30.6613 53.8556 30.6613C51.9582 30.6613 50.2614 30.2508 48.7654 29.4298C47.2876 28.5906 46.1291 27.432 45.2899 25.9542C44.4688 24.4764 44.0583 22.7888 44.0583 20.8913C44.0583 18.9939 44.4688 17.3063 45.2899 15.8285C46.1291 14.3325 47.2876 13.1739 48.7654 12.3529C50.2432 11.5137 51.9308 11.0941 53.8283 11.0941C56.1271 11.0941 58.061 11.6505 59.63 12.7634C61.2173 13.8763 62.2664 15.418 62.7772 17.3884L57.6049 17.3884ZM70.3775 17.7989C70.9248 16.9597 71.609 16.3029 72.43 15.8285C73.251 15.3359 74.1632 15.0896 75.1666 15.0896L75.1666 20.043L73.8804 20.043C72.7128 20.043 71.8371 20.2984 71.2532 20.8092C70.6693 21.3018 70.3775 22.1776 70.3775 23.4365L70.3775 30.5244L65.6978 30.5244L65.6978 15.2538L70.3775 15.2538L70.3775 17.7989ZM84.3546 30.7434C82.8585 30.7434 81.5085 30.4241 80.3043 29.7855C79.1184 29.1469 78.1788 28.2348 77.4856 27.0489C76.8104 25.8629 76.473 24.4764 76.473 22.8891C76.473 21.3201 76.8196 19.9427 77.5129 18.7567C78.2061 17.5526 79.1549 16.6313 80.3591 15.9927C81.5632 15.3541 82.9132 15.0349 84.4093 15.0349C85.9054 15.0349 87.2555 15.3541 88.4596 15.9927C89.6638 16.6313 90.6124 17.5526 91.3058 18.7567C91.999 19.9427 92.3457 21.3201 92.3457 22.8891C92.3457 24.4582 91.9899 25.8447 91.2784 27.0489C90.5851 28.2348 89.6272 29.1469 88.4049 29.7855C87.2007 30.4241 85.8506 30.7434 84.3546 30.7434ZM84.3546 26.6931C85.2486 26.6931 86.0057 26.3647 86.626 25.7079C87.2645 25.0511 87.5839 24.1115 87.5839 22.8891C87.5839 21.6668 87.2737 20.7271 86.6534 20.0703C86.0513 19.4135 85.3033 19.0851 84.4093 19.0851C83.4971 19.0851 82.74 19.4135 82.1379 20.0703C81.5358 20.7089 81.2348 21.6485 81.2348 22.8891C81.2348 24.1115 81.5267 25.0511 82.1105 25.7079C82.7126 26.3647 83.4606 26.6931 84.3546 26.6931ZM116.749 15.2538L112.616 30.5244L107.444 30.5244L105.036 20.6177L102.546 30.5244L97.4009 30.5244L93.2411 15.2538L97.9208 15.2538L100.083 26.1731L102.655 15.2538L107.608 15.2538L110.208 26.1184L112.343 15.2538L116.749 15.2538ZM126.196 19.1399L123.679 19.1399L123.679 30.5244L118.999 30.5244L118.999 19.1399L117.302 19.1399L117.302 15.2538L118.999 15.2538L118.999 14.8159C118.999 12.9368 119.537 11.5137 120.614 10.5467C121.69 9.56152 123.268 9.06892 125.348 9.06892C125.694 9.06892 125.95 9.07804 126.114 9.09628L126.114 13.0645C125.221 13.0097 124.591 13.1374 124.226 13.4476C123.861 13.7578 123.679 14.3142 123.679 15.117L123.679 15.2538L126.196 15.2538L126.196 19.1399ZM143.994 15.2538L134.416 37.7766L129.38 37.7766L132.883 30.0045L126.671 15.2538L131.898 15.2538L135.429 24.8048L138.931 15.2538L143.994 15.2538Z" fill="#FFFFFF" fill-opacity="1.000000" fill-rule="nonzero"/>
		<path id="Vector" d="M23.1565 12.6308C23.1565 8.56157 26.4552 5.26283 30.5244 5.26283L37.8924 5.26283L37.8924 12.6308C37.8924 16.7 34.5937 19.9988 30.5244 19.9988C26.4552 19.9988 23.1565 16.7 23.1565 12.6308Z" fill="#FF6D35" fill-opacity="1.000000" fill-rule="nonzero"/>
		<path id="Vector" d="M30.5243 37.6759C26.4551 37.6759 23.1564 34.3772 23.1564 30.3079L23.1564 22.94L30.5243 22.94C34.5936 22.94 37.8923 26.2387 37.8923 30.3079C37.8923 34.3772 34.5936 37.6759 30.5243 37.6759Z" fill="#5CC97B" fill-opacity="1.000000" fill-rule="nonzero"/>
		<path id="Vector" d="M20.8348 20.6509C20.8348 12.4742 14.7086 5.84571 7.15147 5.84571L7.15147 30.0202C7.15147 34.1084 10.2146 37.4228 13.9932 37.4228C17.7717 37.4228 20.8348 34.1084 20.8348 30.0202L20.8348 20.6509Z" fill="#3D96F4" fill-opacity="1.000000" fill-rule="nonzero"/>
	</g>
</svg>
