<svg width="25.000000" height="25.000000" viewBox="0 0 25 25" fill="none" xmlns="http://www.w3.org/2000/svg" xmlns:xlink="http://www.w3.org/1999/xlink">
	<desc>
			Created with Pixso.
	</desc>
	<defs/>
	<path id="Vector" d="M14.69 12.5C14.69 13.71 13.71 14.69 12.5 14.69C11.28 14.69 10.3 13.71 10.3 12.5C10.3 11.28 11.28 10.3 12.5 10.3C13.71 10.3 14.69 11.28 14.69 12.5Z" fill="#FFFFFF" fill-opacity="1.000000" fill-rule="nonzero"/>
	<path id="Vector" d="M16.21 5.85L8.78 5.85C7.17 5.85 5.85 7.17 5.85 8.78L5.85 16.21C5.85 17.82 7.17 19.14 8.78 19.14L16.21 19.14C17.82 19.14 19.14 17.82 19.14 16.21L19.14 8.78C19.14 7.17 17.82 5.85 16.21 5.85ZM12.5 16.16C10.48 16.16 8.83 14.51 8.83 12.5C8.83 10.48 10.48 8.83 12.5 8.83C14.51 8.83 16.16 10.48 16.16 12.5C16.16 14.51 14.51 16.16 12.5 16.16ZM16.69 9.03C16.29 9.03 15.96 8.7 15.96 8.3C15.96 7.89 16.29 7.56 16.69 7.56C17.1 7.56 17.43 7.89 17.43 8.3C17.43 8.7 17.1 9.03 16.69 9.03Z" fill="#FFFFFF" fill-opacity="1.000000" fill-rule="nonzero"/>
	<path id="Vector" d="M18.4 0L6.59 0C2.95 0 0 2.95 0 6.59L0 18.4C0 22.04 2.95 25 6.59 25L18.4 25C22.04 25 25 22.04 25 18.4L25 6.59C25 2.95 22.04 0 18.4 0ZM20.6 16.21C20.6 18.63 18.63 20.6 16.21 20.6L8.78 20.6C6.36 20.6 4.39 18.63 4.39 16.21L4.39 8.78C4.39 6.36 6.36 4.39 8.78 4.39L16.21 4.39C18.63 4.39 20.6 6.36 20.6 8.78L20.6 16.21Z" fill="#FFFFFF" fill-opacity="1.000000" fill-rule="nonzero"/>
</svg>
