<svg width="24.000000" height="24.000000" viewBox="0 0 24 24" fill="none" xmlns="http://www.w3.org/2000/svg" xmlns:xlink="http://www.w3.org/1999/xlink">
	<desc>
			Created with Pixso.
	</desc>
	<defs/>
	<path id="Vector" d="M20.78 -0.69L2.22 -0.69C0.62 -0.69 -0.68 0.62 -0.68 2.21L-0.68 20.77C-0.68 22.37 0.62 23.67 2.22 23.67L20.78 23.67C22.37 23.67 23.68 22.37 23.68 20.77L23.68 2.21C23.68 0.62 22.37 -0.69 20.78 -0.69ZM18.46 9.94C18.33 9.95 18.19 9.96 18.06 9.96C16.54 9.96 15.2 9.18 14.42 8C14.42 11.1 14.42 14.63 14.42 14.69C14.42 17.42 12.21 19.63 9.48 19.63C6.75 19.63 4.53 17.42 4.53 14.69C4.53 11.96 6.75 9.74 9.48 9.74C9.58 9.74 9.68 9.75 9.78 9.76L9.78 12.2C9.68 12.18 9.58 12.17 9.48 12.17C8.08 12.17 6.95 13.3 6.95 14.69C6.95 16.08 8.08 17.21 9.48 17.21C10.87 17.21 12.1 16.12 12.1 14.72C12.1 14.67 12.13 3.36 12.13 3.36L14.46 3.36C14.68 5.44 16.36 7.08 18.46 7.23L18.46 9.94Z" fill="#FFFFFF" fill-opacity="1.000000" fill-rule="nonzero"/>
</svg>
