<svg width="19.500458" height="19.500488" viewBox="0 0 19.5005 19.5005" fill="none" xmlns="http://www.w3.org/2000/svg" xmlns:xlink="http://www.w3.org/1999/xlink">
	<desc>
			Created with Pixso.
	</desc>
	<defs/>
	<path id="shape (Граница)" d="M12.6674 1.49561C12.2499 1.44922 11.9584 1.08496 12.0048 0.66748C12.0511 0.25 12.4156 -0.0415039 12.833 0.00488281C13.0664 0.0307617 13.2973 0.0683594 13.5257 0.117676C14.1195 0.245605 14.6963 0.452148 15.2562 0.737549C15.9913 1.11206 16.666 1.6062 17.2802 2.21948C17.8936 2.83228 18.3879 3.50708 18.763 4.24414C19.04 4.78857 19.243 5.34961 19.3719 5.92725C19.4263 6.17065 19.4675 6.41699 19.4955 6.6665C19.5424 7.08398 19.2513 7.44873 18.8339 7.49561C18.4166 7.54248 18.0518 7.25146 18.0049 6.83398C17.9307 6.17334 17.7377 5.53687 17.4261 4.92456C17.1231 4.3291 16.7211 3.78125 16.2202 3.28101C15.7178 2.77905 15.1694 2.37695 14.5751 2.07397C13.9623 1.76172 13.3264 1.56885 12.6674 1.49561ZM19.4996 16.9368L19.4996 14.2356C19.5062 13.9255 19.4577 13.624 19.3543 13.3313C19.2498 13.0356 19.096 12.7681 18.8929 12.5288C18.6309 12.2202 18.2421 11.9424 17.7265 11.6953C17.3022 11.4917 16.8187 11.3196 16.276 11.1785C15.7649 11.0457 15.2683 10.9573 14.7863 10.9131C14.2613 10.865 13.8256 10.8779 13.4792 10.9517C13.0614 11.0405 12.6525 11.2493 12.2525 11.5776C12.1108 11.6938 11.9604 11.833 11.8012 11.9954C11.7185 12.0796 11.6037 12.2019 11.4567 12.3621C11.0934 12.135 10.7423 11.8921 10.4034 11.6333C9.92426 11.2673 9.46939 10.8696 9.03885 10.4399C8.59552 9.99731 8.18604 9.52905 7.81039 9.03516C7.56387 8.71094 7.33191 8.37573 7.11456 8.02954C7.27423 7.88354 7.39615 7.76929 7.48029 7.68726C7.64285 7.52832 7.78241 7.37817 7.89893 7.23682C8.22812 6.83716 8.43729 6.42871 8.52649 6.01123C8.60034 5.66577 8.61331 5.23145 8.56546 4.7085C8.52158 4.229 8.43347 3.73486 8.30112 3.22559C8.1608 2.68579 7.98941 2.20435 7.78699 1.78125C7.54153 1.26831 7.2659 0.880615 6.96002 0.61792C6.84308 0.517578 6.71918 0.428955 6.58835 0.352295C6.45578 0.274414 6.31607 0.20874 6.16922 0.155273C5.98749 0.0891113 5.80304 0.0439453 5.61588 0.0202637C5.50275 0.00585938 5.38861 -0.000732422 5.2735 0.000244141L2.55765 0.000244141C2.19492 0.000732422 1.84698 0.0773926 1.51379 0.230713C1.37775 0.293457 1.24893 0.366455 1.12735 0.450195C0.966309 0.560791 0.817963 0.690186 0.682281 0.837646C0.54306 0.989258 0.424438 1.15234 0.326416 1.3269C0.256226 1.45215 0.196564 1.58301 0.147491 1.71997C0.0799561 1.90845 0.035614 2.09937 0.0144653 2.29297C-0.00204468 2.44385 -0.00442505 2.59644 0.00732422 2.75049C0.00836182 3.82495 0.105225 4.88184 0.297943 5.9209C0.31076 5.99023 0.324036 6.05933 0.337708 6.12817C0.49295 6.91138 0.701172 7.67603 0.962402 8.42212C1.06509 8.71558 1.17599 9.00586 1.29507 9.29346C1.5401 9.88525 1.81738 10.459 2.12689 11.0149C2.34201 11.4011 2.57272 11.7788 2.81903 12.1477C3.13489 12.6208 3.47336 13.0754 3.83444 13.511C4.1546 13.8972 4.49255 14.2688 4.8483 14.6257C5.21994 14.9985 5.60767 15.3518 6.01144 15.6855C6.43076 16.0325 6.86743 16.3582 7.32141 16.6631C7.69669 16.915 8.08099 17.1506 8.47437 17.3704C9.02405 17.677 9.5914 17.9521 10.1764 18.1958C11.1975 18.6206 12.2554 18.9421 13.3501 19.1599C14.4606 19.3811 15.5925 19.4922 16.7457 19.4932C17.0986 19.52 17.4433 19.4731 17.7798 19.3523C18.1091 19.2344 18.4041 19.0554 18.6646 18.8157C18.9245 18.5767 19.1271 18.2986 19.2722 17.9812C19.4249 17.6475 19.5007 17.2993 19.4996 16.9368ZM17.9996 14.2268L17.9996 16.9368C18.0002 17.0806 17.9698 17.2227 17.9082 17.3572C17.847 17.491 17.7606 17.6094 17.6492 17.7117C17.5375 17.8145 17.4124 17.8906 17.2736 17.9404C17.1331 17.9907 16.9899 18.0093 16.844 17.9963C14.7262 17.9978 12.6505 17.6008 10.7528 16.8108C10.2128 16.5862 9.68933 16.3318 9.1825 16.0476C8.83295 15.8518 8.4913 15.6418 8.15756 15.4177C7.74414 15.1401 7.34656 14.8433 6.96478 14.5276C6.59882 14.2249 6.24744 13.9045 5.91055 13.5667C5.58942 13.2444 5.28421 12.9092 4.99496 12.5605C4.66473 12.1626 4.35529 11.7473 4.06662 11.3149C3.84769 10.9871 3.6423 10.6516 3.45047 10.3083C3.16376 9.79565 2.90726 9.26611 2.68097 8.71973C2.42828 8.10938 2.2164 7.48828 2.04532 6.85596C1.68552 5.52612 1.5062 4.14746 1.50732 2.71997C1.49423 2.57544 1.50961 2.36548 1.55954 2.22607C1.57465 2.18384 1.59222 2.14307 1.61227 2.10327C1.65775 2.01343 1.71594 1.92969 1.78683 1.85254C1.85461 1.77881 1.92935 1.71606 2.01102 1.66406C2.05246 1.6377 2.0957 1.61426 2.14072 1.59351C2.22836 1.55322 2.31802 1.52588 2.4097 1.51172C2.45889 1.50415 2.5087 1.50049 2.55905 1.50024L5.2735 1.50024C5.54474 1.4978 5.78128 1.58301 5.98309 1.7561C6.12909 1.88159 6.27933 2.10571 6.43387 2.42871C6.59476 2.76489 6.73325 3.15649 6.84937 3.60303C6.96115 4.03296 7.03525 4.44702 7.07169 4.84521C7.10571 5.2168 7.10168 5.50098 7.05963 5.69775C7.02139 5.87671 6.91528 6.07178 6.74127 6.28296C6.65903 6.38257 6.55591 6.49316 6.43192 6.61426C6.35266 6.69189 6.2287 6.80737 6.06003 6.96094C5.86542 7.13843 5.72229 7.27271 5.63065 7.36426C5.49551 7.49902 5.41782 7.6416 5.39749 7.79199C5.3772 7.94238 5.41428 8.10059 5.50879 8.26636C5.84305 8.85303 6.21283 9.41284 6.6181 9.94556C7.03436 10.4927 7.48807 11.0112 7.97925 11.5015C8.4574 11.9788 8.96262 12.4207 9.49487 12.8269C10.0416 13.2444 10.6168 13.6243 11.2206 13.967C11.5513 14.1545 11.8513 14.1143 12.1205 13.8455C12.2122 13.7542 12.3468 13.6111 12.5245 13.417C12.6785 13.2485 12.7943 13.125 12.8719 13.0459C12.9933 12.9221 13.1041 12.8191 13.2041 12.7371C13.416 12.5632 13.6118 12.457 13.7915 12.4187C13.9895 12.3767 14.2756 12.3728 14.6495 12.407C15.0503 12.4436 15.4667 12.5181 15.8987 12.6304C16.3478 12.7471 16.7409 12.8862 17.078 13.0479C17.4015 13.2029 17.6253 13.3535 17.7494 13.4998C17.923 13.7043 18.0063 13.959 17.9996 14.2268ZM12.3938 3.51416C11.9816 3.43359 11.5945 3.69434 11.5141 4.10669C11.4337 4.5188 11.6943 4.90601 12.1066 4.98633C12.4284 5.04907 12.7263 5.14697 13.0002 5.27979C13.2836 5.41724 13.5235 5.58423 13.7198 5.78052C13.9162 5.97681 14.0831 6.2168 14.2206 6.50024C14.3535 6.77417 14.4513 7.07202 14.5141 7.3938C14.5945 7.80615 14.9816 8.06689 15.3938 7.98633C15.806 7.90601 16.0667 7.5188 15.9863 7.10669C15.8986 6.65698 15.7599 6.23657 15.5702 5.8457C15.3592 5.41064 15.0959 5.0354 14.7805 4.71997C14.4651 4.40454 14.0898 4.14136 13.6548 3.93018C13.2638 3.74048 12.8434 3.60181 12.3938 3.51416Z" fill="#7E74F1" fill-opacity="1.000000" fill-rule="evenodd"/>
</svg>
