<svg width="250.000000" height="73.000000" viewBox="0 0 250 73" fill="none" xmlns="http://www.w3.org/2000/svg" xmlns:xlink="http://www.w3.org/1999/xlink">
	<desc>
			Created with Pixso.
	</desc>
	<defs>
		<clipPath id="clip32_153">
			<rect id="CC-Logo-hor-white 1" width="250.000000" height="72.547012" fill="white" fill-opacity="0"/>
		</clipPath>
	</defs>
	<rect id="CC-Logo-hor-white 1" width="250.000000" height="72.547012" fill="#FFFFFF" fill-opacity="0"/>
	<g clip-path="url(#clip32_153)">
		<path id="Vector" d="M114.7 61.5C114.22 62.05 113.64 62.51 112.99 62.85C112.32 63.2 111.57 63.38 110.8 63.38C110.11 63.38 109.42 63.24 108.79 62.95C108.17 62.67 107.61 62.28 107.14 61.79C106.67 61.29 106.29 60.7 106.03 60.06C105.48 58.73 105.48 57.23 106.03 55.89C106.29 55.26 106.67 54.68 107.14 54.18C107.61 53.7 108.17 53.3 108.79 53.02C109.42 52.74 110.11 52.59 110.8 52.59C111.45 52.59 112.09 52.72 112.68 52.99C113.25 53.24 113.77 53.58 114.22 53.99L113.36 55.1C113.03 54.76 112.65 54.48 112.23 54.26C111.79 54.04 111.3 53.92 110.8 53.92C110.3 53.92 109.81 54.03 109.35 54.25C108.91 54.46 108.51 54.76 108.18 55.13C107.85 55.52 107.58 55.95 107.39 56.43C107 57.43 107 58.55 107.39 59.55C107.58 60.02 107.85 60.46 108.18 60.84C108.51 61.2 108.91 61.5 109.35 61.71C109.81 61.92 110.3 62.03 110.8 62.02C111.37 62.03 111.93 61.88 112.43 61.6C112.91 61.33 113.33 60.96 113.67 60.52L114.7 61.5Z" fill="#FFFFFF" fill-opacity="1.000000" fill-rule="nonzero"/>
		<path id="Vector" d="M136.38 55.88C136.11 55.25 135.73 54.67 135.25 54.17C134.78 53.68 134.22 53.29 133.6 53.01C132.97 52.73 132.28 52.58 131.59 52.58C130.89 52.58 130.21 52.73 129.57 53.01C128.95 53.29 128.39 53.68 127.92 54.17C127.44 54.67 127.06 55.25 126.79 55.88C126.25 57.22 126.25 58.72 126.79 60.05C127.05 60.69 127.43 61.27 127.91 61.76C128.38 62.25 128.94 62.65 129.56 62.93C130.19 63.21 130.88 63.36 131.57 63.36C132.27 63.36 132.95 63.21 133.59 62.93C134.21 62.65 134.77 62.25 135.25 61.76C135.73 61.27 136.11 60.69 136.38 60.05C136.65 59.39 136.79 58.68 136.79 57.97C136.79 57.25 136.65 56.54 136.38 55.88ZM135 59.53C134.82 60 134.55 60.43 134.21 60.8C133.88 61.16 133.48 61.45 133.03 61.66C132.58 61.86 132.08 61.97 131.58 61.97C131.08 61.97 130.59 61.86 130.13 61.66C129.68 61.45 129.28 61.16 128.95 60.8C128.61 60.43 128.35 60 128.16 59.53C127.76 58.52 127.76 57.41 128.16 56.41C128.35 55.94 128.62 55.51 128.95 55.14C129.28 54.78 129.68 54.49 130.13 54.28C130.59 54.08 131.08 53.97 131.58 53.97C132.08 53.97 132.58 54.08 133.03 54.28C133.48 54.49 133.88 54.78 134.21 55.14C134.55 55.51 134.81 55.94 135 56.41C135.19 56.9 135.28 57.43 135.28 57.97C135.28 58.5 135.19 59.03 134.99 59.53L135 59.53Z" fill="#FFFFFF" fill-opacity="1.000000" fill-rule="nonzero"/>
		<path id="Vector" d="M156.13 52.72L156.13 59.52C156.13 60.04 156.03 60.55 155.83 61.02C155.64 61.48 155.36 61.9 155.01 62.25C154.66 62.6 154.25 62.88 153.8 63.08C153.33 63.28 152.82 63.38 152.31 63.38C151.79 63.38 151.29 63.28 150.81 63.08C150.36 62.88 149.95 62.6 149.6 62.25C149.25 61.89 148.98 61.48 148.78 61.02C148.58 60.55 148.48 60.04 148.48 59.52L148.48 52.72L149.96 52.72L149.96 59.52C149.96 59.84 150.02 60.16 150.14 60.45C150.26 60.74 150.43 61.01 150.64 61.23C150.86 61.46 151.11 61.65 151.39 61.78C151.68 61.91 152 61.98 152.32 61.97C152.63 61.98 152.94 61.91 153.23 61.78C153.51 61.64 153.76 61.46 153.97 61.23C154.18 61.01 154.35 60.74 154.47 60.45C154.59 60.16 154.65 59.84 154.65 59.52L154.65 52.72L156.13 52.72Z" fill="#FFFFFF" fill-opacity="1.000000" fill-rule="nonzero"/>
		<path id="Vector" d="M175.06 52.72L175.06 54.03L172.17 54.03L172.17 63.23L170.69 63.23L170.69 54.03L167.82 54.03L167.82 52.72L175.06 52.72Z" fill="#FFFFFF" fill-opacity="1.000000" fill-rule="nonzero"/>
		<path id="Vector" d="M194.4 52.72L194.4 59.52C194.4 60.04 194.3 60.55 194.1 61.02C193.9 61.48 193.62 61.89 193.28 62.25C192.93 62.6 192.52 62.88 192.07 63.08C191.59 63.28 191.09 63.38 190.57 63.38C190.06 63.38 189.56 63.28 189.08 63.08C188.63 62.88 188.22 62.6 187.87 62.25C187.52 61.89 187.24 61.48 187.05 61.02C186.85 60.55 186.74 60.04 186.75 59.52L186.75 52.72L188.23 52.72L188.23 59.52C188.23 59.84 188.29 60.16 188.41 60.45C188.53 60.74 188.7 61.01 188.91 61.23C189.12 61.46 189.38 61.65 189.66 61.78C189.95 61.91 190.26 61.97 190.58 61.97C190.9 61.98 191.21 61.91 191.49 61.78C191.77 61.65 192.03 61.46 192.24 61.23C192.45 61.01 192.62 60.74 192.74 60.45C192.86 60.16 192.92 59.84 192.92 59.52L192.92 52.72L194.4 52.72Z" fill="#FFFFFF" fill-opacity="1.000000" fill-rule="nonzero"/>
		<path id="Vector" d="M211.13 58.54L211.19 58.52C211.5 58.44 211.79 58.3 212.06 58.12C212.32 57.94 212.55 57.73 212.74 57.48C212.93 57.23 213.09 56.95 213.19 56.65C213.3 56.34 213.36 56.01 213.35 55.68C213.36 55.28 213.28 54.89 213.12 54.53C212.97 54.18 212.75 53.86 212.48 53.59C212.2 53.32 211.88 53.11 211.52 52.96C211.15 52.8 210.75 52.72 210.35 52.72L206.09 52.72L206.09 63.23L207.57 63.23L207.57 58.66L209.49 58.66L209.5 58.67L212.82 63.23L214.67 63.23L211.13 58.54ZM210.35 57.28L207.57 57.3L207.57 54.02L210.35 54.02C210.56 54.02 210.77 54.07 210.97 54.15C211.15 54.24 211.32 54.36 211.47 54.51C211.61 54.66 211.72 54.83 211.8 55.02C211.88 55.22 211.92 55.43 211.92 55.65C211.92 55.87 211.88 56.08 211.8 56.29C211.72 56.48 211.6 56.65 211.45 56.8C211.31 56.94 211.14 57.06 210.96 57.14C210.77 57.23 210.56 57.28 210.35 57.28Z" fill="#FFFFFF" fill-opacity="1.000000" fill-rule="nonzero"/>
		<path id="Vector" d="M226.53 54.03L226.53 57.01L230.91 57.01L230.91 58.37L226.53 58.37L226.53 61.87L231.45 61.87L231.45 63.23L225.05 63.23L225.05 52.72L231.45 52.72L231.45 54.03L226.53 54.03Z" fill="#FFFFFF" fill-opacity="1.000000" fill-rule="nonzero"/>
		<path id="E" d="M250 13.83L250 9.18L237.08 9.18L232.42 9.18L232.42 37.57L236.66 37.57L249.99 37.57L249.99 32.91L237.08 32.91L237.08 25.01L248.53 25.01L248.53 20.35L237.08 20.35L237.08 13.83L250 13.83Z" fill="#FFFFFF" fill-opacity="1.000000" fill-rule="nonzero"/>
		<path id="I" d="M220.5 9.18L225.15 9.18L225.15 37.57L220.5 37.57L220.5 9.18Z" fill="#FFFFFF" fill-opacity="1.000000" fill-rule="evenodd"/>
		<path id="Vector" d="M212.83 35.1C212.09 35.12 211.36 34.95 210.7 34.62C210.06 34.25 209.48 33.77 209.01 33.19C208.43 32.49 207.93 31.73 207.5 30.92C207.05 30.09 206.54 29.11 205.96 27.92C205.67 27.34 205.35 26.71 204.96 25.96C204.72 25.5 204.46 25.05 204.2 24.63L203.99 24.29L204.26 23.99C204.53 23.69 204.81 23.37 205.08 23.03C205.5 22.5 205.93 21.95 206.33 21.4C207.63 19.54 208.68 17.52 209.46 15.39C210.16 13.47 210.53 11.44 210.55 9.39L210.55 9.17L205.82 9.17L205.82 9.39C205.8 10.95 205.52 12.5 204.98 13.96C204.38 15.64 203.54 17.23 202.49 18.68C202.19 19.07 201.91 19.44 201.63 19.79L201.57 19.86C201.51 19.94 201.46 20.01 201.4 20.09L201.06 20.49L200.65 20.15C200.56 20.07 200.46 20 200.37 19.93C200.02 19.65 199.65 19.4 199.27 19.17C198.96 18.96 198.63 18.77 198.28 18.62C196.88 17.9 195.99 17.81 195.99 17.81L195.99 9.18L191.35 9.18L191.35 17.62C191.35 17.62 191.23 17.65 191.03 17.72C190.98 17.73 190.92 17.75 190.87 17.77L190.74 17.82C190.52 17.91 190.31 18.01 190.11 18.12L189.94 18.22C189.88 18.26 189.82 18.29 189.77 18.33C189.04 18.81 188.44 19.45 188 20.2C187.55 20.95 187.29 21.79 187.22 22.66C187.2 22.85 187.19 23.05 187.19 23.25C187.19 23.4 187.19 23.55 187.2 23.69C187.21 23.78 187.22 23.87 187.23 23.96C187.32 24.9 187.64 25.8 188.16 26.59C188.68 27.37 189.38 28.02 190.21 28.47C190.23 28.48 190.25 28.49 190.26 28.5C190.34 28.53 190.43 28.57 190.51 28.61C190.68 28.68 190.85 28.75 191.02 28.81L191.08 28.83C191.13 28.84 191.19 28.86 191.25 28.87C191.31 28.89 191.32 28.89 191.35 28.9L191.35 37.57L195.99 37.57L195.99 28.88C197.13 28.76 198.24 28.44 199.28 27.94L199.33 27.92C199.36 27.9 199.39 27.88 199.43 27.87C199.75 27.7 200.07 27.52 200.37 27.32L200.64 27.82C200.75 28.03 200.86 28.24 200.98 28.45C201.24 28.96 201.49 29.48 201.73 30.01L201.74 30.05C202.28 31.12 202.86 32.23 203.45 33.34C204.06 34.48 204.8 35.53 205.66 36.49C206.53 37.45 207.55 38.24 208.69 38.85C209.86 39.47 211.25 39.79 212.83 39.79L213.23 39.79L213.23 35.1L212.83 35.1ZM198.28 23.81C198.04 23.93 197.76 24.07 197.44 24.21C196.99 24.4 196.54 24.57 196.08 24.72C195.63 24.87 195.18 24.99 194.71 25.08C194.31 25.16 193.9 25.21 193.49 25.21C193.44 25.21 193.26 25.21 193.21 25.21C192.27 25.21 191.5 24.4 191.49 23.39L191.49 23.37C191.49 23.28 191.5 23.2 191.51 23.11C191.51 23.07 191.52 23.03 191.53 23C191.56 22.76 191.65 22.54 191.78 22.34C191.81 22.29 191.85 22.24 191.89 22.19C191.92 22.14 191.96 22.09 192 22.05C192.08 21.96 192.18 21.88 192.28 21.82C192.52 21.64 192.82 21.54 193.12 21.53C193.17 21.53 193.29 21.53 193.31 21.53C194.29 21.55 195.25 21.77 196.13 22.18C196.91 22.5 197.64 22.93 198.3 23.46C198.39 23.52 198.47 23.6 198.55 23.67C198.46 23.7 198.37 23.75 198.28 23.81Z" fill="#FFFFFF" fill-opacity="1.000000" fill-rule="nonzero"/>
		<path id="Vector" d="M178.83 17.86C178.14 16.19 177.15 14.66 175.91 13.35C174.68 12.06 173.21 11.02 171.58 10.29C169.93 9.55 168.14 9.17 166.33 9.17C164.53 9.17 162.74 9.55 161.09 10.29C159.47 11.02 158.01 12.05 156.79 13.34C155.56 14.66 154.57 16.19 153.88 17.86C153.17 19.59 152.81 21.45 152.82 23.33C152.81 25.2 153.17 27.06 153.88 28.8C154.57 30.48 155.55 32.02 156.79 33.35C158.01 34.64 159.47 35.68 161.09 36.42C162.74 37.17 164.53 37.56 166.34 37.56C168.14 37.56 169.93 37.17 171.58 36.42C173.2 35.68 174.67 34.64 175.91 33.35C177.15 32.02 178.14 30.48 178.82 28.8C179.53 27.06 179.89 25.2 179.89 23.33C179.9 21.45 179.54 19.59 178.83 17.86ZM174.45 27.02C174.01 28.13 173.38 29.15 172.58 30.03C171.8 30.89 170.85 31.59 169.8 32.09C168.72 32.59 167.55 32.85 166.36 32.85C165.18 32.85 164 32.59 162.93 32.09C161.87 31.59 160.93 30.89 160.14 30.03C158.48 28.2 157.57 25.8 157.6 23.33C157.59 22.06 157.82 20.81 158.28 19.62C158.71 18.51 159.35 17.48 160.15 16.59C160.93 15.73 161.87 15.03 162.93 14.52C164 14.02 165.18 13.76 166.36 13.76C167.55 13.76 168.72 14.02 169.8 14.52C170.85 15.02 171.8 15.72 172.58 16.58C173.38 17.47 174.02 18.5 174.45 19.62C174.91 20.8 175.14 22.06 175.13 23.32C175.14 24.59 174.91 25.84 174.45 27.02Z" fill="#FFFFFF" fill-opacity="1.000000" fill-rule="nonzero"/>
		<path id="Vector" d="M144.49 17.86C143.81 16.19 142.83 14.66 141.59 13.35C140.36 12.06 138.89 11.02 137.27 10.29C135.62 9.55 133.83 9.17 132.02 9.17C130.21 9.17 128.42 9.55 126.77 10.29C125.15 11.01 123.69 12.05 122.47 13.34C121.23 14.66 120.25 16.19 119.57 17.86C118.85 19.59 118.49 21.45 118.5 23.33C118.5 25.2 118.86 27.06 119.57 28.8C120.25 30.48 121.23 32.02 122.47 33.35C123.69 34.64 125.15 35.68 126.77 36.42C128.42 37.17 130.2 37.56 132.01 37.56C133.82 37.56 135.61 37.17 137.25 36.42C138.88 35.68 140.35 34.64 141.58 33.35C142.82 32.02 143.81 30.48 144.49 28.8C145.2 27.06 145.56 25.2 145.55 23.33C145.57 21.45 145.21 19.59 144.49 17.86ZM140.12 27.02C139.69 28.13 139.06 29.15 138.26 30.03C137.47 30.89 136.53 31.59 135.47 32.09C134.4 32.59 133.23 32.85 132.04 32.85C130.85 32.85 129.68 32.59 128.6 32.09C127.55 31.59 126.6 30.89 125.81 30.03C124.16 28.19 123.25 25.8 123.27 23.33C123.27 22.06 123.5 20.81 123.96 19.62C124.39 18.51 125.02 17.48 125.82 16.59C126.6 15.73 127.55 15.03 128.6 14.52C129.67 14.02 130.85 13.76 132.03 13.76C133.22 13.76 134.39 14.02 135.47 14.52C136.52 15.02 137.47 15.73 138.26 16.59C139.06 17.48 139.69 18.51 140.12 19.62C140.58 20.81 140.81 22.06 140.81 23.33C140.81 24.59 140.58 25.84 140.12 27.02Z" fill="#FFFFFF" fill-opacity="1.000000" fill-rule="nonzero"/>
		<path id="Vector" d="M111.23 32.08C109.9 33.72 108.26 35.07 106.39 36.06C104.54 37.04 102.48 37.56 100.38 37.57C98.59 37.58 96.81 37.19 95.19 36.44C93.59 35.69 92.15 34.65 90.95 33.36C89.73 32.04 88.77 30.51 88.11 28.84C87.42 27.08 87.07 25.22 87.09 23.33C87.07 21.46 87.44 19.6 88.15 17.86C88.84 16.2 89.82 14.67 91.05 13.35C92.27 12.06 93.73 11.02 95.35 10.29C97 9.55 98.79 9.17 100.6 9.17C102.29 9.17 103.96 9.5 105.52 10.14C106.91 10.71 108.3 11.65 109.65 12.92L106.95 16.19C105.94 15.33 104.96 14.74 104.03 14.4C102.92 14.01 101.76 13.81 100.59 13.81C99.39 13.81 98.21 14.06 97.12 14.57C96.07 15.06 95.11 15.75 94.31 16.61C93.5 17.48 92.86 18.51 92.43 19.62C91.97 20.8 91.74 22.06 91.75 23.33C91.74 24.59 91.97 25.84 92.43 27.02C92.87 28.13 93.5 29.15 94.3 30.03C95.09 30.9 96.05 31.6 97.12 32.09C98.2 32.6 99.38 32.85 100.58 32.85C102.01 32.84 103.43 32.51 104.72 31.88C105.88 31.33 107.06 30.44 108.23 29.24L111.23 32.08Z" fill="#FFFFFF" fill-opacity="1.000000" fill-rule="nonzero"/>
		<path id="Vector" d="M72.52 34.95C72.51 34.9 72.5 34.85 72.48 34.8C72.45 34.76 72.42 34.72 72.38 34.68C72.34 34.65 72.29 34.63 72.24 34.62C72.19 34.61 72.13 34.61 72.08 34.62C70.67 34.9 69.21 34.83 67.83 34.41C66.32 33.95 64.95 33.09 63.88 31.93C62.81 30.76 62.07 29.33 61.74 27.78C61.62 27.26 61.34 26.8 60.92 26.46C60.51 26.13 59.99 25.94 59.46 25.95L59.41 25.95C57.22 25.95 55.06 25.37 53.16 24.27C51.26 23.17 49.68 21.59 48.59 19.68C47.49 17.78 46.92 15.62 46.93 13.42C46.94 11.22 47.53 9.07 48.64 7.17C49.37 5.92 50.32 4.81 51.44 3.87C51.48 3.84 51.52 3.79 51.54 3.73C51.56 3.67 51.57 3.61 51.56 3.56C51.55 3.5 51.53 3.44 51.49 3.39C51.45 3.34 51.41 3.31 51.35 3.28C50.02 2.67 48.65 2.14 47.25 1.69C47.19 1.67 47.12 1.67 47.05 1.69C46.98 1.7 46.92 1.74 46.88 1.79C45.8 2.95 44.89 4.24 44.17 5.65C42.9 8.11 42.26 10.85 42.28 13.62C42.31 16.39 43 19.11 44.31 21.55C45.62 23.99 47.5 26.08 49.79 27.64C52.08 29.2 54.72 30.17 57.47 30.49C57.53 30.5 57.59 30.52 57.65 30.56C57.7 30.6 57.73 30.65 57.76 30.72C58.72 33.28 60.45 35.49 62.7 37.05C64.95 38.61 67.63 39.44 70.36 39.44C70.95 39.44 71.54 39.4 72.12 39.33C72.21 39.32 72.28 39.28 72.34 39.22C72.39 39.16 72.43 39.08 72.44 39C72.51 38.1 72.54 37.19 72.54 36.27C72.54 35.83 72.53 35.39 72.52 34.95Z" fill="#FFFFFF" fill-opacity="1.000000" fill-rule="nonzero"/>
		<path id="Vector" d="M60.74 41.31C58.33 53.04 47.68 61.79 35.12 61.23C22.09 60.64 11.62 49.93 11.29 36.89C10.95 22.83 22.29 11.28 36.27 11.28C36.76 11.28 37.24 11.3 37.73 11.33C37.68 11.81 37.65 12.3 37.63 12.79C37.18 12.76 36.71 12.75 36.24 12.75C24.07 12.77 13.79 22.23 12.83 34.36C11.73 48.19 22.67 59.79 36.27 59.79C47.82 59.79 57.46 51.4 59.42 40.4C59.85 40.73 60.29 41.03 60.74 41.31Z" fill="#FFFFFF" fill-opacity="1.000000" fill-rule="nonzero"/>
		<path id="Vector" d="M71.68 44.05C71.68 44.05 71.68 44.05 71.69 44.05C71.69 44.05 71.69 44.05 71.69 44.05C71.69 44.05 71.69 44.06 71.69 44.06C71.69 44.06 71.69 44.06 71.69 44.06C68.12 60.33 53.59 72.54 36.27 72.54C16.27 72.54 0 56.27 0 36.27C0 16.26 16.27 0 36.27 0C38.17 -0.01 40.06 0.14 41.93 0.44C41.93 0.44 41.94 0.44 41.94 0.44C41.94 0.44 41.94 0.44 41.94 0.44C41.94 0.44 41.94 0.45 41.94 0.45C41.94 0.45 41.94 0.45 41.94 0.45C40.94 1.8 40.09 3.26 39.42 4.8C39.42 4.8 39.42 4.8 39.41 4.8C39.41 4.8 39.41 4.8 39.41 4.8C38.37 4.7 37.33 4.64 36.27 4.64C19.82 4.65 6.27 17.27 4.78 33.34C2.95 53.22 20.12 69.99 39.95 67.67C53.14 66.13 63.88 56.44 66.98 43.78C66.98 43.78 66.98 43.78 66.98 43.78C66.99 43.77 66.99 43.77 66.99 43.77C68.1 43.99 69.23 44.09 70.36 44.1C70.81 44.1 71.24 44.09 71.68 44.05Z" fill="#FFFFFF" fill-opacity="1.000000" fill-rule="nonzero"/>
	</g>
</svg>
