<svg width="171.000000" height="57.000000" viewBox="0 0 171 57" fill="none" xmlns="http://www.w3.org/2000/svg" xmlns:xlink="http://www.w3.org/1999/xlink">
	<desc>
			Created with Pixso.
	</desc>
	<defs/>
	<rect id="Mobile app store badge" rx="7.000000" width="171.000000" height="57.000000" fill="#0C0D10" fill-opacity="1.000000"/>
	<path id="App Store" d="M106.252 43.8774C102.329 43.8774 99.6929 41.8547 99.4968 38.6917L102.219 38.6917C102.451 40.3711 104.094 41.4377 106.46 41.4377C108.667 41.4377 110.286 40.2976 110.286 38.7283C110.286 37.3796 109.256 36.5706 106.914 36.0188L104.634 35.467C101.434 34.7192 99.9749 33.1746 99.9749 30.5754C99.9749 27.4246 102.55 25.3281 106.411 25.3281C110.004 25.3281 112.627 27.4246 112.787 30.4038L110.114 30.4038C109.857 28.7732 108.434 27.7556 106.375 27.7556C104.205 27.7556 102.758 28.7976 102.758 30.3916C102.758 31.6543 103.69 32.3777 105.995 32.917L107.944 33.3953C111.573 34.2412 113.069 35.7124 113.069 38.3728C113.069 41.7566 110.445 43.8774 106.252 43.8774ZM64.8242 43.4485L61.9063 43.4485L60.288 38.7529L53.545 38.7529L51.9144 43.4485L49.0946 43.4485L55.4821 25.7573L58.4367 25.7573L64.8242 43.4485ZM116.174 30.6262L116.174 27.3616L118.718 27.3616L118.718 30.6262L121.509 30.6262L121.509 32.7671L118.718 32.7671L118.718 39.3911C118.718 40.7397 119.273 41.3311 120.539 41.3311C120.93 41.3311 121.154 41.3074 121.509 41.272L121.509 43.3892C121.095 43.4602 120.622 43.5193 120.125 43.5193C117.298 43.5193 116.174 42.5259 116.174 40.0417L116.174 32.7671L114.128 32.7671L114.128 30.6262L116.174 30.6262ZM57.0268 28.9692L56.8184 28.9692L54.2438 36.448L59.5892 36.448L57.0268 28.9692ZM134.779 37.0017C134.779 41.1772 132.472 43.6968 128.711 43.6968C124.938 43.6968 122.631 41.1772 122.631 37.0017C122.631 32.8501 124.949 30.3186 128.711 30.3186C132.461 30.3186 134.779 32.8501 134.779 37.0017ZM150.413 41.5322C151.95 41.5322 153.003 40.9763 153.476 39.9707L155.925 39.9707C155.345 42.2773 153.287 43.6968 150.342 43.6968C146.651 43.6968 144.392 41.1655 144.392 37.0491C144.392 32.9329 146.698 30.3186 150.33 30.3186C153.914 30.3186 156.078 32.7671 156.078 36.8125L156.078 37.6997L146.982 37.6997L146.982 37.8416C147.065 40.1008 148.378 41.5322 150.413 41.5322ZM69.1069 32.6963C69.8876 31.2295 71.4017 30.3542 73.1523 30.3542C76.4289 30.3542 78.4989 32.9092 78.4989 37.0017C78.4989 41.0945 76.4289 43.6614 73.176 43.6614C71.3426 43.6614 69.8876 42.8569 69.2134 41.4966L69.0123 41.4966L69.0123 47.7305L66.4692 47.7305L66.4692 30.5671L68.9177 30.5671L68.9177 32.6963L69.1069 32.6963ZM83.3524 32.6963C84.1331 31.2295 85.6471 30.3542 87.3978 30.3542C90.6743 30.3542 92.7443 32.9092 92.7443 37.0017C92.7443 41.0945 90.6743 43.6614 87.4214 43.6614C85.588 43.6614 84.1331 42.8569 83.4588 41.4966L83.2578 41.4966L83.2578 47.7305L80.7146 47.7305L80.7146 30.5671L83.1631 30.5671L83.1631 32.6963L83.3524 32.6963ZM139.296 43.4485L136.752 43.4485L136.752 30.5671L139.201 30.5671L139.201 32.5425L139.39 32.5425C139.757 31.2769 141.188 30.3542 142.868 30.3542C143.246 30.3542 143.731 30.3896 144.003 30.4607L144.003 32.9683C143.79 32.8972 143.033 32.8145 142.584 32.8145C140.656 32.8145 139.296 34.033 139.296 35.8425L139.296 43.4485ZM153.488 35.8188C153.429 33.7964 152.199 32.4834 150.318 32.4834C148.437 32.4834 147.124 33.8081 146.982 35.8188L153.488 35.8188ZM125.257 37.0017C125.257 39.8171 126.499 41.4375 128.711 41.4375C130.911 41.4375 132.165 39.8052 132.165 37.0017C132.165 34.2102 130.911 32.5779 128.711 32.5779C126.499 32.5779 125.257 34.2102 125.257 37.0017ZM68.965 37.0137C68.965 39.6987 70.3016 41.3784 72.4308 41.3784C74.5954 41.3784 75.8847 39.7341 75.8847 37.0017C75.8847 34.2812 74.5954 32.637 72.4426 32.637C70.3016 32.637 68.965 34.3167 68.965 37.0137ZM83.2104 37.0137C83.2104 39.6987 84.5471 41.3784 86.6762 41.3784C88.8409 41.3784 90.1302 39.7341 90.1302 37.0017C90.1302 34.2812 88.8409 32.637 86.688 32.637C84.5471 32.637 83.2104 34.3167 83.2104 37.0137Z" fill="#FFFFFF" fill-opacity="1.000000" fill-rule="evenodd"/>
	<path id="Download on the" d="M84.2033 20.9475L85.4749 20.9475L85.4749 11.9932L84.2033 11.9932L84.2033 20.9475ZM104.328 21.054C105.216 21.054 105.967 20.634 106.351 19.9302L106.452 19.9302L106.452 20.9475L107.67 20.9475L107.67 11.9932L106.398 11.9932L106.398 15.53L106.304 15.53C105.955 14.8203 105.21 14.4004 104.328 14.4004C102.702 14.4004 101.655 15.6897 101.655 17.7241C101.655 19.7646 102.69 21.054 104.328 21.054ZM136.334 20.9475L137.606 20.9475L137.606 17.186C137.606 16.21 138.186 15.5535 139.226 15.5535C140.125 15.5535 140.604 16.074 140.604 17.103L140.604 20.9475L141.876 20.9475L141.876 16.7896C141.876 15.2578 141.03 14.3884 139.658 14.3884C138.688 14.3884 138.008 14.8203 137.695 15.5417L137.594 15.5417L137.594 11.9932L136.334 11.9932L136.334 20.9475ZM50.8029 12.4131L50.8029 20.9475L53.8842 20.9475C56.4274 20.9475 57.9 19.3801 57.9 16.6536C57.9 13.9685 56.4155 12.4131 53.8842 12.4131L50.8029 12.4131ZM131.96 12.9041L131.96 14.5364L130.937 14.5364L130.937 15.6067L131.96 15.6067L131.96 19.2441C131.96 20.4861 132.522 20.9829 133.936 20.9829C134.184 20.9829 134.421 20.9534 134.628 20.918L134.628 19.8591C134.45 19.877 134.338 19.8887 134.143 19.8887C133.51 19.8887 133.232 19.593 133.232 18.9187L133.232 15.6067L134.628 15.6067L134.628 14.5364L133.232 14.5364L133.232 12.9041L131.96 12.9041ZM52.1277 13.6196L53.7364 13.6196C55.5047 13.6196 56.5516 14.7434 56.5516 16.6714C56.5516 18.6289 55.5225 19.741 53.7364 19.741L52.1277 19.741L52.1277 13.6196ZM62.4103 21.0715C64.291 21.0715 65.4443 19.8118 65.4443 17.7241C65.4443 15.6482 64.2851 14.3826 62.4103 14.3826C60.5295 14.3826 59.3703 15.6482 59.3703 17.7241C59.3703 19.8118 60.5236 21.0715 62.4103 21.0715ZM76.73 20.9475L78.0016 20.9475L78.0016 17.1799C78.0016 16.1746 78.5989 15.5476 79.5393 15.5476C80.4797 15.5476 80.9291 16.0623 80.9291 17.0972L80.9291 20.9475L82.2007 20.9475L82.2007 16.7778C82.2007 15.2461 81.4082 14.3826 79.971 14.3826C79.0011 14.3826 78.3623 14.8142 78.0489 15.53L77.9543 15.53L77.9543 14.5068L76.73 14.5068L76.73 20.9475ZM90.2572 21.0715C92.1379 21.0715 93.2912 19.8118 93.2912 17.7241C93.2912 15.6482 92.132 14.3826 90.2572 14.3826C88.3764 14.3826 87.2172 15.6482 87.2172 17.7241C87.2172 19.8118 88.3705 21.0715 90.2572 21.0715ZM96.7546 21.054C97.6004 21.054 98.3042 20.6873 98.6886 20.0425L98.7892 20.0425L98.7892 20.9475L100.013 20.9475L100.013 16.5471C100.013 15.1868 99.1026 14.3826 97.488 14.3826C96.0272 14.3826 94.9863 15.0923 94.8561 16.1982L96.0863 16.1982C96.2283 15.7429 96.7192 15.4827 97.4289 15.4827C98.2983 15.4827 98.7478 15.8669 98.7478 16.5471L98.7478 17.103L97.0031 17.2036C95.4713 17.2983 94.6078 17.9666 94.6078 19.1257C94.6078 20.3027 95.5126 21.054 96.7546 21.054ZM115.916 21.0715C117.797 21.0715 118.95 19.8118 118.95 17.7241C118.95 15.6482 117.791 14.3826 115.916 14.3826C114.035 14.3826 112.876 15.6482 112.876 17.7241C112.876 19.8118 114.029 21.0715 115.916 21.0715ZM120.633 20.9475L121.905 20.9475L121.905 17.1799C121.905 16.1746 122.502 15.5476 123.442 15.5476C124.383 15.5476 124.832 16.0623 124.832 17.0972L124.832 20.9475L126.104 20.9475L126.104 16.7778C126.104 15.2461 125.311 14.3826 123.874 14.3826C122.904 14.3826 122.265 14.8142 121.952 15.53L121.857 15.53L121.857 14.5068L120.633 14.5068L120.633 20.9475ZM148.042 19.2085C147.806 19.7114 147.279 19.9893 146.511 19.9893C145.493 19.9893 144.837 19.2737 144.795 18.144L144.795 18.073L149.343 18.073L149.343 17.6294C149.343 15.6067 148.261 14.3826 146.469 14.3826C144.653 14.3826 143.5 15.6897 143.5 17.7478C143.5 19.8059 144.63 21.0715 146.475 21.0715C147.948 21.0715 148.977 20.3618 149.267 19.2085L148.042 19.2085ZM75.2656 14.5068L73.994 14.5068L72.8466 19.4216L72.7461 19.4216L71.4213 14.5068L70.203 14.5068L68.8782 19.4216L68.7835 19.4216L67.6302 14.5068L66.3409 14.5068L68.1152 20.9475L69.4223 20.9475L70.7471 16.2041L70.8476 16.2041L72.1783 20.9475L73.4972 20.9475L75.2656 14.5068ZM146.463 15.4648C147.404 15.4648 148.019 16.1213 148.048 17.1328L144.795 17.1328C144.866 16.1272 145.523 15.4648 146.463 15.4648ZM62.4103 19.9419C61.3043 19.9419 60.6833 19.1318 60.6833 17.7241C60.6833 16.3284 61.3043 15.5122 62.4103 15.5122C63.5103 15.5122 64.1372 16.3284 64.1372 17.7241C64.1372 19.1257 63.5103 19.9419 62.4103 19.9419ZM90.2572 19.9419C89.1512 19.9419 88.5302 19.1318 88.5302 17.7241C88.5302 16.3284 89.1512 15.5122 90.2572 15.5122C91.3572 15.5122 91.9842 16.3284 91.9842 17.7241C91.9842 19.1257 91.3572 19.9419 90.2572 19.9419ZM115.916 19.9419C114.81 19.9419 114.189 19.1318 114.189 17.7241C114.189 16.3284 114.81 15.5122 115.916 15.5122C117.016 15.5122 117.643 16.3284 117.643 17.7241C117.643 19.1257 117.016 19.9419 115.916 19.9419ZM104.689 15.5417C105.754 15.5417 106.422 16.3875 106.422 17.73C106.422 19.0786 105.76 19.9124 104.689 19.9124C103.613 19.9124 102.968 19.0903 102.968 17.7241C102.968 16.3696 103.619 15.5417 104.689 15.5417ZM97.0799 19.9834C96.388 19.9834 95.8853 19.6462 95.8853 19.0667C95.8853 18.4988 96.2874 18.1973 97.1746 18.1382L98.7478 18.0376L98.7478 18.5757C98.7478 19.3743 98.0381 19.9834 97.0799 19.9834Z" fill="#FFFFFF" fill-opacity="1.000000" fill-rule="evenodd"/>
	<path id="Apple logo" d="M32.9914 12.4268C33.1294 14.2283 32.5596 16.0127 31.4032 17.4009C30.2957 18.7783 28.5582 19.5999 26.7908 19.5818C26.678 17.8491 27.2745 16.0959 28.4206 14.7917C29.5927 13.4568 31.2246 12.6123 32.9914 12.4268ZM38.6539 23.0122C36.6131 24.2668 35.3267 26.5334 35.2958 28.9287C35.2987 31.635 36.9633 34.1433 39.4557 35.1975C38.9713 36.7715 38.241 38.2588 37.292 39.6045C36.0175 41.511 34.6812 43.3735 32.5603 43.408C31.5516 43.4312 30.8707 43.1411 30.1612 42.8389C29.4211 42.5237 28.6499 42.1951 27.4431 42.1951C25.0572 42.1951 24.319 43.3735 22.3424 43.4556C20.3226 43.5303 18.7789 41.4207 17.4581 39.532C14.8181 35.675 12.7624 28.6626 15.5184 23.8911C16.8004 21.5874 19.2571 20.0891 21.8923 20.0039C23.0379 19.9805 24.1371 20.4219 25.1009 20.8091C25.838 21.105 26.4957 21.3694 27.0344 21.3694C27.5079 21.3694 28.1473 21.1155 28.8925 20.8198C30.0664 20.3538 31.5028 19.7837 32.9665 19.9375C35.2101 20.0076 37.3665 21.1733 38.6539 23.0122Z" fill="#FFFFFF" fill-opacity="1.000000" fill-rule="evenodd"/>
</svg>
