<svg width="19.500000" height="15.500000" viewBox="0 0 19.5 15.5" fill="none" xmlns="http://www.w3.org/2000/svg" xmlns:xlink="http://www.w3.org/1999/xlink">
	<desc>
			Created with Pixso.
	</desc>
	<defs/>
	<path id="shape (Граница)" d="M18.119 0.0388184C17.9988 0.0129395 17.8758 0 17.75 0L1.75 0C1.62424 0 1.50122 0.0129395 1.38101 0.0388184C1.27469 0.0617676 1.17056 0.0947266 1.0686 0.137939C0.96756 0.180664 0.872131 0.231689 0.782318 0.291504C0.685944 0.355469 0.596008 0.429199 0.512573 0.512451C0.429108 0.595947 0.355377 0.686035 0.291382 0.782227C0.23175 0.87207 0.180573 0.967529 0.137817 1.0686C0.094696 1.17065 0.0617065 1.27466 0.0388184 1.3811C0.0129395 1.50122 0 1.62427 0 1.75L0 13.75C0 13.8757 0.0129395 13.9988 0.0388184 14.1189C0.0617065 14.2253 0.094696 14.3293 0.137817 14.4314C0.180573 14.5325 0.23175 14.6279 0.291382 14.7178C0.355377 14.814 0.429108 14.9041 0.512573 14.9875C0.596039 15.0708 0.685974 15.1445 0.782379 15.2087C0.872162 15.2683 0.96756 15.3193 1.0686 15.3621C1.17056 15.4053 1.27469 15.4382 1.38104 15.4612C1.50122 15.4871 1.62424 15.5 1.75 15.5L17.75 15.5C17.8758 15.5 17.9987 15.4871 18.119 15.4612C18.2253 15.4382 18.3294 15.4053 18.4314 15.3621C18.5324 15.3193 18.6279 15.2683 18.7177 15.2085C18.8141 15.1445 18.904 15.0708 18.9874 14.9875C19.0709 14.9041 19.1446 14.8142 19.2086 14.7178C19.2682 14.6279 19.3194 14.5325 19.3622 14.4314C19.4053 14.3293 19.4383 14.2253 19.4612 14.1191C19.4871 13.9988 19.5 13.8757 19.5 13.75L19.5 1.75C19.5 1.62427 19.4871 1.50122 19.4612 1.38086C19.4383 1.27466 19.4053 1.17065 19.3622 1.0686C19.3195 0.967529 19.2683 0.87207 19.2087 0.782471C19.1447 0.686035 19.0709 0.595947 18.9874 0.512451C18.904 0.429199 18.8141 0.355469 18.7177 0.29126C18.6279 0.231689 18.5324 0.180664 18.4314 0.137939C18.3294 0.0947266 18.2253 0.0617676 18.119 0.0388184ZM1.5 2.56055L1.5 13.75C1.51221 13.7795 1.54883 13.9023 1.57321 13.9268C1.60269 13.939 1.71548 14 1.75 14L17.75 14C17.7794 13.9878 17.9024 13.9512 17.9268 13.9268C17.939 13.8972 18 13.7844 18 13.75L18 2.56055L11.6945 8.86597C11.5525 9.00806 11.3989 9.13208 11.2337 9.23804C11.0924 9.32861 10.9427 9.40601 10.7845 9.47021C10.6263 9.53418 10.4651 9.58301 10.3007 9.61646C10.1209 9.65332 9.93732 9.67163 9.75 9.67163C9.56271 9.67163 9.37915 9.65332 9.19931 9.61646C9.03494 9.58301 8.87369 9.53418 8.71555 9.47021C8.55734 9.40601 8.40759 9.32861 8.26633 9.23804C8.10114 9.13208 7.94751 9.00806 7.80545 8.86597L1.5 2.56055ZM16.9393 1.5L2.56067 1.5L8.86612 7.80542C8.93649 7.87573 9.01294 7.93628 9.0954 7.98706C9.15366 8.02295 9.21494 8.05396 9.27924 8.08008C9.34698 8.10742 9.41608 8.12891 9.48651 8.1438C9.57236 8.16235 9.66019 8.17163 9.75 8.17163C9.83981 8.17163 9.92764 8.16235 10.0135 8.1438C10.0839 8.12891 10.153 8.10742 10.2208 8.08008C10.2851 8.05396 10.3463 8.02295 10.4046 7.98706C10.4871 7.93628 10.5635 7.87573 10.6339 7.80542L16.9393 1.5Z" fill="#7E74F1" fill-opacity="1.000000" fill-rule="evenodd"/>
</svg>
