<svg width="11.500000" height="19.500000" viewBox="0 0 11.5 19.5" fill="none" xmlns="http://www.w3.org/2000/svg" xmlns:xlink="http://www.w3.org/1999/xlink">
	<desc>
			Created with Pixso.
	</desc>
	<defs/>
	<path id="shape (Граница)" d="M5 11.4521C4.83221 11.4304 4.66605 11.4014 4.50153 11.365C4.16467 11.2903 3.83472 11.1846 3.5116 11.0479C3.1861 10.9102 2.8782 10.7456 2.58798 10.5544C2.26483 10.3416 1.96353 10.0952 1.68414 9.81592C1.40475 9.53638 1.1586 9.23535 0.945648 8.91211C0.754364 8.62183 0.589874 8.31396 0.452179 7.98828C0.315521 7.66528 0.209808 7.33521 0.135132 6.99854C0.0450439 6.59229 0 6.17603 0 5.75C0 5.32397 0.0450439 4.90771 0.135132 4.50146C0.209839 4.16479 0.315521 3.83472 0.452179 3.51172C0.589874 3.18604 0.754364 2.87817 0.945618 2.58789C1.1586 2.26489 1.40475 1.96362 1.68414 1.68408C1.9635 1.40479 2.26477 1.15869 2.58792 0.945557C2.87817 0.754395 3.18607 0.589844 3.5116 0.452148C3.83472 0.31543 4.1647 0.209717 4.50153 0.13501C4.90771 0.0449219 5.32385 0 5.75 0C6.17615 0 6.59229 0.0449219 6.99847 0.13501C7.3353 0.209717 7.66528 0.31543 7.9884 0.452148C8.31393 0.589844 8.62183 0.754395 8.91205 0.945557C9.23523 1.15869 9.53647 1.40479 9.81586 1.68408C10.0952 1.96362 10.3414 2.26489 10.5544 2.58789C10.7457 2.87817 10.9101 3.18604 11.0478 3.51172C11.1845 3.83472 11.2902 4.16479 11.3649 4.50171C11.455 4.90771 11.5 5.32397 11.5 5.75C11.5 6.17603 11.455 6.59229 11.3649 6.99854C11.2902 7.33521 11.1845 7.66528 11.0478 7.98828C10.9102 8.31396 10.7457 8.62183 10.5544 8.91211C10.3415 9.23511 10.0953 9.53638 9.81586 9.81592C9.53647 10.0952 9.23523 10.3413 8.91205 10.5544C8.62183 10.7456 8.31393 10.9102 7.9884 11.0479C7.66525 11.1846 7.33527 11.2903 6.99838 11.365C6.83389 11.4014 6.66776 11.4304 6.5 11.4521L6.5 18.75C6.5 19.1699 6.17001 19.5 5.75 19.5C5.32999 19.5 5 19.1699 5 18.75L5 11.4521ZM6.70016 9.89429C6.39151 9.96484 6.07477 10 5.75 10C5.4252 10 5.10846 9.96484 4.79977 9.89429C4.5603 9.83936 4.32568 9.76343 4.09595 9.66626C3.8602 9.56665 3.63693 9.44775 3.42615 9.31006C3.18234 9.15063 2.95523 8.96558 2.74478 8.75513C2.53436 8.54468 2.34946 8.31763 2.19003 8.07397C2.05219 7.86304 1.93338 7.63989 1.83368 7.40405C1.73648 7.17432 1.66052 6.9397 1.6058 6.7002C1.53528 6.3916 1.5 6.07471 1.5 5.75C1.5 5.42529 1.53528 5.1084 1.6058 4.7998C1.66052 4.5603 1.73648 4.32568 1.83368 4.09595C1.93338 3.86011 2.05215 3.63696 2.19003 3.42603C2.34943 3.18237 2.53436 2.95532 2.74478 2.74487C2.95523 2.53442 3.18231 2.34937 3.42609 2.18994C3.6369 2.05225 3.8602 1.93335 4.09595 1.83374C4.32571 1.73657 4.56033 1.66064 4.79984 1.60571C5.10849 1.53516 5.4252 1.5 5.75 1.5C6.0748 1.5 6.39151 1.53516 6.70016 1.60571C6.93967 1.66064 7.17429 1.73657 7.40405 1.83374C7.6398 1.93335 7.8631 2.05225 8.07391 2.18994C8.31769 2.34937 8.54477 2.53442 8.75519 2.74487C8.96564 2.95532 9.15057 3.18237 9.31 3.42603C9.44785 3.63696 9.56662 3.86011 9.66632 4.09595C9.76352 4.32568 9.83948 4.5603 9.8942 4.7998C9.96472 5.1084 10 5.42529 10 5.75C10 6.07471 9.96472 6.3916 9.8942 6.7002C9.83945 6.9397 9.76349 7.17432 9.66632 7.40405C9.56662 7.63989 9.44785 7.86304 9.31 8.07397C9.15057 8.31763 8.96564 8.54468 8.75519 8.75513C8.54477 8.96558 8.31766 9.15063 8.07388 9.31006C7.86307 9.44775 7.6398 9.56665 7.40405 9.66626C7.17429 9.76343 6.93964 9.83936 6.70016 9.89429Z" fill="#7E74F1" fill-opacity="1.000000" fill-rule="evenodd"/>
</svg>
