<svg width="180.000000" height="52.000000" viewBox="0 0 180 52" fill="none" xmlns="http://www.w3.org/2000/svg" xmlns:xlink="http://www.w3.org/1999/xlink">
	<desc>
			Created with Pixso.
	</desc>
	<defs>
		<clipPath id="clip31_28">
			<rect id="1" width="180.000000" height="51.999962" fill="white" fill-opacity="0"/>
		</clipPath>
	</defs>
	<rect id="1" width="180.000000" height="51.999962" fill="#FFFFFF" fill-opacity="0"/>
	<g clip-path="url(#clip31_28)">
		<path id="Vector" d="M82.58 44.28C82.24 44.68 81.82 45.01 81.35 45.25C80.87 45.5 80.33 45.64 79.78 45.63C79.28 45.63 78.78 45.53 78.33 45.32C77.88 45.12 77.48 44.84 77.14 44.49C76.8 44.13 76.53 43.7 76.34 43.24C75.95 42.28 75.95 41.2 76.34 40.24C76.53 39.79 76.8 39.37 77.14 39.01C77.48 38.66 77.88 38.38 78.33 38.17C78.78 37.97 79.28 37.86 79.78 37.87C80.24 37.86 80.7 37.96 81.13 38.15C81.54 38.33 81.91 38.57 82.24 38.87L81.62 39.67C81.38 39.43 81.1 39.22 80.8 39.07C80.49 38.91 80.13 38.82 79.78 38.82C79.41 38.82 79.06 38.9 78.73 39.06C78.41 39.21 78.13 39.43 77.89 39.69C77.65 39.97 77.45 40.28 77.32 40.63C77.04 41.35 77.04 42.15 77.32 42.88C77.45 43.22 77.65 43.53 77.89 43.8C78.13 44.06 78.41 44.28 78.73 44.43C79.06 44.58 79.41 44.66 79.78 44.66C80.19 44.66 80.59 44.55 80.95 44.35C81.29 44.16 81.6 43.89 81.84 43.57L82.58 44.28Z" fill="#000000" fill-opacity="1.000000" fill-rule="nonzero"/>
		<path id="Vector" d="M98.19 40.23C98 39.78 97.72 39.36 97.38 39C97.04 38.65 96.64 38.37 96.19 38.16C95.74 37.96 95.24 37.86 94.74 37.86C94.24 37.86 93.75 37.96 93.29 38.16C92.84 38.37 92.44 38.65 92.1 39C91.75 39.36 91.48 39.78 91.29 40.23C90.9 41.2 90.9 42.27 91.29 43.24C91.48 43.69 91.75 44.11 92.09 44.47C92.43 44.82 92.83 45.1 93.28 45.3C93.74 45.51 94.23 45.61 94.73 45.61C95.23 45.61 95.72 45.51 96.18 45.3C96.63 45.1 97.03 44.82 97.38 44.47C97.72 44.11 98 43.69 98.19 43.24C98.39 42.76 98.49 42.25 98.49 41.73C98.49 41.22 98.39 40.71 98.19 40.23ZM97.2 42.86C97.07 43.2 96.87 43.51 96.63 43.78C96.39 44.04 96.1 44.25 95.78 44.39C95.45 44.54 95.1 44.62 94.74 44.62C94.38 44.62 94.02 44.54 93.69 44.39C93.37 44.25 93.08 44.04 92.85 43.78C92.6 43.51 92.41 43.2 92.27 42.86C91.99 42.14 91.99 41.33 92.27 40.61C92.41 40.27 92.6 39.97 92.85 39.7C93.08 39.44 93.37 39.23 93.69 39.08C94.02 38.94 94.38 38.86 94.74 38.86C95.1 38.86 95.45 38.94 95.78 39.08C96.1 39.23 96.39 39.44 96.63 39.7C96.87 39.96 97.06 40.27 97.2 40.61C97.33 40.97 97.4 41.35 97.4 41.73C97.4 42.12 97.33 42.5 97.19 42.86L97.2 42.86Z" fill="#000000" fill-opacity="1.000000" fill-rule="nonzero"/>
		<path id="Vector" d="M112.41 37.96L112.41 42.86C112.42 43.23 112.34 43.59 112.2 43.94C112.06 44.26 111.86 44.56 111.61 44.82C111.36 45.07 111.06 45.27 110.73 45.41C110.39 45.56 110.03 45.63 109.66 45.63C109.29 45.63 108.92 45.56 108.59 45.41C108.26 45.27 107.96 45.07 107.71 44.82C107.46 44.56 107.26 44.26 107.12 43.94C106.98 43.59 106.9 43.23 106.9 42.86L106.9 37.96L107.97 37.96L107.97 42.86C107.97 43.08 108.01 43.31 108.1 43.52C108.19 43.73 108.31 43.92 108.46 44.09C108.61 44.25 108.8 44.38 109 44.48C109.21 44.57 109.44 44.62 109.67 44.62C109.89 44.62 110.12 44.57 110.32 44.48C110.52 44.38 110.71 44.25 110.86 44.09C111.01 43.92 111.13 43.73 111.22 43.52C111.3 43.31 111.35 43.08 111.35 42.86L111.35 37.96L112.41 37.96Z" fill="#000000" fill-opacity="1.000000" fill-rule="nonzero"/>
		<path id="Vector" d="M126.04 37.96L126.04 38.9L123.96 38.9L123.96 45.52L122.9 45.52L122.9 38.9L120.83 38.9L120.83 37.96L126.04 37.96Z" fill="#000000" fill-opacity="1.000000" fill-rule="nonzero"/>
		<path id="Vector" d="M139.97 37.96L139.97 42.86C139.97 43.23 139.89 43.59 139.75 43.94C139.61 44.26 139.41 44.56 139.16 44.82C138.91 45.07 138.61 45.27 138.29 45.41C137.95 45.56 137.58 45.63 137.21 45.63C136.84 45.63 136.48 45.56 136.14 45.41C135.81 45.27 135.52 45.07 135.27 44.82C135.02 44.56 134.81 44.26 134.67 43.94C134.53 43.6 134.45 43.23 134.46 42.86L134.46 37.96L135.52 37.96L135.52 42.86C135.52 43.08 135.57 43.31 135.65 43.52C135.74 43.73 135.86 43.92 136.01 44.09C136.17 44.25 136.35 44.38 136.55 44.48C136.76 44.57 136.99 44.62 137.22 44.62C137.44 44.62 137.67 44.57 137.87 44.48C138.08 44.38 138.26 44.25 138.41 44.09C138.56 43.92 138.69 43.73 138.77 43.52C138.86 43.31 138.9 43.08 138.9 42.86L138.9 37.96L139.97 37.96Z" fill="#000000" fill-opacity="1.000000" fill-rule="nonzero"/>
		<path id="Vector" d="M152.01 42.15L152.05 42.14C152.28 42.07 152.49 41.97 152.68 41.84C152.87 41.72 153.03 41.56 153.17 41.38C153.31 41.2 153.42 41 153.5 40.79C153.58 40.56 153.62 40.33 153.61 40.09C153.62 39.8 153.56 39.52 153.44 39.26C153.33 39.01 153.18 38.78 152.98 38.58C152.78 38.39 152.55 38.24 152.29 38.13C152.03 38.02 151.74 37.96 151.45 37.96L148.38 37.96L148.38 45.52L149.45 45.52L149.45 42.23L150.83 42.23L150.84 42.24L153.23 45.52L154.56 45.52L152.01 42.15ZM151.45 41.24L149.45 41.25L149.45 38.9L151.45 38.9C151.6 38.89 151.75 38.93 151.89 38.99C152.03 39.05 152.15 39.14 152.25 39.24C152.35 39.35 152.43 39.48 152.49 39.61C152.55 39.76 152.58 39.91 152.58 40.07C152.58 40.22 152.55 40.38 152.49 40.52C152.43 40.66 152.35 40.79 152.25 40.89C152.14 41 152.02 41.08 151.89 41.14C151.75 41.2 151.6 41.24 151.45 41.24Z" fill="#000000" fill-opacity="1.000000" fill-rule="nonzero"/>
		<path id="Vector" d="M163.1 38.9L163.1 41.05L166.25 41.05L166.25 42.03L163.1 42.03L163.1 44.54L166.64 44.54L166.64 45.52L162.04 45.52L162.04 37.96L166.64 37.96L166.64 38.9L163.1 38.9Z" fill="#000000" fill-opacity="1.000000" fill-rule="nonzero"/>
		<path id="E" d="M180 9.96L180 6.61L170.7 6.61L167.34 6.61L167.34 27.05L170.4 27.05L179.99 27.05L179.99 23.69L170.7 23.69L170.7 18L178.94 18L178.94 14.65L170.7 14.65L170.7 9.96L180 9.96Z" fill="#000000" fill-opacity="1.000000" fill-rule="nonzero"/>
		<path id="I" d="M158.76 6.61L162.11 6.61L162.11 27.05L158.76 27.05L158.76 6.61Z" fill="#000000" fill-opacity="1.000000" fill-rule="evenodd"/>
		<path id="Vector" d="M153.23 25.27C152.7 25.28 152.18 25.16 151.7 24.92C151.24 24.66 150.83 24.31 150.49 23.9C150.07 23.39 149.71 22.84 149.4 22.26C149.07 21.67 148.71 20.96 148.29 20.1C148.08 19.68 147.85 19.23 147.57 18.69C147.39 18.36 147.21 18.04 147.02 17.73L146.87 17.49L147.06 17.27C147.26 17.05 147.46 16.82 147.65 16.58C147.96 16.2 148.27 15.8 148.55 15.4C149.49 14.07 150.25 12.61 150.81 11.08C151.32 9.7 151.58 8.24 151.59 6.76L151.59 6.6L148.19 6.6L148.19 6.76C148.17 7.88 147.97 9 147.59 10.05C147.15 11.26 146.55 12.41 145.79 13.45C145.57 13.73 145.37 14 145.17 14.25L145.13 14.3C145.09 14.35 145.05 14.41 145.01 14.46L144.76 14.75L144.47 14.51C144.4 14.45 144.33 14.4 144.26 14.35C144.01 14.15 143.75 13.97 143.48 13.8C143.25 13.65 143.01 13.52 142.76 13.4C141.75 12.89 141.11 12.82 141.11 12.82L141.11 6.61L137.77 6.61L137.77 12.69C137.77 12.69 137.69 12.71 137.54 12.76C137.5 12.77 137.46 12.78 137.43 12.79L137.33 12.83C137.17 12.89 137.02 12.96 136.88 13.04L136.75 13.12C136.71 13.14 136.67 13.17 136.63 13.19C136.11 13.54 135.67 14 135.36 14.54C135.04 15.08 134.85 15.69 134.79 16.31C134.78 16.45 134.77 16.59 134.77 16.74C134.77 16.85 134.77 16.95 134.78 17.05C134.79 17.12 134.79 17.18 134.8 17.25C134.87 17.92 135.1 18.57 135.47 19.14C135.85 19.71 136.35 20.17 136.95 20.5C136.96 20.5 136.98 20.51 136.99 20.51C137.05 20.54 137.11 20.57 137.17 20.6C137.28 20.65 137.41 20.7 137.53 20.74L137.57 20.75C137.61 20.77 137.65 20.78 137.7 20.79C137.74 20.8 137.75 20.8 137.77 20.81L137.77 27.05L141.11 27.05L141.11 20.79C141.93 20.7 142.73 20.47 143.48 20.12L143.51 20.1C143.54 20.09 143.56 20.08 143.58 20.06C143.82 19.95 144.05 19.81 144.27 19.67L144.46 20.03C144.54 20.18 144.62 20.33 144.7 20.48C144.89 20.85 145.07 21.23 145.24 21.61L145.25 21.63C145.64 22.41 146.06 23.21 146.48 24C146.92 24.82 147.46 25.58 148.08 26.27C148.7 26.96 149.44 27.53 150.26 27.97C151.1 28.42 152.1 28.64 153.23 28.64L153.52 28.64L153.52 25.27L153.23 25.27ZM142.76 17.14C142.59 17.23 142.39 17.33 142.15 17.43C141.83 17.57 141.51 17.69 141.18 17.8C140.85 17.9 140.53 17.99 140.19 18.06C139.9 18.12 139.61 18.15 139.31 18.15C139.27 18.15 139.15 18.15 139.11 18.15C138.43 18.15 137.88 17.57 137.87 16.84L137.87 16.82C137.87 16.76 137.88 16.7 137.89 16.64C137.89 16.61 137.89 16.58 137.9 16.56C137.92 16.39 137.99 16.22 138.08 16.08C138.11 16.04 138.13 16.01 138.16 15.97C138.18 15.94 138.21 15.91 138.24 15.88C138.3 15.81 138.37 15.75 138.44 15.71C138.62 15.58 138.83 15.51 139.04 15.5C139.08 15.5 139.17 15.5 139.18 15.5C139.89 15.51 140.58 15.67 141.21 15.97C141.77 16.2 142.3 16.51 142.78 16.89C142.84 16.94 142.9 16.99 142.96 17.04C142.89 17.06 142.83 17.1 142.76 17.14Z" fill="#000000" fill-opacity="1.000000" fill-rule="nonzero"/>
		<path id="Vector" d="M128.75 12.86C128.26 11.65 127.55 10.55 126.66 9.61C125.77 8.68 124.71 7.93 123.54 7.41C122.35 6.87 121.06 6.6 119.76 6.6C118.46 6.6 117.17 6.87 115.98 7.41C114.82 7.93 113.76 8.68 112.89 9.61C112 10.55 111.29 11.66 110.8 12.86C110.28 14.1 110.02 15.44 110.03 16.79C110.02 18.14 110.28 19.48 110.8 20.73C111.29 21.94 112 23.05 112.89 24.01C113.77 24.94 114.82 25.69 115.99 26.22C117.17 26.76 118.46 27.04 119.76 27.04C121.06 27.04 122.35 26.76 123.54 26.22C124.71 25.69 125.76 24.94 126.65 24.01C127.55 23.05 128.26 21.94 128.75 20.73C129.26 19.48 129.52 18.14 129.52 16.79C129.53 15.44 129.27 14.11 128.75 12.86ZM125.6 19.45C125.29 20.25 124.83 20.98 124.26 21.62C123.69 22.24 123.01 22.74 122.26 23.1C121.48 23.46 120.64 23.65 119.78 23.65C118.93 23.65 118.08 23.46 117.31 23.1C116.55 22.74 115.87 22.24 115.3 21.62C114.1 20.3 113.45 18.58 113.47 16.8C113.46 15.88 113.63 14.98 113.96 14.13C114.27 13.32 114.73 12.58 115.31 11.94C115.87 11.32 116.55 10.82 117.31 10.45C118.08 10.09 118.93 9.91 119.78 9.91C120.64 9.91 121.48 10.09 122.26 10.45C123.01 10.81 123.69 11.32 124.26 11.94C124.84 12.58 125.29 13.32 125.6 14.12C125.93 14.97 126.1 15.88 126.1 16.79C126.1 17.7 125.93 18.6 125.6 19.45Z" fill="#000000" fill-opacity="1.000000" fill-rule="nonzero"/>
		<path id="Vector" d="M104.03 12.86C103.54 11.66 102.83 10.55 101.94 9.61C101.06 8.68 100 7.93 98.83 7.41C97.64 6.87 96.35 6.6 95.05 6.6C93.75 6.6 92.46 6.87 91.27 7.41C90.11 7.93 89.05 8.68 88.17 9.61C87.29 10.55 86.58 11.66 86.09 12.86C85.57 14.1 85.31 15.44 85.32 16.79C85.32 18.14 85.58 19.48 86.09 20.73C86.58 21.94 87.28 23.05 88.17 24.01C89.05 24.94 90.11 25.69 91.27 26.22C92.46 26.76 93.74 27.04 95.05 27.04C96.35 27.04 97.64 26.76 98.82 26.22C99.99 25.69 101.05 24.94 101.94 24.01C102.83 23.05 103.54 21.94 104.03 20.73C104.54 19.48 104.8 18.14 104.8 16.79C104.81 15.44 104.55 14.11 104.03 12.86ZM100.88 19.45C100.57 20.25 100.12 20.98 99.54 21.62C98.98 22.24 98.3 22.74 97.54 23.1C96.77 23.46 95.92 23.65 95.07 23.65C94.21 23.65 93.37 23.46 92.59 23.1C91.83 22.74 91.15 22.24 90.59 21.62C89.39 20.3 88.74 18.58 88.76 16.8C88.75 15.88 88.92 14.98 89.25 14.13C89.56 13.32 90.01 12.58 90.59 11.94C91.15 11.32 91.83 10.82 92.59 10.45C93.36 10.09 94.21 9.91 95.06 9.91C95.92 9.91 96.76 10.09 97.54 10.45C98.3 10.82 98.98 11.32 99.54 11.94C100.12 12.58 100.58 13.32 100.89 14.13C101.22 14.98 101.39 15.88 101.38 16.8C101.38 17.7 101.22 18.61 100.88 19.45Z" fill="#000000" fill-opacity="1.000000" fill-rule="nonzero"/>
		<path id="Vector" d="M80.09 23.09C79.13 24.28 77.94 25.25 76.6 25.96C75.27 26.67 73.78 27.04 72.27 27.05C70.98 27.06 69.71 26.78 68.53 26.23C67.38 25.7 66.35 24.95 65.48 24.02C64.6 23.07 63.91 21.96 63.44 20.76C62.94 19.5 62.69 18.15 62.7 16.8C62.69 15.45 62.95 14.11 63.47 12.86C63.96 11.66 64.67 10.56 65.56 9.61C66.43 8.68 67.48 7.93 68.65 7.41C69.84 6.87 71.13 6.6 72.43 6.6C73.65 6.6 74.85 6.84 75.97 7.3C76.97 7.71 77.97 8.38 78.95 9.3L77 11.65C76.27 11.04 75.57 10.61 74.9 10.37C74.1 10.08 73.27 9.94 72.42 9.94C71.56 9.94 70.71 10.12 69.93 10.49C69.17 10.84 68.48 11.34 67.9 11.95C67.32 12.59 66.86 13.32 66.55 14.13C66.22 14.98 66.05 15.88 66.06 16.8C66.05 17.7 66.22 18.61 66.55 19.45C66.86 20.25 67.32 20.98 67.9 21.62C68.47 22.24 69.16 22.75 69.92 23.1C70.7 23.47 71.55 23.65 72.42 23.65C73.45 23.65 74.47 23.41 75.39 22.95C76.23 22.55 77.08 21.92 77.92 21.05L80.09 23.09Z" fill="#000000" fill-opacity="1.000000" fill-rule="nonzero"/>
		<path id="Vector" d="M52.21 25.16C52.21 25.13 52.2 25.09 52.18 25.06C52.16 25.02 52.14 24.99 52.11 24.97C52.08 24.95 52.05 24.93 52.01 24.92C51.97 24.92 51.94 24.92 51.9 24.93C50.88 25.13 49.83 25.08 48.84 24.77C47.75 24.44 46.76 23.83 45.99 22.99C45.22 22.15 44.69 21.12 44.45 20C44.37 19.63 44.16 19.29 43.86 19.05C43.56 18.81 43.19 18.68 42.81 18.68L42.78 18.68C41.19 18.68 39.64 18.26 38.27 17.47C36.9 16.68 35.77 15.54 34.98 14.17C34.19 12.8 33.78 11.24 33.79 9.66C33.8 8.08 34.22 6.53 35.02 5.16C35.55 4.26 36.23 3.46 37.03 2.79C37.07 2.76 37.09 2.72 37.11 2.68C37.12 2.64 37.13 2.6 37.12 2.56C37.11 2.52 37.1 2.48 37.07 2.44C37.05 2.41 37.01 2.38 36.97 2.36C36.01 1.92 35.03 1.54 34.02 1.22C33.97 1.2 33.92 1.2 33.88 1.21C33.83 1.23 33.78 1.25 33.75 1.29C32.98 2.12 32.32 3.05 31.8 4.06C30.89 5.84 30.42 7.81 30.44 9.8C30.46 11.8 30.96 13.76 31.9 15.52C32.84 17.27 34.2 18.78 35.85 19.9C37.5 21.02 39.4 21.72 41.38 21.95C41.42 21.96 41.47 21.97 41.5 22C41.54 22.03 41.57 22.07 41.58 22.11C42.28 23.96 43.52 25.55 45.14 26.67C46.76 27.79 48.69 28.4 50.66 28.4C51.08 28.4 51.51 28.37 51.93 28.32C51.99 28.31 52.04 28.28 52.08 28.24C52.12 28.19 52.15 28.14 52.15 28.08C52.2 27.43 52.23 26.77 52.23 26.11C52.23 25.79 52.22 25.48 52.21 25.16Z" fill="#000000" fill-opacity="1.000000" fill-rule="nonzero"/>
		<path id="Vector" d="M43.73 29.75C41.99 38.19 34.33 44.49 25.29 44.08C15.91 43.66 8.36 35.95 8.13 26.56C7.88 16.43 16.05 8.12 26.11 8.12C26.47 8.12 26.81 8.13 27.16 8.15C27.13 8.5 27.11 8.85 27.09 9.21C26.77 9.19 26.43 9.18 26.09 9.18C17.33 9.19 9.93 16 9.23 24.74C8.45 34.7 16.32 43.04 26.11 43.04C34.43 43.04 41.37 37.01 42.78 29.09C43.09 29.32 43.4 29.54 43.73 29.75Z" fill="#000000" fill-opacity="1.000000" fill-rule="nonzero"/>
		<path id="Vector" d="M51.61 31.71C51.61 31.71 51.61 31.71 51.61 31.71C51.61 31.71 51.62 31.71 51.62 31.72C51.62 31.72 51.62 31.72 51.62 31.72C51.62 31.72 51.62 31.72 51.62 31.72C49.05 43.44 38.59 52.23 26.11 52.23C11.71 52.23 0 40.51 0 26.11C0 11.71 11.71 0 26.11 0C27.48 -0.01 28.84 0.1 30.19 0.31C30.19 0.31 30.19 0.31 30.19 0.31C30.19 0.31 30.2 0.32 30.2 0.32C30.2 0.32 30.2 0.32 30.2 0.32C30.2 0.32 30.2 0.32 30.2 0.33C29.47 1.29 28.86 2.34 28.38 3.45C28.38 3.45 28.38 3.45 28.38 3.45C28.38 3.45 28.37 3.45 28.37 3.45C27.63 3.38 26.87 3.34 26.11 3.34C14.27 3.35 4.51 12.43 3.44 24C2.12 38.32 14.48 50.39 28.76 48.72C38.26 47.62 45.99 40.64 48.22 31.52C48.22 31.52 48.23 31.52 48.23 31.52C48.23 31.52 48.23 31.52 48.23 31.52C49.03 31.67 49.85 31.75 50.66 31.75C50.98 31.75 51.29 31.74 51.61 31.71Z" fill="#000000" fill-opacity="1.000000" fill-rule="nonzero"/>
	</g>
</svg>
