<svg width="16.000000" height="16.000000" viewBox="0 0 16 16" fill="none" xmlns="http://www.w3.org/2000/svg" xmlns:xlink="http://www.w3.org/1999/xlink">
	<desc>
			Created with Pixso.
	</desc>
	<defs/>
	<path id="Vector" d="M4.79999 0L11.2 0C13.851 0 16 2.14893 16 4.7998L16 11.2002C16 13.8511 13.851 16 11.2 16L4.79999 16C2.14905 16 0 13.8511 0 11.2002L0 4.7998C0 2.14893 2.14905 0 4.79999 0ZM4.79999 1.6001C3.03268 1.6001 1.60001 3.03271 1.60001 4.7998L1.60001 11.2002C1.60001 12.9673 3.03268 14.3999 4.79999 14.3999L11.2 14.3999C12.9673 14.3999 14.4 12.9673 14.4 11.2002L14.4 4.7998C14.4 3.03271 12.9673 1.6001 11.2 1.6001L4.79999 1.6001ZM8 12C5.79086 12 4 10.209 4 8C4 5.79102 5.79086 4 8 4C10.2091 4 12 5.79102 12 8C12 10.209 10.2091 12 8 12ZM8 10.3999C9.32547 10.3999 10.4 9.32568 10.4 8C10.4 6.67432 9.32547 5.6001 8 5.6001C6.67453 5.6001 5.60001 6.67432 5.60001 8C5.60001 9.32568 6.67453 10.3999 8 10.3999ZM12 4.7998C11.5582 4.7998 11.2 4.44189 11.2 4C11.2 3.55811 11.5582 3.2002 12 3.2002C12.4418 3.2002 12.8 3.55811 12.8 4C12.8 4.44189 12.4418 4.7998 12 4.7998Z" fill="#75757F" fill-opacity="1.000000" fill-rule="evenodd"/>
</svg>
