<svg width="23.000000" height="37.000000" viewBox="0 0 23 37" fill="none" xmlns="http://www.w3.org/2000/svg" xmlns:xlink="http://www.w3.org/1999/xlink">
	<desc>
			Created with Pixso.
	</desc>
	<defs/>
	<path id="Vector (Border)" d="M20 -0.67L15 -0.67C14.31 -0.67 13.64 -0.61 12.98 -0.47C12.32 -0.34 11.67 -0.15 11.04 0.12C10.41 0.38 9.81 0.7 9.25 1.07C8.69 1.44 8.17 1.87 7.69 2.35C7.2 2.84 6.77 3.36 6.4 3.92C6.03 4.48 5.71 5.07 5.45 5.71C5.19 6.34 4.99 6.99 4.86 7.65C4.73 8.3 4.66 8.98 4.66 9.66L4.66 12.66L1.66 12.66C1.11 12.66 0.64 12.86 0.25 13.25C-0.14 13.64 -0.34 14.11 -0.34 14.66L-0.34 21.33C-0.34 21.88 -0.14 22.35 0.25 22.74C0.64 23.13 1.11 23.33 1.66 23.33L4.66 23.33L4.66 34.66C4.66 35.21 4.86 35.69 5.25 36.08C5.64 36.47 6.11 36.66 6.66 36.66L13.33 36.66C13.88 36.66 14.35 36.47 14.74 36.08C15.13 35.69 15.33 35.21 15.33 34.66L15.33 23.33L18.33 23.33C18.79 23.33 19.2 23.19 19.56 22.9C19.92 22.62 20.16 22.26 20.27 21.81L21.94 15.15C22.07 14.61 21.99 14.11 21.71 13.63C21.43 13.16 21.02 12.86 20.48 12.72C20.4 12.7 20.32 12.69 20.24 12.68C20.16 12.67 20.08 12.66 20 12.66L15.33 12.66L15.33 10L20 10C20.55 10 21.02 9.8 21.41 9.41C21.8 9.02 22 8.55 22 8L22 1.33C22 0.78 21.8 0.3 21.41 -0.09C21.02 -0.48 20.55 -0.67 20 -0.67ZM13.76 3.45C14.16 3.37 14.58 3.33 15 3.33L18 3.33L18 6L15 6C14.75 6 14.51 6.02 14.28 6.06C14.05 6.11 13.82 6.18 13.59 6.27C13.37 6.37 13.16 6.48 12.96 6.61C12.76 6.75 12.57 6.9 12.4 7.07C12.23 7.24 12.08 7.43 11.95 7.62C11.81 7.82 11.7 8.03 11.61 8.26C11.51 8.48 11.44 8.71 11.4 8.95C11.35 9.18 11.33 9.42 11.33 9.66L11.33 14.66C11.33 15.21 11.52 15.69 11.91 16.08C12.3 16.47 12.78 16.66 13.33 16.66L17.43 16.66L16.77 19.33L13.33 19.33C12.78 19.33 12.3 19.52 11.91 19.91C11.52 20.3 11.33 20.78 11.33 21.33L11.33 32.66L8.66 32.66L8.66 21.33C8.66 20.78 8.47 20.3 8.08 19.91C7.69 19.52 7.21 19.33 6.66 19.33L3.66 19.33L3.66 16.66L6.66 16.66C7.21 16.66 7.69 16.47 8.08 16.08C8.47 15.69 8.66 15.21 8.66 14.66L8.66 9.66C8.66 9.24 8.7 8.83 8.78 8.43C8.86 8.02 8.98 7.63 9.14 7.24C9.3 6.85 9.5 6.49 9.73 6.14C9.96 5.8 10.22 5.48 10.52 5.18C10.81 4.89 11.13 4.62 11.48 4.39C11.82 4.17 12.18 3.97 12.57 3.81C12.96 3.65 13.36 3.53 13.76 3.45Z" fill="#000000" fill-opacity="1.000000" fill-rule="evenodd"/>
</svg>
