<svg width="38.000000" height="37.000000" viewBox="0 0 38 37" fill="none" xmlns="http://www.w3.org/2000/svg" xmlns:xlink="http://www.w3.org/1999/xlink">
	<desc>
			Created with Pixso.
	</desc>
	<defs/>
	<path id="Vector (Border)" d="M30.8 0.08C29.58 -0.42 28.26 -0.67 26.83 -0.67L10.16 -0.67C8.73 -0.67 7.41 -0.42 6.19 0.08C4.98 0.59 3.86 1.35 2.85 2.35C1.85 3.36 1.09 4.48 0.58 5.69C0.08 6.91 -0.17 8.23 -0.17 9.66L-0.17 26.33C-0.17 27.75 0.08 29.08 0.58 30.29C1.09 31.51 1.85 32.63 2.85 33.63C3.86 34.64 4.98 35.4 6.19 35.9C7.41 36.41 8.73 36.66 10.16 36.66L26.83 36.66C28.26 36.66 29.58 36.41 30.8 35.9C32.01 35.4 33.13 34.64 34.14 33.63C35.14 32.63 35.9 31.51 36.41 30.29C36.91 29.08 37.16 27.75 37.16 26.33L37.16 9.66C37.16 8.23 36.91 6.91 36.41 5.69C35.9 4.48 35.14 3.36 34.14 2.35C33.13 1.35 32.01 0.59 30.8 0.08ZM10.16 3.33L26.83 3.33C27.7 3.33 28.51 3.48 29.26 3.79C30.01 4.1 30.69 4.56 31.31 5.18C31.93 5.8 32.39 6.48 32.7 7.23C33.01 7.98 33.16 8.79 33.16 9.66L33.16 26.33C33.16 27.2 33.01 28.01 32.7 28.76C32.39 29.51 31.93 30.19 31.31 30.81C30.69 31.42 30.01 31.89 29.26 32.2C28.51 32.51 27.7 32.66 26.83 32.66L10.16 32.66C9.29 32.66 8.48 32.51 7.73 32.2C6.98 31.89 6.3 31.42 5.68 30.81C5.06 30.19 4.6 29.51 4.29 28.76C3.98 28.01 3.83 27.2 3.83 26.33L3.83 9.66C3.83 8.79 3.98 7.98 4.29 7.23C4.6 6.48 5.06 5.8 5.68 5.18C6.3 4.56 6.98 4.1 7.73 3.79C8.48 3.48 9.29 3.33 10.16 3.33Z" fill="#000000" fill-opacity="1.000000" fill-rule="evenodd"/>
	<path id="Vector (Border)" d="M25.54 23.06C25.81 22.7 26.05 22.32 26.26 21.91C26.47 21.51 26.65 21.09 26.79 20.67C26.93 20.24 27.04 19.8 27.12 19.35C27.19 18.9 27.23 18.45 27.23 18C27.24 17.55 27.21 17.1 27.14 16.65C27.07 16.19 26.97 15.74 26.83 15.31C26.69 14.87 26.52 14.44 26.31 14.03C26.1 13.61 25.86 13.22 25.59 12.85C25.32 12.47 25.02 12.12 24.7 11.79C24.37 11.47 24.02 11.17 23.64 10.9C23.27 10.63 22.88 10.39 22.46 10.18C22.05 9.97 21.62 9.8 21.18 9.66C20.75 9.52 20.3 9.42 19.84 9.35C19.39 9.28 18.94 9.25 18.49 9.26C18.04 9.26 17.59 9.3 17.14 9.37C16.69 9.45 16.25 9.56 15.82 9.7C15.4 9.84 14.98 10.02 14.58 10.23C14.17 10.44 13.79 10.68 13.43 10.95C13.06 11.21 12.72 11.51 12.4 11.83C12.08 12.16 11.79 12.5 11.53 12.87C11.26 13.23 11.03 13.62 10.83 14.03C10.62 14.43 10.45 14.85 10.31 15.28C10.18 15.71 10.07 16.15 10 16.6C9.93 17.05 9.9 17.5 9.9 17.95C9.9 18.4 9.94 18.85 10.01 19.3C10.08 19.75 10.19 20.19 10.33 20.62C10.47 21.04 10.64 21.46 10.85 21.87C11.06 22.27 11.29 22.66 11.56 23.02C11.82 23.39 12.12 23.73 12.44 24.05C12.76 24.37 13.1 24.67 13.47 24.93C13.83 25.2 14.22 25.43 14.62 25.64C15.03 25.85 15.45 26.02 15.87 26.16C16.3 26.3 16.74 26.41 17.19 26.48C17.64 26.55 18.09 26.59 18.54 26.59C18.99 26.59 19.44 26.56 19.89 26.49C20.34 26.42 20.78 26.31 21.21 26.18C21.64 26.04 22.06 25.87 22.46 25.66C22.87 25.46 23.26 25.23 23.62 24.96C23.99 24.7 24.33 24.41 24.66 24.09C24.98 23.77 25.28 23.43 25.54 23.06ZM22.99 19.4C22.92 19.63 22.82 19.85 22.71 20.07C22.6 20.29 22.47 20.5 22.32 20.69C22.18 20.89 22.02 21.07 21.85 21.24C21.67 21.41 21.49 21.57 21.29 21.71C21.09 21.85 20.88 21.98 20.67 22.09C20.45 22.2 20.22 22.29 19.99 22.37C19.76 22.44 19.52 22.5 19.28 22.53C19.04 22.57 18.8 22.59 18.55 22.59C18.31 22.59 18.07 22.57 17.83 22.53C17.58 22.49 17.35 22.43 17.12 22.36C16.89 22.28 16.66 22.19 16.44 22.08C16.22 21.97 16.02 21.84 15.82 21.7C15.63 21.55 15.44 21.4 15.27 21.22C15.09 21.05 14.94 20.86 14.79 20.67C14.65 20.47 14.52 20.27 14.41 20.05C14.3 19.83 14.21 19.6 14.13 19.37C14.06 19.14 14 18.91 13.96 18.66C13.92 18.42 13.9 18.18 13.9 17.94C13.9 17.69 13.92 17.45 13.96 17.21C13.99 16.97 14.05 16.73 14.12 16.5C14.2 16.27 14.29 16.04 14.4 15.82C14.51 15.61 14.63 15.4 14.78 15.2C14.92 15 15.07 14.82 15.25 14.64C15.42 14.47 15.6 14.31 15.8 14.17C15.99 14.02 16.2 13.89 16.42 13.78C16.64 13.67 16.86 13.57 17.09 13.5C17.32 13.42 17.56 13.36 17.8 13.32C18.04 13.28 18.28 13.26 18.52 13.26C18.77 13.25 19.01 13.27 19.25 13.31C19.5 13.34 19.74 13.4 19.98 13.47C20.21 13.55 20.44 13.64 20.67 13.75C20.89 13.87 21.1 14 21.3 14.14C21.5 14.29 21.69 14.45 21.87 14.62C22.04 14.8 22.2 14.99 22.35 15.19C22.49 15.39 22.62 15.6 22.74 15.82C22.85 16.05 22.94 16.28 23.02 16.51C23.09 16.75 23.15 16.99 23.18 17.24C23.22 17.48 23.24 17.72 23.23 17.97C23.23 18.21 23.21 18.45 23.17 18.69C23.13 18.93 23.07 19.17 22.99 19.4Z" fill="#000000" fill-opacity="1.000000" fill-rule="evenodd"/>
	<path id="Vector (Border)" d="M27.68 6.83C28.8 6.83 29.68 7.71 29.68 8.83C29.68 9.95 28.8 10.83 27.68 10.83C26.56 10.83 25.66 9.95 25.66 8.83C25.66 7.71 26.56 6.83 27.68 6.83Z" fill="#000000" fill-opacity="1.000000" fill-rule="evenodd"/>
</svg>
