<svg width="32.000000" height="33.176025" viewBox="0 0 32 33.176" fill="none" xmlns="http://www.w3.org/2000/svg" xmlns:xlink="http://www.w3.org/1999/xlink">
	<desc>
			Created with Pixso.
	</desc>
	<defs/>
	<rect id="Twitter" width="32.000000" height="33.176025" fill="#0E162D" fill-opacity="0"/>
	<path id="Path" d="M23.8415 13.0022C23.8415 13.1836 23.8415 13.3652 23.8415 13.5208C23.8415 18.8857 19.8915 25.0803 12.6915 25.0803C10.4665 25.0803 8.4165 24.4065 6.6665 23.2661C6.96649 23.292 7.2915 23.3179 7.59149 23.3179C9.4165 23.3179 11.1165 22.6699 12.4665 21.5813C10.7415 21.5554 9.2915 20.3633 8.8165 18.7563C9.0665 18.8081 9.2915 18.834 9.5665 18.834C9.9165 18.834 10.2665 18.7822 10.5915 18.6785C8.7915 18.3157 7.4415 16.6826 7.4415 14.7129C7.4415 14.687 7.4415 14.687 7.4415 14.6611C7.96649 14.9722 8.5665 15.1536 9.21649 15.1794C8.1665 14.4536 7.46649 13.2097 7.46649 11.7842C7.46649 11.0325 7.6665 10.3325 7.99152 9.73657C9.9165 12.1987 12.8165 13.8057 16.0665 13.9873C15.9915 13.7021 15.9665 13.3652 15.9665 13.0542C15.9665 10.7991 17.7165 8.98486 19.8915 8.98486C21.0165 8.98486 22.0415 9.47729 22.7415 10.2549C23.6415 10.0735 24.4665 9.73657 25.2415 9.27002C24.9415 10.229 24.3165 11.0066 23.5165 11.5249C24.3165 11.4211 25.0665 11.2139 25.7665 10.877C25.2665 11.7063 24.6165 12.4321 23.8415 13.0022Z" fill="#121212" fill-opacity="0.600000" fill-rule="nonzero"/>
</svg>
