<svg width="44.193359" height="39.336365" viewBox="0 0 44.1934 39.3364" fill="none" xmlns="http://www.w3.org/2000/svg" xmlns:xlink="http://www.w3.org/1999/xlink">
	<desc>
			Created with Pixso.
	</desc>
	<defs/>
	<path id="Vector (Граница)" d="M40.4385 3.75397C39.2376 2.55249 37.8521 1.62646 36.2819 0.975891C35.4969 0.650574 34.6956 0.406616 33.8782 0.243958C33.0608 0.0812988 32.2272 0 31.3774 0C30.5276 0 29.6941 0.0812988 28.8767 0.243958C28.0592 0.406616 27.258 0.650574 26.4729 0.975891C25.6878 1.30115 24.9489 1.69537 24.2559 2.15857C23.563 2.6217 22.9162 3.15381 22.3155 3.75482L22.0962 3.97412L21.8764 3.75439C20.6253 2.5033 19.2446 1.56494 17.7343 0.939331C16.2241 0.313782 14.5843 0.000976562 12.8149 0.000976562C11.0456 0.000976562 9.40573 0.313782 7.89548 0.939331C6.38522 1.56494 5.00455 2.5033 3.75342 3.75439C2.50226 5.00555 1.5639 6.38623 0.938354 7.89648C0.312775 9.40674 0 11.0466 0 12.8159C0 14.5853 0.312775 16.2251 0.938354 17.7354C1.5639 19.2456 2.50226 20.6263 3.75342 21.8774L20.3284 38.4525C21.5069 39.631 22.6854 39.631 23.864 38.4525L38.4514 23.8649L40.4389 21.8774C41.038 21.2787 41.5685 20.6341 42.0306 19.9437C42.4955 19.249 42.8912 18.5079 43.2175 17.7205C43.5428 16.9354 43.7867 16.1341 43.9494 15.3167C44.112 14.4993 44.1934 13.6656 44.1934 12.8159C44.1934 11.9662 44.112 11.1326 43.9494 10.3152C43.7867 9.49774 43.5428 8.69647 43.2175 7.91138C42.8922 7.12628 42.4979 6.38721 42.0347 5.69427C41.5715 5.0014 41.0395 4.35468 40.4385 3.75397ZM32.9023 5.14874C33.4007 5.24792 33.8893 5.39667 34.368 5.59503C34.842 5.79144 35.2885 6.02911 35.7075 6.30804C36.1349 6.59253 36.5336 6.91998 36.9038 7.29034C37.2703 7.65662 37.5947 8.05096 37.877 8.47339C38.1595 8.89594 38.3999 9.34662 38.5983 9.82538C38.995 10.7828 39.1934 11.7796 39.1934 12.8159C39.1934 13.8522 38.995 14.8491 38.5983 15.8065C38.4009 16.2829 38.1618 16.7315 37.8811 17.1523C37.5977 17.5772 37.2718 17.9737 36.9034 18.3419L34.9159 20.3294L22.0962 33.1492L9.27643 20.3294L7.28894 18.3419C6.52597 17.5789 5.95374 16.7369 5.57224 15.816C5.19073 14.895 5 13.895 5 12.8159C5 11.7369 5.19073 10.7369 5.57224 9.81592C5.95374 8.8949 6.52597 8.05292 7.28894 7.28992C8.05191 6.52698 8.89389 5.95471 9.81488 5.57324C10.7359 5.19177 11.7359 5.00098 12.8149 5.00098C13.8939 5.00098 14.8939 5.19177 15.8149 5.57324C16.7359 5.95471 17.5779 6.52698 18.3409 7.28992L20.3284 9.27747C21.5069 10.4559 22.6854 10.4559 23.864 9.27747L25.8519 7.28955C26.2182 6.92297 26.6127 6.59851 27.0352 6.3161C27.4577 6.03369 27.9082 5.79333 28.3868 5.59503C28.8656 5.39667 29.3541 5.24792 29.8526 5.14874C30.351 5.04956 30.8593 5 31.3774 5C31.8956 5 32.4038 5.04956 32.9023 5.14874Z" fill="#FFFFFF" fill-opacity="1.000000" fill-rule="evenodd"/>
</svg>
