<svg width="202.000000" height="48.360107" viewBox="0 0 202 48.3601" fill="none" xmlns="http://www.w3.org/2000/svg" xmlns:xlink="http://www.w3.org/1999/xlink">
	<desc>
			Created with Pixso.
	</desc>
	<defs/>
	<path id="Rhythm" d="M66 40L71.6 40L71.6 29.08L72.64 29.08C73 29.92 73.32 30.52 73.72 31.12L79.68 40L86.28 40L78.44 28.56C82.68 27.64 85.16 24.92 85.16 20.48C85.16 15 81.32 11.92 75.04 11.96L66 12L66 40ZM71.6 24.04L71.6 17.04L74.72 17.04C77.76 17.04 79.48 18.28 79.48 20.52C79.48 22.8 77.76 24.04 74.72 24.04L71.6 24.04ZM87.6312 40L93.0312 40L93.0312 28.6C93.0312 25 95.0713 23.44 97.3512 23.44C100.031 23.44 101.831 25 101.831 28.6L101.831 40L107.231 40L107.231 27.28C107.231 22.04 103.791 18.72 99.3112 18.72C96.1913 18.72 94.1513 19.84 93.0312 22.08L93.0312 10.8L87.6312 10.8L87.6312 40ZM111.353 48.36C116.233 48.36 118.833 45.52 120.593 41.32L129.793 19.2L123.393 19.2L119.353 31.08C118.993 32.08 118.673 33.32 118.473 34.4C118.273 33.32 117.953 32.08 117.593 31.08L113.553 19.2L107.033 19.2L115.273 39.04L114.993 39.92C114.393 41.76 113.073 43.08 110.993 43.08C110.113 43.08 109.353 43 108.553 42.8L107.753 47.96C108.833 48.28 110.273 48.36 111.353 48.36ZM139.261 40L142.221 40L142.221 35.2L139.981 35.2C138.941 35.2 138.301 34.6 138.301 33.28L138.301 23.8L142.701 23.8L142.701 19.2L138.301 19.2L138.301 14.44L132.901 15L132.901 19.2L129.981 19.2L129.981 23.8L132.901 23.8L132.901 33.56C132.901 38.08 135.141 40 139.261 40ZM144.506 40L149.906 40L149.906 28.6C149.906 25 151.946 23.44 154.226 23.44C156.906 23.44 158.706 25 158.706 28.6L158.706 40L164.106 40L164.106 27.28C164.106 22.04 160.666 18.72 156.186 18.72C153.066 18.72 151.026 19.84 149.906 22.08L149.906 10.8L144.506 10.8L144.506 40ZM167.123 40L172.523 40L172.523 28.6C172.523 25 174.563 23.44 176.843 23.44C179.523 23.44 181.323 25 181.323 28.6L181.323 40L186.723 40L186.723 28.6C186.723 24.6 188.443 23.44 190.963 23.44C193.403 23.44 195.123 25 195.123 28.6L195.123 40L200.523 40L200.523 27.28C200.523 22.04 197.083 18.72 192.603 18.72C188.963 18.72 186.963 20.12 185.563 22.64C184.203 20.12 181.723 18.72 178.803 18.72C175.603 18.72 173.523 19.92 172.443 22.24L172.443 19.2L167.123 19.2L167.123 40Z" fill="#121212" fill-opacity="1.000000" fill-rule="evenodd"/>
	<path id="Butterfly" d="M20.2139 25.0374C19.6652 35.5242 10.8456 43.8779 0 44L0 4C10.8456 4.12207 19.6652 12.4758 20.2139 22.9626C20.7553 12.614 29.3513 4.34277 40 4.00903L40 43.991C29.3513 43.6575 20.7553 35.386 20.2139 25.0374Z" fill="#FF6428" fill-opacity="1.000000" fill-rule="evenodd"/>
</svg>
